<?xml version="1.0" encoding="utf-8"?>
<!-- Generator: Adobe Illustrator 16.0.3, SVG Export Plug-In . SVG Version: 6.00 Build 0)  -->
<!DOCTYPE svg PUBLIC "-//W3C//DTD SVG 1.1//EN" "http://www.w3.org/Graphics/SVG/1.1/DTD/svg11.dtd">
<svg version="1.1" id="Layer_1" xmlns="http://www.w3.org/2000/svg" xmlns:xlink="http://www.w3.org/1999/xlink" x="0px" y="0px"
	 width="203.157px" height="108.412px" viewBox="0 0 203.157 108.412" enable-background="new 0 0 203.157 108.412"
	 xml:space="preserve">
<g enable-background="new    ">
	<rect x="2.551" y="2.551" fill="#FFFFFF" width="198.056" height="103.309"/>
	<rect x="2.551" y="2.551" fill="none" stroke="#1A1A1A" stroke-width="2.2677" width="198.056" height="103.309"/>
	<rect x="46.074" y="3.672" fill="#F687A8" width="120.858" height="101.146"/>
	<polygon fill="#FFE900" points="74.523,88.324 80.148,88.257 82.09,82.809 83.766,88.355 89.391,88.257 84.785,91.883 
		86.563,97.465 81.988,94.168 77.352,97.465 79.129,91.852 	"/>
	<polygon fill="none" stroke="#B3B3B3" stroke-width="0.8" points="74.523,88.324 80.148,88.257 82.09,82.809 83.766,88.355 
		89.391,88.257 84.785,91.883 86.563,97.465 81.988,94.168 77.352,97.465 79.129,91.852 	"/>
	<polygon fill="#FFE900" points="96.008,94.953 101.633,94.887 103.574,89.433 105.25,94.983 110.875,94.887 106.27,98.508 
		108.047,104.094 103.473,100.796 98.836,104.094 100.613,98.477 	"/>
	<polygon fill="none" stroke="#B3B3B3" stroke-width="0.8" points="96.008,94.953 101.633,94.887 103.574,89.433 105.25,94.983 
		110.875,94.887 106.27,98.507 108.047,104.094 103.473,100.796 98.836,104.094 100.613,98.477 	"/>
	<polygon fill="#FFE900" points="118.559,88.402 124.184,88.336 126.121,82.883 127.801,88.434 133.426,88.336 128.82,91.961 
		130.598,97.542 126.023,94.246 121.387,97.542 123.164,91.926 	"/>
	<polygon fill="none" stroke="#B3B3B3" stroke-width="0.8" points="118.559,88.402 124.184,88.336 126.121,82.883 127.801,88.434 
		133.426,88.336 128.82,91.961 130.598,97.542 126.023,94.246 121.387,97.542 123.164,91.926 	"/>
	<polygon fill="#FFE900" points="134.281,73.441 139.906,73.378 141.844,67.926 143.523,73.477 149.148,73.378 144.543,77 
		146.32,82.582 141.746,79.285 137.109,82.582 138.887,76.969 	"/>
	<polygon fill="none" stroke="#B3B3B3" stroke-width="0.8" points="134.281,73.441 139.906,73.378 141.844,67.926 143.523,73.477 
		149.148,73.378 144.543,77 146.32,82.582 141.746,79.285 137.109,82.582 138.887,76.969 	"/>
	<polygon fill="#FFE900" points="139.641,51.281 145.262,51.215 147.203,45.766 148.883,51.313 154.508,51.215 149.902,54.84 
		151.676,60.422 147.105,57.125 142.469,60.422 144.242,54.809 	"/>
	<polygon fill="none" stroke="#B3B3B3" stroke-width="0.8" points="139.641,51.281 145.262,51.215 147.203,45.766 148.883,51.313 
		154.508,51.215 149.902,54.84 151.676,60.422 147.105,57.125 142.469,60.422 144.242,54.809 	"/>
	<polygon fill="#FFE900" points="133.609,30.433 139.234,30.367 141.176,24.914 142.855,30.465 148.477,30.367 143.875,33.992 
		145.648,39.574 141.078,36.277 136.441,39.574 138.215,33.957 	"/>
	<polygon fill="none" stroke="#B3B3B3" stroke-width="0.8" points="133.609,30.433 139.234,30.367 141.176,24.914 142.855,30.465 
		148.477,30.367 143.875,33.992 145.648,39.574 141.078,36.277 136.441,39.574 138.215,33.957 	"/>
	<polygon fill="#FFE900" points="117.777,15.383 123.402,15.316 125.344,9.863 127.02,15.414 132.645,15.316 128.039,18.941 
		129.816,24.523 125.242,21.227 120.605,24.523 122.383,18.907 	"/>
	<polygon fill="none" stroke="#B3B3B3" stroke-width="0.8" points="117.777,15.383 123.402,15.316 125.344,9.863 127.02,15.414 
		132.645,15.316 128.039,18.941 129.816,24.523 125.242,21.226 120.605,24.523 122.383,18.907 	"/>
	<polygon fill="#FFE900" points="96.527,10.469 102.152,10.402 104.094,4.953 105.77,10.5 111.395,10.402 106.789,14.027 
		108.566,19.609 103.992,16.312 99.355,19.609 101.133,13.996 	"/>
	<polygon fill="none" stroke="#B3B3B3" stroke-width="0.8" points="96.527,10.469 102.152,10.402 104.094,4.953 105.77,10.5 
		111.395,10.402 106.789,14.027 108.566,19.609 103.992,16.312 99.355,19.609 101.133,13.996 	"/>
	<polygon fill="#FFE900" points="74.793,15.493 80.418,15.426 82.359,9.973 84.039,15.523 89.66,15.426 85.059,19.051 
		86.832,24.632 82.262,21.336 77.625,24.632 79.398,19.016 	"/>
	<polygon fill="none" stroke="#B3B3B3" stroke-width="0.8" points="74.793,15.492 80.418,15.426 82.359,9.973 84.039,15.523 
		89.66,15.426 85.059,19.051 86.832,24.632 82.262,21.336 77.625,24.632 79.398,19.016 	"/>
	<polygon fill="#FFE900" points="58.922,73.773 64.547,73.711 66.488,68.257 68.164,73.808 73.789,73.711 69.188,77.332 
		70.961,82.918 66.391,79.616 61.754,82.918 63.527,77.301 	"/>
	<polygon fill="none" stroke="#B3B3B3" stroke-width="0.8" points="58.922,73.773 64.547,73.711 66.488,68.257 68.164,73.808 
		73.789,73.711 69.188,77.332 70.961,82.918 66.391,79.616 61.754,82.918 63.527,77.301 	"/>
	<polygon fill="#FFE900" points="53.156,51.132 58.781,51.07 60.719,45.617 62.398,51.168 68.023,51.07 63.418,54.691 
		65.195,60.273 60.621,56.977 55.984,60.273 57.762,54.66 	"/>
	<polygon fill="none" stroke="#B3B3B3" stroke-width="0.8" points="53.156,51.132 58.781,51.07 60.719,45.617 62.398,51.168 
		68.023,51.07 63.418,54.691 65.195,60.273 60.621,56.977 55.984,60.273 57.762,54.66 	"/>
	<polygon fill="#FFE900" points="58.922,30.023 64.547,29.96 66.488,24.508 68.164,30.059 73.789,29.96 69.188,33.582 
		70.961,39.168 66.391,35.867 61.754,39.168 63.527,33.551 	"/>
	<polygon fill="none" stroke="#B3B3B3" stroke-width="0.8" points="58.922,30.023 64.547,29.96 66.488,24.508 68.164,30.059 
		73.789,29.96 69.188,33.582 70.961,39.168 66.391,35.867 61.754,39.168 63.527,33.551 	"/>
	<polygon points="54.934,29.297 74.914,12.695 86.168,12.695 86.168,92.613 73.789,92.613 73.789,28.453 62.25,38.304 	"/>
	<path d="M125.547,22.543c10.848,0.183,13.906,20.777,13.789,30.398c-0.113,9.625-1.191,33.109-13.195,33.188
		c-12.004,0.074-15.535-22.52-15.219-34.336C111.242,39.976,114.703,22.359,125.547,22.543z M124.992,11.019
		c-18.656,0.313-26.633,23.262-26.988,39.102c-0.391,17.484,7.555,44.09,27.859,44.469c20.914,0.387,26.746-24.954,26.707-41.368
		C152.527,36.414,145.738,10.668,124.992,11.019z"/>
	<rect x="24.219" y="5.847" fill-rule="evenodd" clip-rule="evenodd" fill="#1A38AE" width="21.891" height="14.441"/>
	<polygon fill-rule="evenodd" clip-rule="evenodd" fill="#FCE700" points="30.688,13.808 30.211,13.461 29.719,13.804 29.91,13.258 
		29.422,12.902 30.016,12.914 30.207,12.347 30.379,12.902 30.988,12.906 30.504,13.242 	"/>
	<polygon fill-rule="evenodd" clip-rule="evenodd" fill="#FCE700" points="40.211,13.832 39.738,13.484 39.242,13.828 
		39.434,13.281 38.949,12.925 39.539,12.937 39.73,12.371 39.906,12.925 40.512,12.929 40.027,13.265 	"/>
	<polygon fill-rule="evenodd" clip-rule="evenodd" fill="#FCE700" points="39.57,11.488 39.098,11.14 38.602,11.484 38.793,10.937 
		38.305,10.582 38.898,10.593 39.09,10.027 39.266,10.582 39.871,10.586 39.387,10.922 	"/>
	<polygon fill-rule="evenodd" clip-rule="evenodd" fill="#FCE700" points="37.867,9.797 37.395,9.449 36.898,9.793 37.09,9.246 
		36.602,8.89 37.195,8.902 37.387,8.336 37.562,8.89 38.168,8.894 37.684,9.23 	"/>
	<polygon fill-rule="evenodd" clip-rule="evenodd" fill="#FCE700" points="35.473,9.144 35,8.797 34.508,9.14 34.699,8.593 
		34.211,8.238 34.801,8.25 34.992,7.683 35.168,8.238 35.773,8.242 35.289,8.578 	"/>
	<polygon fill-rule="evenodd" clip-rule="evenodd" fill="#FCE700" points="33.105,9.773 32.633,9.425 32.137,9.769 32.328,9.222 
		31.84,8.867 32.434,8.875 32.625,8.312 32.801,8.867 33.406,8.871 32.922,9.207 	"/>
	<polygon fill-rule="evenodd" clip-rule="evenodd" fill="#FCE700" points="31.328,11.465 30.855,11.117 30.359,11.461 
		30.551,10.914 30.062,10.558 30.656,10.566 30.848,10.004 31.023,10.558 31.629,10.562 31.145,10.898 	"/>
	<polygon fill-rule="evenodd" clip-rule="evenodd" fill="#FCE700" points="31.328,16.199 30.855,15.851 30.359,16.195 
		30.551,15.648 30.062,15.297 30.656,15.304 30.848,14.742 31.023,15.293 31.629,15.3 31.145,15.633 	"/>
	<polygon fill-rule="evenodd" clip-rule="evenodd" fill="#FCE700" points="33.055,17.941 32.582,17.593 32.086,17.937 32.277,17.39 
		31.793,17.035 32.383,17.043 32.574,16.48 32.75,17.035 33.355,17.039 32.871,17.371 	"/>
	<polygon fill-rule="evenodd" clip-rule="evenodd" fill="#FCE700" points="35.449,18.566 34.977,18.218 34.48,18.566 34.672,18.015 
		34.184,17.664 34.777,17.672 34.969,17.109 35.145,17.664 35.75,17.668 35.266,18 	"/>
	<polygon fill-rule="evenodd" clip-rule="evenodd" fill="#FCE700" points="37.844,17.941 37.367,17.593 36.875,17.937 37.066,17.39 
		36.578,17.035 37.172,17.043 37.363,16.48 37.535,17.035 38.145,17.039 37.66,17.371 	"/>
	<polygon fill-rule="evenodd" clip-rule="evenodd" fill="#FCE700" points="39.617,16.199 39.145,15.851 38.652,16.195 
		38.844,15.648 38.355,15.297 38.945,15.304 39.141,14.742 39.312,15.293 39.922,15.3 39.438,15.633 	"/>
	<polygon opacity="0.8824" fill="#CCCCCC" points="36.781,95.977 32.602,95.977 32.582,101.578 36.781,101.578 36.781,100.718 
		33.941,100.734 33.961,99.195 36.738,99.195 36.738,98.336 33.98,98.336 33.98,96.797 36.781,96.797 	"/>
	<polygon fill="none" stroke="#4D4D4D" stroke-width="0.9424" points="36.781,95.977 32.602,95.977 32.582,101.578 36.781,101.578 
		36.781,100.719 33.941,100.733 33.961,99.195 36.738,99.195 36.738,98.336 33.98,98.336 33.98,96.797 36.781,96.797 	"/>
	<polygon opacity="0.8824" fill="#CCCCCC" points="40.582,99.347 38.531,96.059 40.207,96.059 41.473,98.117 42.715,96.102 
		44.363,96.102 42.297,99.39 42.266,101.648 40.582,101.648 	"/>
	<polygon fill="none" stroke="#4D4D4D" stroke-width="0.9424" points="40.582,99.348 38.531,96.059 40.207,96.059 41.473,98.117 
		42.715,96.102 44.363,96.102 42.297,99.391 42.266,101.647 40.582,101.647 	"/>
	<path opacity="0.8824" fill="#CCCCCC" d="M47.707,96.906l0.906,0.022c0,0,0.875-0.12,0.844,0.853
		c-0.031,0.883-0.895,0.863-0.895,0.863h-0.828L47.707,96.906z M46.168,95.968l-0.051,5.7h1.695V99.84h0.75
		c0,0,2.422,0.05,2.352-2.156c-0.062-1.934-2.461-1.716-2.461-1.716H46.168z"/>
	<path fill="none" stroke="#4D4D4D" stroke-width="0.9424" d="M47.707,96.906l0.906,0.023c0,0,0.875-0.121,0.844,0.852
		c-0.031,0.883-0.894,0.863-0.894,0.863h-0.829L47.707,96.906z M46.168,95.969l-0.051,5.699h1.696V99.84h0.75
		c0,0,2.421,0.051,2.351-2.156c-0.062-1.934-2.461-1.715-2.461-1.715H46.168z"/>
	<path opacity="0.8824" fill="#CCCCCC" d="M56.84,98.727c0.012,1.109-0.871,2.141-0.871,2.141l0.011,0.82h2.622l0.039-0.609
		l-1.121-0.012c0,0,1.109-1.224,1.109-2.355c-0.012-2.441-1.988-2.961-3.113-2.946c-1.141,0.013-3.106,0.47-3.114,2.91
		c0,1.134,0.918,2.356,0.918,2.356l-1.156,0.012l0.039,0.645h2.617l-0.027-0.855c0,0-0.77-1.032-0.723-2.141
		c0.055-1.25,0.95-1.684,1.407-1.681c0.621,0.013,1.359,0.427,1.367,1.716H56.84z"/>
	<path fill="none" stroke="#4D4D4D" stroke-width="0.9424" d="M56.84,98.727c0.012,1.109-0.871,2.141-0.871,2.141l0.011,0.82h2.622
		l0.039-0.609l-1.121-0.013c0,0,1.109-1.222,1.109-2.354c-0.012-2.441-1.988-2.961-3.113-2.945c-1.141,0.011-3.106,0.468-3.114,2.91
		c0,1.133,0.918,2.355,0.918,2.355l-1.156,0.012l0.039,0.645h2.617l-0.027-0.855c0,0-0.77-1.031-0.723-2.142
		c0.055-1.25,0.95-1.683,1.407-1.679c0.621,0.011,1.359,0.426,1.367,1.715H56.84z"/>
	<polygon fill="#333333" points="36.77,88.629 32.414,88.609 32.414,94.859 36.703,94.859 36.703,93.523 34.141,93.523 
		34.141,92.297 36.68,92.297 36.68,91.011 34.141,91.011 34.141,89.945 36.742,89.945 	"/>
	<path fill="#333333" d="M44.055,93.066l0.078-4.418l-1.832,0.02l-0.039,4.27c-0.032,0.586-0.602,0.898-0.992,0.866
		c-0.465-0.034-0.829-0.296-0.918-0.879l-0.04-4.269l-1.832-0.021l0.079,4.423c0.179,1.68,2.191,1.945,2.746,1.949
		C41.863,95.015,43.871,94.746,44.055,93.066z"/>
	<path fill="#333333" d="M47.664,89.879l1.031,0.027c0.625,0.152,0.532,1.176,0,1.32h-1.031V89.879z M46.023,88.636v6.216h1.657
		v-2.423h0.882c0.395,0.735,0.821,1.454,0.922,2.384h1.735c-0.281-1.16-0.754-2.113-1.281-3.004
		c1.515-1.012,0.976-2.841-0.575-3.094L46.023,88.636z"/>
	<path fill="#333333" d="M55.59,89.957c0.5,0.027,1.105,0.547,1.137,1.785c0.031,1.242-0.602,1.848-1.231,1.824
		c-0.625-0.02-1.176-0.642-1.164-1.97C54.348,90.27,55.09,89.929,55.59,89.957z M55.723,88.664c-1.2-0.047-2.977,0.52-3.004,2.828
		C52.688,93.8,54,94.886,55.496,94.929c1.5,0.043,3.016-1.019,2.942-3.171C58.363,89.602,56.922,88.711,55.723,88.664z"/>
	<g id="EURion_constellation">
		<path fill="#F3E552" d="M48.531,43.789c0.18,0,0.324,0.144,0.324,0.324c0,0.184-0.144,0.328-0.324,0.328
			c-0.183,0-0.328-0.144-0.328-0.328C48.203,43.933,48.348,43.789,48.531,43.789z M48.531,43.476c-0.355,0-0.644,0.285-0.644,0.637
			c0,0.355,0.289,0.641,0.644,0.641c0.356,0,0.641-0.286,0.641-0.641C49.172,43.761,48.887,43.476,48.531,43.476z"/>
		<path fill="#F3E552" d="M48.012,35.277c0.179,0,0.328,0.145,0.328,0.324c0,0.18-0.149,0.324-0.328,0.324
			c-0.184,0-0.328-0.144-0.328-0.324C47.684,35.422,47.828,35.277,48.012,35.277z M48.012,34.961c-0.356,0-0.645,0.289-0.645,0.64
			c0,0.356,0.289,0.641,0.645,0.641c0.355,0,0.64-0.285,0.64-0.641C48.652,35.25,48.367,34.961,48.012,34.961z"/>
		<path fill="#F3E552" d="M50.34,33.425c0.18,0,0.324,0.145,0.324,0.325c0,0.179-0.144,0.324-0.324,0.324
			c-0.184,0-0.328-0.145-0.328-0.324C50.012,33.57,50.156,33.425,50.34,33.425z M50.34,33.109c-0.356,0-0.645,0.285-0.645,0.641
			c0,0.351,0.289,0.64,0.645,0.64c0.355,0,0.64-0.289,0.64-0.64C50.98,33.394,50.695,33.109,50.34,33.109z"/>
		<path fill="#F3E552" d="M53.598,32.601c0.179,0,0.328,0.145,0.328,0.324c0,0.18-0.149,0.329-0.328,0.329
			c-0.184,0-0.328-0.149-0.328-0.329C53.27,32.746,53.414,32.601,53.598,32.601z M53.598,32.289c-0.356,0-0.645,0.285-0.645,0.636
			c0,0.356,0.289,0.641,0.645,0.641c0.355,0,0.64-0.285,0.64-0.641C54.238,32.574,53.953,32.289,53.598,32.289z"/>
		<path fill="#F3E552" d="M52.457,37.847c0.184,0,0.328,0.145,0.328,0.328c0,0.18-0.144,0.325-0.328,0.325
			c-0.18,0-0.324-0.145-0.324-0.325C52.133,37.992,52.277,37.847,52.457,37.847z M52.457,37.535c-0.355,0-0.641,0.285-0.641,0.64
			c0,0.352,0.286,0.637,0.641,0.637s0.645-0.285,0.645-0.637C53.102,37.82,52.812,37.535,52.457,37.535z"/>
		<path fill="#F3E552" d="M55.148,39.906c0.18,0,0.329,0.144,0.329,0.324c0,0.18-0.149,0.328-0.329,0.328
			c-0.183,0-0.328-0.148-0.328-0.328C54.82,40.05,54.965,39.906,55.148,39.906z M55.148,39.593c-0.355,0-0.644,0.286-0.644,0.637
			c0,0.356,0.289,0.641,0.644,0.641c0.356,0,0.641-0.285,0.641-0.641C55.789,39.879,55.504,39.593,55.148,39.593z"/>
		<path fill="#F3E552" d="M50.699,40.73c0.184,0,0.328,0.145,0.328,0.324c0,0.18-0.144,0.325-0.328,0.325
			c-0.179,0-0.328-0.145-0.328-0.325C50.371,40.875,50.52,40.73,50.699,40.73z M50.699,40.414c-0.355,0-0.64,0.289-0.64,0.64
			c0,0.356,0.285,0.641,0.64,0.641c0.356,0,0.645-0.285,0.645-0.641C51.344,40.703,51.055,40.414,50.699,40.414z"/>
		<path fill="#F3E552" d="M61.043,38.363c0.184,0,0.328,0.145,0.328,0.324c0,0.18-0.144,0.328-0.328,0.328
			c-0.18,0-0.328-0.148-0.328-0.328C60.715,38.508,60.863,38.363,61.043,38.363z M61.043,38.05c-0.355,0-0.641,0.286-0.641,0.637
			c0,0.356,0.286,0.641,0.641,0.641s0.645-0.285,0.645-0.641C61.688,38.336,61.398,38.05,61.043,38.05z"/>
		<path fill="#F3E552" d="M65.234,38.414c0.18,0,0.325,0.144,0.325,0.324c0,0.184-0.145,0.328-0.325,0.328
			c-0.183,0-0.328-0.144-0.328-0.328C64.906,38.558,65.051,38.414,65.234,38.414z M65.234,38.101c-0.359,0-0.644,0.285-0.644,0.637
			c0,0.355,0.285,0.641,0.644,0.641c0.356,0,0.641-0.286,0.641-0.641C65.875,38.386,65.59,38.101,65.234,38.101z"/>
		<path fill="#F3E552" d="M62.387,41.707c0.183,0,0.328,0.144,0.328,0.324c0,0.18-0.145,0.328-0.328,0.328
			c-0.18,0-0.328-0.148-0.328-0.328C62.059,41.851,62.207,41.707,62.387,41.707z M62.387,41.394c-0.356,0-0.641,0.285-0.641,0.637
			c0,0.355,0.285,0.641,0.641,0.641c0.355,0,0.644-0.286,0.644-0.641C63.031,41.679,62.742,41.394,62.387,41.394z"/>
		<path fill="#F3E552" d="M66.68,42.531c0.183,0,0.328,0.144,0.328,0.324c0,0.18-0.145,0.324-0.328,0.324
			c-0.18,0-0.328-0.144-0.328-0.324C66.352,42.675,66.5,42.531,66.68,42.531z M66.68,42.215c-0.356,0-0.641,0.285-0.641,0.64
			c0,0.356,0.285,0.641,0.641,0.641c0.355,0,0.644-0.285,0.644-0.641C67.324,42.5,67.035,42.215,66.68,42.215z"/>
		<path fill="#F3E552" d="M72.215,42.476c0.18,0,0.328,0.149,0.328,0.328c0,0.18-0.148,0.325-0.328,0.325
			c-0.184,0-0.328-0.145-0.328-0.325C71.887,42.625,72.031,42.476,72.215,42.476z M72.215,42.164c-0.356,0-0.645,0.285-0.645,0.64
			c0,0.352,0.289,0.637,0.645,0.637c0.355,0,0.64-0.285,0.64-0.637C72.855,42.449,72.57,42.164,72.215,42.164z"/>
		<path fill="#F3E552" d="M50.547,49.269c0.18,0,0.324,0.145,0.324,0.324c0,0.18-0.144,0.329-0.324,0.329
			c-0.184,0-0.328-0.149-0.328-0.329C50.219,49.414,50.363,49.269,50.547,49.269z M50.547,48.957c-0.356,0-0.645,0.285-0.645,0.636
			c0,0.356,0.289,0.641,0.645,0.641c0.355,0,0.641-0.285,0.641-0.641C51.188,49.242,50.902,48.957,50.547,48.957z"/>
		<path fill="#F3E552" d="M48.426,52.254c0.179,0,0.328,0.144,0.328,0.324s-0.149,0.328-0.328,0.328
			c-0.184,0-0.328-0.148-0.328-0.328S48.242,52.254,48.426,52.254z M48.426,51.937c-0.356,0-0.645,0.289-0.645,0.641
			c0,0.355,0.289,0.64,0.645,0.64c0.355,0,0.64-0.285,0.64-0.64C49.066,52.226,48.781,51.937,48.426,51.937z"/>
		<path fill="#F3E552" d="M50.492,55.547c0.184,0,0.328,0.145,0.328,0.324c0,0.179-0.144,0.324-0.328,0.324
			c-0.18,0-0.328-0.146-0.328-0.324C50.164,55.691,50.312,55.547,50.492,55.547z M50.492,55.23c-0.355,0-0.64,0.284-0.64,0.641
			c0,0.351,0.285,0.64,0.64,0.64c0.356,0,0.645-0.289,0.645-0.64C51.137,55.515,50.848,55.23,50.492,55.23z"/>
		<path fill="#F3E552" d="M47.754,56.472c0.18,0,0.328,0.146,0.328,0.325s-0.148,0.324-0.328,0.324
			c-0.184,0-0.328-0.145-0.328-0.324S47.57,56.472,47.754,56.472z M47.754,56.156c-0.356,0-0.645,0.285-0.645,0.641
			s0.289,0.641,0.645,0.641c0.355,0,0.641-0.285,0.641-0.641S48.109,56.156,47.754,56.156z"/>
		<path fill="#F3E552" d="M56.492,57.242c0.18,0,0.328,0.144,0.328,0.328c0,0.18-0.148,0.324-0.328,0.324
			c-0.18,0-0.328-0.145-0.328-0.324C56.164,57.386,56.312,57.242,56.492,57.242z M56.492,56.929c-0.355,0-0.64,0.286-0.64,0.642
			c0,0.352,0.285,0.637,0.64,0.637c0.356,0,0.645-0.285,0.645-0.637C57.137,57.215,56.848,56.929,56.492,56.929z"/>
		<path fill="#F3E552" d="M61.094,57.965c0.183,0,0.328,0.145,0.328,0.324c0,0.179-0.145,0.324-0.328,0.324
			c-0.18,0-0.324-0.146-0.324-0.324C60.77,58.109,60.914,57.965,61.094,57.965z M61.094,57.648c-0.356,0-0.641,0.285-0.641,0.641
			c0,0.351,0.285,0.64,0.641,0.64c0.355,0,0.644-0.289,0.644-0.64C61.738,57.934,61.449,57.648,61.094,57.648z"/>
		<path fill="#F3E552" d="M62.492,52.199c0.18,0,0.328,0.148,0.328,0.328c0,0.18-0.148,0.324-0.328,0.324
			c-0.183,0-0.328-0.144-0.328-0.324C62.164,52.347,62.309,52.199,62.492,52.199z M62.492,51.886c-0.355,0-0.644,0.286-0.644,0.641
			c0,0.352,0.289,0.641,0.644,0.641c0.356,0,0.641-0.289,0.641-0.641C63.133,52.172,62.848,51.886,62.492,51.886z"/>
		<path fill="#F3E552" d="M66.473,50.965c0.183,0,0.328,0.148,0.328,0.328c0,0.179-0.145,0.324-0.328,0.324
			c-0.18,0-0.328-0.145-0.328-0.324C66.145,51.113,66.293,50.965,66.473,50.965z M66.473,50.652c-0.356,0-0.641,0.285-0.641,0.641
			c0,0.351,0.285,0.636,0.641,0.636c0.355,0,0.644-0.285,0.644-0.636C67.117,50.937,66.828,50.652,66.473,50.652z"/>
		<path fill="#F3E552" d="M70.508,46.183c0.18,0,0.328,0.145,0.328,0.325c0,0.179-0.148,0.324-0.328,0.324
			c-0.18,0-0.328-0.145-0.328-0.324C70.18,46.328,70.328,46.183,70.508,46.183z M70.508,45.867c-0.356,0-0.645,0.289-0.645,0.641
			c0,0.355,0.289,0.64,0.645,0.64c0.355,0,0.64-0.285,0.64-0.64C71.148,46.156,70.863,45.867,70.508,45.867z"/>
		<path fill="#F3E552" d="M48.941,61.511c0.184,0,0.329,0.146,0.329,0.329c0,0.18-0.145,0.324-0.329,0.324
			c-0.179,0-0.328-0.145-0.328-0.324C48.613,61.656,48.762,61.511,48.941,61.511z M48.941,61.199c-0.355,0-0.64,0.285-0.64,0.641
			c0,0.352,0.285,0.637,0.64,0.637c0.356,0,0.645-0.285,0.645-0.637C49.586,61.484,49.297,61.199,48.941,61.199z"/>
		<path fill="#F3E552" d="M47.805,63.211c0.179,0,0.328,0.145,0.328,0.324s-0.149,0.328-0.328,0.328
			c-0.18,0-0.328-0.148-0.328-0.328S47.625,63.211,47.805,63.211z M47.805,62.898c-0.356,0-0.645,0.285-0.645,0.637
			c0,0.354,0.289,0.64,0.645,0.64c0.355,0,0.64-0.285,0.64-0.64C48.445,63.184,48.16,62.898,47.805,62.898z"/>
		<path fill="#F3E552" d="M52.148,60.434c0.18,0,0.329,0.145,0.329,0.324s-0.149,0.324-0.329,0.324
			c-0.179,0-0.328-0.145-0.328-0.324S51.969,60.434,52.148,60.434z M52.148,60.117c-0.355,0-0.644,0.289-0.644,0.641
			c0,0.355,0.289,0.641,0.644,0.641c0.356,0,0.641-0.285,0.641-0.641C52.789,60.406,52.504,60.117,52.148,60.117z"/>
		<path fill="#F3E552" d="M52.613,63.621c0.184,0,0.328,0.144,0.328,0.328c0,0.18-0.144,0.324-0.328,0.324
			c-0.179,0-0.328-0.145-0.328-0.324C52.285,63.765,52.434,63.621,52.613,63.621z M52.613,63.309c-0.355,0-0.64,0.284-0.64,0.641
			c0,0.351,0.285,0.637,0.64,0.637c0.356,0,0.645-0.286,0.645-0.637C53.258,63.593,52.969,63.309,52.613,63.309z"/>
		<path fill="#F3E552" d="M56.699,60.484c0.18,0,0.328,0.145,0.328,0.324s-0.148,0.327-0.328,0.327
			c-0.179,0-0.328-0.147-0.328-0.327S56.52,60.484,56.699,60.484z M56.699,60.172c-0.355,0-0.64,0.285-0.64,0.637
			c0,0.355,0.285,0.641,0.64,0.641c0.356,0,0.645-0.285,0.645-0.641C57.344,60.457,57.055,60.172,56.699,60.172z"/>
		<path fill="#F3E552" d="M58.301,63.363c0.183,0,0.328,0.147,0.328,0.328c0,0.18-0.145,0.323-0.328,0.323
			c-0.18,0-0.324-0.144-0.324-0.323C57.977,63.511,58.121,63.363,58.301,63.363z M58.301,63.05c-0.356,0-0.641,0.286-0.641,0.642
			c0,0.352,0.285,0.637,0.641,0.637c0.355,0,0.644-0.285,0.644-0.637C58.945,63.336,58.656,63.05,58.301,63.05z"/>
		<path fill="#F3E552" d="M66.008,58.015c0.18,0,0.328,0.146,0.328,0.325s-0.148,0.328-0.328,0.328c-0.18,0-0.328-0.148-0.328-0.328
			S65.828,58.015,66.008,58.015z M66.008,57.699c-0.356,0-0.641,0.289-0.641,0.641c0,0.355,0.285,0.641,0.641,0.641
			c0.355,0,0.644-0.285,0.644-0.641C66.652,57.988,66.363,57.699,66.008,57.699z"/>
		<path fill="#F3E552" d="M71.387,54.925c0.179,0,0.328,0.149,0.328,0.329s-0.149,0.324-0.328,0.324
			c-0.18,0-0.328-0.145-0.328-0.324S71.207,54.925,71.387,54.925z M71.387,54.613c-0.356,0-0.645,0.285-0.645,0.641
			c0,0.352,0.289,0.641,0.645,0.641c0.355,0,0.64-0.289,0.64-0.641C72.027,54.898,71.742,54.613,71.387,54.613z"/>
		<path fill="#F3E552" d="M71.695,51.531c0.184,0,0.328,0.148,0.328,0.328c0,0.18-0.144,0.324-0.328,0.324
			c-0.179,0-0.324-0.144-0.324-0.324C71.371,51.679,71.516,51.531,71.695,51.531z M71.695,51.218c-0.355,0-0.64,0.286-0.64,0.641
			c0,0.352,0.285,0.637,0.64,0.637c0.356,0,0.645-0.285,0.645-0.637C72.34,51.504,72.051,51.218,71.695,51.218z"/>
		<path fill="#F3E552" d="M75.008,52.406c0.18,0,0.328,0.144,0.328,0.328c0,0.18-0.148,0.324-0.328,0.324
			c-0.184,0-0.328-0.144-0.328-0.324C74.68,52.55,74.824,52.406,75.008,52.406z M75.008,52.093c-0.356,0-0.645,0.286-0.645,0.641
			c0,0.352,0.289,0.637,0.645,0.637c0.355,0,0.64-0.285,0.64-0.637C75.648,52.379,75.363,52.093,75.008,52.093z"/>
		<path fill="#F3E552" d="M75.109,58.015c0.184,0,0.329,0.146,0.329,0.325s-0.145,0.328-0.329,0.328
			c-0.179,0-0.328-0.148-0.328-0.328S74.93,58.015,75.109,58.015z M75.109,57.699c-0.355,0-0.64,0.289-0.64,0.641
			c0,0.355,0.285,0.641,0.64,0.641c0.356,0,0.645-0.285,0.645-0.641C75.754,57.988,75.465,57.699,75.109,57.699z"/>
		<path fill="#F3E552" d="M74.953,45.461c0.184,0,0.328,0.148,0.328,0.328c0,0.179-0.144,0.324-0.328,0.324
			c-0.18,0-0.324-0.145-0.324-0.324C74.629,45.609,74.773,45.461,74.953,45.461z M74.953,45.148c-0.355,0-0.641,0.285-0.641,0.641
			c0,0.351,0.286,0.636,0.641,0.636c0.356,0,0.645-0.285,0.645-0.636C75.598,45.433,75.309,45.148,74.953,45.148z"/>
		<path fill="#F3E552" d="M75.008,39.906c0.18,0,0.328,0.144,0.328,0.324c0,0.18-0.148,0.328-0.328,0.328
			c-0.184,0-0.328-0.148-0.328-0.328C74.68,40.05,74.824,39.906,75.008,39.906z M75.008,39.593c-0.356,0-0.645,0.286-0.645,0.637
			c0,0.356,0.289,0.641,0.645,0.641c0.355,0,0.64-0.285,0.64-0.641C75.648,39.879,75.363,39.593,75.008,39.593z"/>
		<path fill="#F3E552" d="M78.68,38.879c0.179,0,0.328,0.144,0.328,0.324s-0.149,0.324-0.328,0.324
			c-0.184,0-0.328-0.144-0.328-0.324S78.496,38.879,78.68,38.879z M78.68,38.562c-0.356,0-0.645,0.285-0.645,0.641
			c0,0.351,0.289,0.64,0.645,0.64c0.355,0,0.64-0.289,0.64-0.64C79.32,38.847,79.035,38.562,78.68,38.562z"/>
		<path fill="#F3E552" d="M82.66,40.984c0.184,0,0.328,0.149,0.328,0.328c0,0.18-0.144,0.324-0.328,0.324
			c-0.18,0-0.328-0.144-0.328-0.324C82.332,41.133,82.48,40.984,82.66,40.984z M82.66,40.672c-0.355,0-0.64,0.285-0.64,0.64
			c0,0.352,0.285,0.641,0.64,0.641c0.356,0,0.645-0.289,0.645-0.641C83.305,40.957,83.016,40.672,82.66,40.672z"/>
		<path fill="#F3E552" d="M79.301,42.168c0.179,0,0.324,0.148,0.324,0.328c0,0.179-0.145,0.324-0.324,0.324
			c-0.184,0-0.328-0.145-0.328-0.324C78.973,42.316,79.117,42.168,79.301,42.168z M79.301,41.855c-0.356,0-0.645,0.285-0.645,0.641
			c0,0.351,0.289,0.637,0.645,0.637c0.355,0,0.64-0.286,0.64-0.637C79.941,42.14,79.656,41.855,79.301,41.855z"/>
		<path fill="#F3E552" d="M81.211,46.902c0.184,0,0.328,0.145,0.328,0.324c0,0.184-0.144,0.328-0.328,0.328
			c-0.18,0-0.324-0.144-0.324-0.328C80.887,47.047,81.031,46.902,81.211,46.902z M81.211,46.59c-0.356,0-0.641,0.285-0.641,0.636
			c0,0.356,0.285,0.641,0.641,0.641c0.355,0,0.644-0.285,0.644-0.641C81.855,46.875,81.566,46.59,81.211,46.59z"/>
		<path fill="#F3E552" d="M80.746,56.472c0.184,0,0.328,0.146,0.328,0.325s-0.144,0.324-0.328,0.324
			c-0.18,0-0.328-0.145-0.328-0.324S80.566,56.472,80.746,56.472z M80.746,56.156c-0.355,0-0.641,0.285-0.641,0.641
			s0.286,0.641,0.641,0.641c0.356,0,0.645-0.285,0.645-0.641S81.102,56.156,80.746,56.156z"/>
		<path fill="#F3E552" d="M79.352,63.16c0.179,0,0.328,0.144,0.328,0.324c0,0.18-0.149,0.324-0.328,0.324
			c-0.184,0-0.329-0.145-0.329-0.324C79.023,63.304,79.168,63.16,79.352,63.16z M79.352,62.843c-0.356,0-0.645,0.29-0.645,0.642
			c0,0.355,0.289,0.641,0.645,0.641c0.355,0,0.64-0.285,0.64-0.641C79.992,63.133,79.707,62.843,79.352,62.843z"/>
		<path fill="#F3E552" d="M73.301,61.977c0.179,0,0.328,0.145,0.328,0.323c0,0.181-0.149,0.329-0.328,0.329
			c-0.184,0-0.328-0.148-0.328-0.329C72.973,62.121,73.117,61.977,73.301,61.977z M73.301,61.664c-0.356,0-0.645,0.285-0.645,0.636
			c0,0.356,0.289,0.642,0.645,0.642c0.355,0,0.64-0.285,0.64-0.642C73.941,61.949,73.656,61.664,73.301,61.664z"/>
		<path fill="#F3E552" d="M70.609,60.227c0.184,0,0.329,0.145,0.329,0.323c0,0.185-0.145,0.329-0.329,0.329
			c-0.179,0-0.324-0.145-0.324-0.329C70.285,60.371,70.43,60.227,70.609,60.227z M70.609,59.914c-0.355,0-0.64,0.285-0.64,0.636
			c0,0.356,0.285,0.642,0.64,0.642c0.356,0,0.645-0.285,0.645-0.642C71.254,60.199,70.965,59.914,70.609,59.914z"/>
		<path fill="#F3E552" d="M69.109,63.16c0.184,0,0.329,0.144,0.329,0.324c0,0.18-0.145,0.324-0.329,0.324
			c-0.179,0-0.324-0.145-0.324-0.324C68.785,63.304,68.93,63.16,69.109,63.16z M69.109,62.843c-0.355,0-0.64,0.29-0.64,0.642
			c0,0.355,0.285,0.641,0.64,0.641c0.356,0,0.645-0.285,0.645-0.641C69.754,63.133,69.465,62.843,69.109,62.843z"/>
		<path fill="#F3E552" d="M71.543,65.938c0.18,0,0.328,0.145,0.328,0.323c0,0.181-0.148,0.329-0.328,0.329
			c-0.184,0-0.328-0.148-0.328-0.329C71.215,66.082,71.359,65.938,71.543,65.938z M71.543,65.625c-0.355,0-0.645,0.285-0.645,0.636
			c0,0.356,0.29,0.642,0.645,0.642s0.641-0.285,0.641-0.642C72.184,65.91,71.898,65.625,71.543,65.625z"/>
		<path fill="#F3E552" d="M74.645,65.011c0.179,0,0.328,0.146,0.328,0.325c0,0.179-0.149,0.328-0.328,0.328
			c-0.18,0-0.329-0.149-0.329-0.328C74.316,65.156,74.465,65.011,74.645,65.011z M74.645,64.699c-0.356,0-0.641,0.285-0.641,0.637
			c0,0.355,0.285,0.641,0.641,0.641c0.355,0,0.644-0.285,0.644-0.641C75.289,64.984,75,64.699,74.645,64.699z"/>
		<path fill="#F3E552" d="M78.367,69.125c0.184,0,0.328,0.148,0.328,0.328s-0.144,0.324-0.328,0.324
			c-0.179,0-0.328-0.145-0.328-0.324S78.188,69.125,78.367,69.125z M78.367,68.813c-0.355,0-0.64,0.284-0.64,0.641
			c0,0.351,0.285,0.637,0.64,0.637c0.356,0,0.645-0.286,0.645-0.637C79.012,69.097,78.723,68.813,78.367,68.813z"/>
		<path fill="#F3E552" d="M80.797,71.593c0.183,0,0.328,0.149,0.328,0.329s-0.145,0.324-0.328,0.324
			c-0.18,0-0.324-0.145-0.324-0.324S80.617,71.593,80.797,71.593z M80.797,71.281c-0.356,0-0.641,0.285-0.641,0.641
			c0,0.352,0.285,0.641,0.641,0.641c0.359,0,0.644-0.289,0.644-0.641C81.441,71.566,81.156,71.281,80.797,71.281z"/>
		<path fill="#F3E552" d="M75.008,70.207c0.18,0,0.328,0.145,0.328,0.324s-0.148,0.328-0.328,0.328
			c-0.184,0-0.328-0.148-0.328-0.328S74.824,70.207,75.008,70.207z M75.008,69.895c-0.356,0-0.645,0.284-0.645,0.637
			c0,0.354,0.289,0.641,0.645,0.641c0.355,0,0.64-0.286,0.64-0.641C75.648,70.179,75.363,69.895,75.008,69.895z"/>
		<path fill="#F3E552" d="M69.523,70.207c0.184,0,0.329,0.145,0.329,0.324s-0.145,0.328-0.329,0.328
			c-0.179,0-0.328-0.148-0.328-0.328S69.344,70.207,69.523,70.207z M69.523,69.895c-0.355,0-0.64,0.284-0.64,0.637
			c0,0.354,0.285,0.641,0.64,0.641c0.356,0,0.645-0.286,0.645-0.641C70.168,70.179,69.879,69.895,69.523,69.895z"/>
		<path fill="#F3E552" d="M67.973,72.883c0.183,0,0.328,0.145,0.328,0.324c0,0.179-0.145,0.328-0.328,0.328
			c-0.18,0-0.328-0.149-0.328-0.328C67.645,73.027,67.793,72.883,67.973,72.883z M67.973,72.57c-0.356,0-0.641,0.285-0.641,0.637
			c0,0.355,0.285,0.64,0.641,0.64c0.355,0,0.644-0.284,0.644-0.64C68.617,72.855,68.328,72.57,67.973,72.57z"/>
		<path fill="#F3E552" d="M51.371,68.664c0.184,0,0.328,0.145,0.328,0.324s-0.144,0.328-0.328,0.328
			c-0.18,0-0.324-0.148-0.324-0.328S51.191,68.664,51.371,68.664z M51.371,68.352c-0.355,0-0.641,0.284-0.641,0.637
			c0,0.354,0.286,0.641,0.641,0.641c0.356,0,0.645-0.286,0.645-0.641C52.016,68.636,51.727,68.352,51.371,68.352z"/>
		<path fill="#F3E552" d="M47.805,68.613c0.179,0,0.328,0.145,0.328,0.324s-0.149,0.323-0.328,0.323
			c-0.18,0-0.328-0.144-0.328-0.323S47.625,68.613,47.805,68.613z M47.805,68.297c-0.356,0-0.645,0.289-0.645,0.641
			c0,0.355,0.289,0.641,0.645,0.641c0.355,0,0.64-0.285,0.64-0.641C48.445,68.586,48.16,68.297,47.805,68.297z"/>
		<path fill="#F3E552" d="M48.27,73.703c0.179,0,0.328,0.148,0.328,0.328s-0.149,0.324-0.328,0.324c-0.18,0-0.329-0.145-0.329-0.324
			S48.09,73.703,48.27,73.703z M48.27,73.39c-0.356,0-0.641,0.285-0.641,0.642c0,0.352,0.285,0.641,0.641,0.641
			c0.355,0,0.644-0.289,0.644-0.641C48.914,73.675,48.625,73.39,48.27,73.39z"/>
		<path fill="#F3E552" d="M53.492,75.043c0.184,0,0.328,0.145,0.328,0.324s-0.144,0.328-0.328,0.328
			c-0.18,0-0.328-0.148-0.328-0.328S53.312,75.043,53.492,75.043z M53.492,74.73c-0.355,0-0.64,0.284-0.64,0.637
			c0,0.354,0.285,0.641,0.64,0.641c0.356,0,0.645-0.286,0.645-0.641C54.137,75.015,53.848,74.73,53.492,74.73z"/>
		<path fill="#F3E552" d="M55.77,72.367c0.179,0,0.328,0.144,0.328,0.324c0,0.184-0.149,0.328-0.328,0.328
			c-0.184,0-0.329-0.145-0.329-0.328C55.441,72.511,55.586,72.367,55.77,72.367z M55.77,72.054c-0.356,0-0.645,0.286-0.645,0.638
			c0,0.355,0.289,0.641,0.645,0.641c0.355,0,0.64-0.285,0.64-0.641C56.41,72.34,56.125,72.054,55.77,72.054z"/>
		<path fill="#F3E552" d="M59.336,73.449c0.184,0,0.328,0.144,0.328,0.324c0,0.18-0.144,0.323-0.328,0.323
			c-0.18,0-0.328-0.144-0.328-0.323C59.008,73.593,59.156,73.449,59.336,73.449z M59.336,73.133c-0.356,0-0.641,0.285-0.641,0.641
			s0.285,0.641,0.641,0.641c0.355,0,0.644-0.285,0.644-0.641S59.691,73.133,59.336,73.133z"/>
		<path fill="#F3E552" d="M59.855,76.843c0.18,0,0.325,0.146,0.325,0.325c0,0.179-0.145,0.328-0.325,0.328
			c-0.183,0-0.328-0.149-0.328-0.328C59.527,76.988,59.672,76.843,59.855,76.843z M59.855,76.531c-0.355,0-0.644,0.285-0.644,0.637
			c0,0.355,0.289,0.641,0.644,0.641c0.356,0,0.641-0.285,0.641-0.641C60.496,76.816,60.211,76.531,59.855,76.531z"/>
		<path fill="#F3E552" d="M56.336,76.843c0.184,0,0.328,0.146,0.328,0.325c0,0.179-0.144,0.328-0.328,0.328
			c-0.18,0-0.324-0.149-0.324-0.328C56.012,76.988,56.156,76.843,56.336,76.843z M56.336,76.531c-0.356,0-0.641,0.285-0.641,0.637
			c0,0.355,0.285,0.641,0.641,0.641c0.355,0,0.644-0.285,0.644-0.641C56.98,76.816,56.691,76.531,56.336,76.531z"/>
		<path fill="#F3E552" d="M64.922,76.07c0.18,0,0.328,0.147,0.328,0.328c0,0.18-0.148,0.323-0.328,0.323
			c-0.18,0-0.328-0.144-0.328-0.323C64.594,76.218,64.742,76.07,64.922,76.07z M64.922,75.758c-0.356,0-0.641,0.285-0.641,0.641
			c0,0.352,0.285,0.637,0.641,0.637c0.355,0,0.644-0.285,0.644-0.637C65.566,76.043,65.277,75.758,64.922,75.758z"/>
		<path fill="#F3E552" d="M70.816,75.761c0.184,0,0.329,0.149,0.329,0.329S71,76.414,70.816,76.414
			c-0.179,0-0.328-0.145-0.328-0.324S70.637,75.761,70.816,75.761z M70.816,75.449c-0.355,0-0.64,0.285-0.64,0.641
			c0,0.352,0.285,0.637,0.64,0.637c0.356,0,0.645-0.285,0.645-0.637C71.461,75.734,71.172,75.449,70.816,75.449z"/>
		<path fill="#F3E552" d="M47.754,79.773c0.18,0,0.328,0.148,0.328,0.328s-0.148,0.323-0.328,0.323
			c-0.184,0-0.328-0.144-0.328-0.323S47.57,79.773,47.754,79.773z M47.754,79.461c-0.356,0-0.645,0.285-0.645,0.641
			c0,0.352,0.289,0.641,0.645,0.641c0.355,0,0.641-0.289,0.641-0.641C48.395,79.746,48.109,79.461,47.754,79.461z"/>
		<path fill="#F3E552" d="M50.855,79.261c0.18,0,0.329,0.146,0.329,0.325c0,0.179-0.149,0.328-0.329,0.328
			c-0.179,0-0.328-0.149-0.328-0.328C50.527,79.406,50.676,79.261,50.855,79.261z M50.855,78.949c-0.355,0-0.64,0.285-0.64,0.637
			c0,0.355,0.285,0.641,0.64,0.641c0.356,0,0.645-0.285,0.645-0.641C51.5,79.234,51.211,78.949,50.855,78.949z"/>
		<path fill="#F3E552" d="M57.684,79.828c0.179,0,0.324,0.144,0.324,0.324c0,0.18-0.145,0.328-0.324,0.328
			c-0.184,0-0.329-0.148-0.329-0.328C57.355,79.972,57.5,79.828,57.684,79.828z M57.684,79.511c-0.356,0-0.645,0.289-0.645,0.642
			c0,0.355,0.289,0.641,0.645,0.641c0.355,0,0.64-0.285,0.64-0.641C58.324,79.8,58.039,79.511,57.684,79.511z"/>
		<path fill="#F3E552" d="M62.387,81.472c0.183,0,0.328,0.146,0.328,0.328c0,0.181-0.145,0.325-0.328,0.325
			c-0.18,0-0.328-0.145-0.328-0.325C62.059,81.617,62.207,81.472,62.387,81.472z M62.387,81.16c-0.356,0-0.641,0.285-0.641,0.64
			c0,0.353,0.285,0.638,0.641,0.638c0.355,0,0.644-0.285,0.644-0.638C63.031,81.445,62.742,81.16,62.387,81.16z"/>
		<path fill="#F3E552" d="M56.543,81.472c0.184,0,0.328,0.146,0.328,0.328c0,0.181-0.144,0.325-0.328,0.325
			c-0.18,0-0.328-0.145-0.328-0.325C56.215,81.617,56.363,81.472,56.543,81.472z M56.543,81.16c-0.355,0-0.641,0.285-0.641,0.64
			c0,0.353,0.286,0.638,0.641,0.638s0.645-0.285,0.645-0.638C57.188,81.445,56.898,81.16,56.543,81.16z"/>
		<path fill="#F3E552" d="M56.75,83.941c0.184,0,0.328,0.148,0.328,0.328s-0.144,0.323-0.328,0.323c-0.18,0-0.328-0.144-0.328-0.323
			S56.57,83.941,56.75,83.941z M56.75,83.629c-0.355,0-0.641,0.285-0.641,0.641c0,0.352,0.286,0.637,0.641,0.637
			s0.645-0.285,0.645-0.637C57.395,83.914,57.105,83.629,56.75,83.629z"/>
		<path fill="#F3E552" d="M60.941,85.59c0.18,0,0.329,0.145,0.329,0.324c0,0.179-0.149,0.328-0.329,0.328
			c-0.183,0-0.328-0.149-0.328-0.328C60.613,85.734,60.758,85.59,60.941,85.59z M60.941,85.273c-0.355,0-0.644,0.289-0.644,0.641
			c0,0.355,0.289,0.64,0.644,0.64c0.356,0,0.641-0.284,0.641-0.64C61.582,85.563,61.297,85.273,60.941,85.273z"/>
		<path fill="#F3E552" d="M64.094,84.559c0.183,0,0.328,0.148,0.328,0.327c0,0.181-0.145,0.325-0.328,0.325
			c-0.18,0-0.328-0.145-0.328-0.325C63.766,84.707,63.914,84.559,64.094,84.559z M64.094,84.246c-0.356,0-0.641,0.285-0.641,0.64
			c0,0.353,0.285,0.638,0.641,0.638c0.355,0,0.644-0.285,0.644-0.638C64.738,84.531,64.449,84.246,64.094,84.246z"/>
		<path fill="#F3E552" d="M68.543,82.14c0.18,0,0.328,0.149,0.328,0.328c0,0.181-0.148,0.325-0.328,0.325
			c-0.184,0-0.328-0.145-0.328-0.325C68.215,82.289,68.359,82.14,68.543,82.14z M68.543,81.828c-0.355,0-0.645,0.285-0.645,0.64
			c0,0.353,0.29,0.638,0.645,0.638s0.641-0.285,0.641-0.638C69.184,82.113,68.898,81.828,68.543,81.828z"/>
		<path fill="#F3E552" d="M65.336,79.929c0.18,0,0.328,0.146,0.328,0.325c0,0.184-0.148,0.328-0.328,0.328s-0.328-0.145-0.328-0.328
			C65.008,80.074,65.156,79.929,65.336,79.929z M65.336,79.617c-0.356,0-0.645,0.285-0.645,0.637c0,0.355,0.289,0.641,0.645,0.641
			c0.355,0,0.641-0.285,0.641-0.641C65.977,79.902,65.691,79.617,65.336,79.617z"/>
		<path fill="#F3E552" d="M67.922,88.211c0.18,0,0.328,0.148,0.328,0.328c0,0.179-0.148,0.324-0.328,0.324
			c-0.18,0-0.328-0.146-0.328-0.324C67.594,88.359,67.742,88.211,67.922,88.211z M67.922,87.898c-0.356,0-0.645,0.285-0.645,0.641
			c0,0.351,0.289,0.636,0.645,0.636c0.355,0,0.64-0.285,0.64-0.636C68.562,88.184,68.277,87.898,67.922,87.898z"/>
		<path fill="#F3E552" d="M62.387,89.602c0.183,0,0.328,0.145,0.328,0.323c0,0.181-0.145,0.329-0.328,0.329
			c-0.18,0-0.328-0.148-0.328-0.329C62.059,89.746,62.207,89.602,62.387,89.602z M62.387,89.289c-0.356,0-0.641,0.285-0.641,0.636
			c0,0.356,0.285,0.642,0.641,0.642c0.355,0,0.644-0.285,0.644-0.642C63.031,89.574,62.742,89.289,62.387,89.289z"/>
		<path fill="#F3E552" d="M51.164,83.992c0.184,0,0.328,0.147,0.328,0.328c0,0.18-0.144,0.324-0.328,0.324
			c-0.18,0-0.324-0.145-0.324-0.324C50.84,84.14,50.984,83.992,51.164,83.992z M51.164,83.679c-0.355,0-0.641,0.286-0.641,0.642
			c0,0.352,0.286,0.637,0.641,0.637c0.356,0,0.645-0.285,0.645-0.637C51.809,83.965,51.52,83.679,51.164,83.679z"/>
	</g>
	<polygon points="7.91,89.918 11.953,86.559 14.23,86.559 14.23,102.73 11.723,102.73 11.723,89.746 9.391,91.742 	"/>
	<path d="M22.195,88.55c2.196,0.04,2.817,4.204,2.793,6.153c-0.023,1.945-0.242,6.699-2.672,6.715
		c-2.429,0.016-3.144-4.559-3.078-6.95C19.301,92.078,20.004,88.515,22.195,88.55z M22.086,86.218
		c-3.777,0.067-5.391,4.707-5.461,7.915c-0.082,3.539,1.527,8.921,5.637,8.996c4.23,0.078,5.41-5.047,5.402-8.371
		C27.656,91.359,26.281,86.148,22.086,86.218z"/>
	<g>
		<defs>
			<rect id="SVGID_1_" x="173.051" y="3.586" width="15.672" height="101.293"/>
		</defs>
		<clipPath id="SVGID_2_">
			<use xlink:href="#SVGID_1_"  overflow="visible"/>
		</clipPath>
		<g clip-path="url(#SVGID_2_)">
			<defs>
				<rect id="SVGID_3_" x="173" y="1" width="14" height="108"/>
			</defs>
			<clipPath id="SVGID_4_">
				<use xlink:href="#SVGID_3_"  overflow="visible"/>
			</clipPath>
			<path clip-path="url(#SVGID_4_)" fill="#E6E6E6" d="M181.172,97.805c1.84-0.043,3.246,1.41,3.246,1.41l-0.363,0.996
				c0,0-0.887-1.523-2.866-1.492c-2.513,0.043-3.095,2.648-3.095,2.648l5.57,0.016l-0.353,0.855h-5.37c0,0-0.003,0.188,0,0.323
				c0,0.165-0.016,0.325-0.016,0.325h5.148l-0.293,0.902h-4.66c0,0,0.805,2.52,3.078,2.547c2.133,0.027,2.969-1.617,2.969-1.617
				l-0.031,1.433c0,0-1.41,1.203-3.047,1.099c-3.047-0.191-3.879-3.461-3.879-3.461l-1.399-0.017l0.38-0.929h0.895
				c0,0-0.02-0.098-0.016-0.254c0.008-0.141,0-0.336,0-0.336l-1.27-0.016l0.402-0.871l1.023,0.016
				C177.207,101.258,178.074,97.875,181.172,97.805z M175.238,92.625c0.109,0,0.129,0.199,0.125,0.297
				c0,0.094-0.004,0.32-0.125,0.324c-0.117,0-0.156-0.224-0.152-0.34C175.09,92.789,175.133,92.625,175.238,92.625z M186.168,92.555
				c0.105,0,0.125,0.199,0.125,0.297c0,0.094-0.008,0.32-0.125,0.324c-0.117,0-0.156-0.223-0.156-0.34
				C186.016,92.719,186.059,92.555,186.168,92.555z M174.734,92.526l-0.195,0.153l0.07,0.102l0.113-0.102v0.636h0.125v-0.789
				H174.734z M175.227,92.512c-0.184,0.004-0.262,0.222-0.266,0.379c-0.004,0.175,0.078,0.434,0.277,0.438
				c0.207,0.004,0.266-0.246,0.266-0.406C175.504,92.754,175.43,92.508,175.227,92.512z M185.664,92.457l-0.195,0.151l0.07,0.103
				l0.109-0.103v0.638h0.125v-0.789H185.664z M186.152,92.44c-0.184,0.005-0.262,0.224-0.266,0.38
				c-0.004,0.176,0.082,0.434,0.281,0.438c0.203,0.004,0.266-0.246,0.266-0.406C186.434,92.684,186.355,92.438,186.152,92.44z
				 M181.117,90.02c1.055-0.023,1.859,0.805,1.859,0.805l-0.211,0.577c0,0-0.512-0.879-1.648-0.858
				c-1.438,0.022-1.766,1.531-1.766,1.531h3.191l-0.195,0.508h-3.094c0,0,0,0.105,0,0.184c0.004,0.093,0,0.184,0,0.184h2.953
				l-0.168,0.534h-2.672c0,0,0.461,1.446,1.762,1.466c1.223,0.016,1.695-0.93,1.695-0.93l-0.016,0.828c0,0-0.797,0.695-1.734,0.636
				c-1.746-0.112-2.227-2-2.227-2l-0.797-0.015l0.211-0.535h0.504c0,0-0.004-0.066,0-0.152c0.004-0.082,0-0.184,0-0.184
				l-0.727-0.016l0.223-0.508h0.586C178.84,92.004,179.34,90.062,181.117,90.02z M181.215,82.022
				c-0.691-0.011-0.918,1.204-0.938,2.017c-0.02,0.809,0.211,2.355,0.977,2.352c0.77-0.008,0.836-1.621,0.84-2.282
				C182.102,83.449,181.906,82.039,181.215,82.022z M177.98,81.348h0.73v5.492h-0.801v-4.406l-0.727,0.675l-0.477-0.62
				L177.98,81.348z M181.188,81.238c1.319-0.027,1.745,1.745,1.745,2.898c0.005,1.129-0.359,2.871-1.691,2.843
				c-1.297-0.026-1.801-1.854-1.777-3.054C179.488,82.836,179.996,81.258,181.188,81.238z M186.07,74.281
				c0.105,0.004,0.141,0.202,0.141,0.297c-0.004,0.094-0.008,0.323-0.129,0.323c-0.117,0-0.156-0.222-0.152-0.34
				C185.934,74.445,185.961,74.281,186.07,74.281z M175.098,74.281c0.109,0.004,0.129,0.202,0.129,0.297
				c-0.004,0.094-0.008,0.323-0.129,0.323c-0.117,0-0.156-0.222-0.152-0.34C174.949,74.445,174.992,74.281,175.098,74.281z
				 M185.578,74.184l-0.195,0.156l0.07,0.098l0.113-0.098v0.633h0.125v-0.789H185.578z M174.594,74.184l-0.195,0.156l0.07,0.098
				l0.113-0.098v0.633h0.125v-0.789H174.594z M186.07,74.172c-0.184,0-0.262,0.223-0.266,0.379
				c-0.004,0.172,0.078,0.433,0.277,0.438c0.207,0.004,0.254-0.246,0.254-0.41C186.336,74.41,186.273,74.168,186.07,74.172z
				 M175.086,74.172c-0.184,0-0.262,0.223-0.266,0.379c-0.004,0.172,0.078,0.433,0.277,0.438c0.207,0.004,0.27-0.246,0.266-0.41
				C175.363,74.41,175.289,74.168,175.086,74.172z M180.781,71.762c1.055-0.023,1.848,0.804,1.848,0.804l-0.211,0.575
				c0,0-0.5-0.875-1.637-0.855c-1.438,0.023-1.777,1.53-1.777,1.53h3.188l-0.18,0.509h-3.094c0,0,0,0.105,0,0.184
				c0.004,0.094,0,0.183,0,0.183h2.953l-0.18,0.536h-2.676c0,0,0.477,1.445,1.777,1.464c1.223,0.017,1.695-0.929,1.695-0.929
				l-0.016,0.828c0,0-0.809,0.695-1.75,0.637c-1.746-0.113-2.223-2-2.223-2l-0.797-0.016l0.223-0.535h0.504c0,0-0.004-0.067,0-0.153
				c0.004-0.082,0-0.183,0-0.183l-0.727-0.016l0.223-0.509h0.586C178.504,73.746,179.004,71.805,180.781,71.762z M180.949,61.516
				c1.84-0.043,3.23,1.406,3.23,1.406l-0.363,1c0,0-0.871-1.524-2.855-1.492c-2.508,0.043-3.09,2.648-3.09,2.648l5.567,0.012
				l-0.349,0.875h-5.375c0,0,0,0.172,0,0.308c0.004,0.165-0.012,0.325-0.012,0.325h5.148l-0.293,0.898h-4.676
				c0,0,0.82,2.52,3.094,2.551c2.133,0.027,2.953-1.621,2.953-1.621l-0.016,1.438c0,0-1.41,1.198-3.051,1.098
				c-3.047-0.191-3.875-3.465-3.875-3.465l-1.398-0.013l0.379-0.929h0.895c0,0-0.023-0.102-0.016-0.254c0.008-0.141,0-0.336,0-0.336
				h-1.273l0.406-0.887l1.023,0.012C176.984,64.965,177.848,61.586,180.949,61.516z M175.113,56.137
				c0.105,0.004,0.129,0.199,0.125,0.297c0,0.093-0.008,0.324-0.125,0.324s-0.156-0.223-0.152-0.34
				C174.961,56.301,175.008,56.137,175.113,56.137z M186.082,56.039c0.109,0,0.141,0.199,0.141,0.297
				c0,0.094-0.008,0.32-0.125,0.324c-0.117,0-0.156-0.223-0.156-0.34C185.945,56.203,185.977,56.035,186.082,56.039z
				 M174.609,56.039l-0.195,0.156l0.07,0.098l0.109-0.098v0.633h0.129v-0.789H174.609z M175.098,56.022
				c-0.184,0.004-0.262,0.224-0.266,0.384c-0.004,0.172,0.082,0.43,0.281,0.434c0.207,0.004,0.266-0.246,0.266-0.406
				C175.379,56.266,175.305,56.02,175.098,56.022z M185.594,55.94l-0.195,0.153l0.07,0.102l0.109-0.102v0.636h0.129V55.94H185.594z
				 M186.082,55.914c-0.184,0-0.262,0.233-0.266,0.391c-0.005,0.175,0.082,0.434,0.281,0.438c0.207,0.004,0.25-0.246,0.25-0.406
				C186.348,56.168,186.289,55.91,186.082,55.914z M180.891,53.676c1.055-0.028,1.848,0.801,1.848,0.801l-0.211,0.578
				c0,0-0.5-0.879-1.637-0.86c-1.438,0.024-1.762,1.535-1.762,1.535h3.191l-0.195,0.504h-3.094c0,0,0,0.106,0,0.185
				c0,0.094,0,0.184,0,0.184h2.953l-0.184,0.535h-2.656c0,0,0.457,1.445,1.762,1.465c1.223,0.016,1.691-0.93,1.691-0.93
				l-0.012,0.832c0,0-0.797,0.691-1.734,0.633c-1.746-0.114-2.238-2-2.238-2l-0.802-0.016l0.228-0.531h0.504
				c0,0-0.004-0.067,0-0.156c0.004-0.082,0-0.184,0-0.184l-0.731-0.017l0.228-0.504h0.586
				C178.613,55.656,179.117,53.715,180.891,53.676z M181.27,45.707c-0.691-0.012-0.902,1.199-0.922,2.012
				c-0.023,0.812,0.199,2.355,0.964,2.351c0.767-0.004,0.833-1.621,0.841-2.281C182.16,47.129,181.961,45.719,181.27,45.707z
				 M178.039,45.031h0.727v5.489h-0.797v-4.407l-0.73,0.676l-0.473-0.617L178.039,45.031z M181.242,44.918
				c1.324-0.023,1.746,1.746,1.75,2.898c0,1.129-0.359,2.872-1.695,2.844c-1.293-0.023-1.801-1.851-1.777-3.055
				C179.543,46.52,180.051,44.941,181.242,44.918z M186.168,37.949c0.105,0.004,0.125,0.199,0.125,0.297
				c0,0.094-0.008,0.324-0.125,0.324s-0.156-0.222-0.156-0.34C186.016,38.113,186.059,37.949,186.168,37.949z M175.086,37.949
				c0.105,0.004,0.125,0.199,0.125,0.297c0,0.094-0.008,0.324-0.125,0.324s-0.156-0.222-0.156-0.34
				C174.934,38.113,174.98,37.949,175.086,37.949z M185.664,37.852l-0.195,0.156l0.07,0.097l0.109-0.097v0.633h0.125v-0.789H185.664
				z M174.582,37.852l-0.195,0.156l0.07,0.097l0.109-0.097v0.633h0.129v-0.789H174.582z M186.152,37.836
				c-0.184,0.004-0.262,0.223-0.266,0.383c-0.004,0.172,0.082,0.429,0.281,0.433c0.203,0.004,0.266-0.246,0.266-0.406
				C186.434,38.078,186.355,37.832,186.152,37.836z M175.07,37.836c-0.184,0.004-0.262,0.223-0.266,0.383
				c-0.004,0.172,0.082,0.429,0.281,0.433c0.207,0.004,0.266-0.246,0.266-0.406C175.352,38.078,175.277,37.832,175.07,37.836z
				 M181.059,35.414c1.055-0.023,1.863,0.805,1.863,0.805l-0.211,0.578c0,0-0.516-0.879-1.652-0.859
				c-1.438,0.023-1.762,1.535-1.762,1.535h3.191l-0.195,0.504h-3.094c0,0,0,0.105,0,0.183c0,0.094,0,0.184,0,0.184h2.953
				l-0.168,0.535h-2.673c0,0,0.458,1.445,1.763,1.465c1.223,0.015,1.691-0.93,1.691-0.93l-0.012,0.832c0,0-0.797,0.692-1.734,0.633
				c-1.746-0.113-2.227-2-2.227-2l-0.813-0.016l0.227-0.535h0.504c0,0-0.004-0.062,0-0.152c0.004-0.082,0-0.184,0-0.184l-0.73-0.015
				l0.227-0.504h0.586c-0.012-0.075,0.492-2.016,2.266-2.055V35.414z M180.922,24.828c1.84-0.039,3.23,1.395,3.23,1.395
				l-0.363,1.015c0,0-0.871-1.527-2.855-1.492c-2.508,0.039-3.094,2.645-3.094,2.645l5.57,0.015l-0.349,0.86h-5.373
				c0,0,0,0.187,0,0.324c0.003,0.16-0.013,0.32-0.013,0.32h5.148l-0.297,0.902h-4.672c0,0,0.805,2.504,3.078,2.536
				c2.133,0.027,2.965-1.606,2.965-1.606l-0.012,1.438c0,0-1.414,1.199-3.051,1.097c-3.047-0.191-3.875-3.465-3.875-3.465
				l-1.399-0.015l0.377-0.926h0.897c0,0-0.024-0.117-0.016-0.269c0.008-0.141,0-0.325,0-0.325l-1.273-0.011l0.406-0.875l1.02,0.015
				c-0.016-0.125,0.848-3.504,3.949-3.574V24.828z M175.031,19.75c0.105,0,0.125,0.199,0.125,0.293
				c-0.004,0.098-0.008,0.324-0.125,0.324c-0.121,0-0.16-0.219-0.156-0.336C174.879,19.914,174.922,19.746,175.031,19.75z
				 M186.07,19.707c0.105,0,0.141,0.199,0.141,0.293c-0.004,0.098-0.008,0.324-0.129,0.324c-0.117,0.004-0.156-0.219-0.152-0.336
				S185.961,19.703,186.07,19.707z M174.527,19.648l-0.199,0.157l0.07,0.097l0.113-0.097v0.633h0.125v-0.79H174.527z
				 M175.016,19.637c-0.184,0.004-0.262,0.222-0.266,0.379c-0.004,0.172,0.078,0.433,0.281,0.437
				c0.203,0.004,0.266-0.246,0.266-0.41C175.293,19.879,175.219,19.633,175.016,19.637z M185.578,19.609l-0.207,0.153l0.082,0.097
				l0.113-0.097v0.633h0.109v-0.786H185.578z M186.07,19.594c-0.184,0.004-0.262,0.222-0.266,0.379
				c-0.004,0.175,0.066,0.433,0.266,0.437c0.203,0.004,0.266-0.246,0.266-0.41S186.273,19.59,186.07,19.594z M180.949,17.27
				c1.055-0.024,1.848,0.804,1.848,0.804l-0.211,0.574c0,0-0.5-0.875-1.637-0.855c-1.438,0.023-1.766,1.531-1.766,1.531h3.191
				l-0.195,0.508h-3.094c0,0,0,0.106,0,0.184c0.004,0.093,0,0.183,0,0.183h2.953l-0.168,0.535h-2.672c0,0,0.461,1.446,1.762,1.465
				c1.223,0.016,1.695-0.929,1.695-0.929l-0.016,0.828c0,0-0.797,0.695-1.734,0.636c-1.746-0.113-2.227-2-2.227-2l-0.809-0.015
				l0.223-0.535h0.504c0,0-0.004-0.067,0-0.153c0.004-0.082,0-0.183,0-0.183l-0.727-0.016l0.223-0.508h0.586
				C178.672,19.254,179.172,17.312,180.949,17.27z M181.215,9.273c-0.691-0.011-0.918,1.204-0.938,2.016
				c-0.02,0.809,0.211,2.356,0.977,2.352c0.77-0.008,0.836-1.621,0.84-2.282C182.102,10.699,181.906,9.289,181.215,9.273z
				 M177.98,8.598h0.73v5.492h-0.801V9.684l-0.727,0.675l-0.477-0.621L177.98,8.598z M181.188,8.488
				c1.319-0.027,1.745,1.742,1.745,2.899c0.005,1.129-0.359,2.871-1.691,2.843c-1.297-0.027-1.801-1.855-1.777-3.054
				C179.488,10.086,179.996,8.508,181.188,8.488z M175.812,1.672c0,0-1.804,2.055-1.804,8.812c0,6.762,1.859,9.516,1.859,9.516
				s-1.859,2.125-1.859,8.883c0,6.762,1.945,9.347,1.945,9.347s-1.777,1.969-1.777,8.731c0,6.758,1.859,9.516,1.859,9.516
				s-1.859,2.121-1.859,8.882c0,6.759,1.891,9.403,1.891,9.403s-1.836,1.996-1.836,8.754c0,6.761,1.863,9.52,1.863,9.52
				s-1.863,2.121-1.863,8.879c0,6.762,1.918,9.449,1.918,9.449c8.199,0,8.227,0.082,8.227,0.082s1.945-2.587,1.945-9.348
				c0-6.758-1.859-8.895-1.859-8.895s1.859-2.758,1.859-9.516c0-6.762-1.832-8.758-1.832-8.758s1.887-2.645,1.887-9.403
				c0-6.757-1.859-8.882-1.859-8.882s1.859-2.758,1.859-9.516c0-6.758-1.773-8.715-1.773-8.715s1.957-2.602,1.957-9.359
				c0-6.762-1.875-8.883-1.875-8.883s1.875-2.758,1.875-9.516c0-6.761-1.82-8.812-1.82-8.812L175.812,1.672z"/>
			<path opacity="0.6678" clip-path="url(#SVGID_4_)" fill="none" stroke="#666666" stroke-width="0.6038" d="M181.172,97.805
				c1.84-0.043,3.246,1.41,3.246,1.41l-0.363,0.996c0,0-0.887-1.523-2.867-1.492c-2.512,0.043-3.094,2.648-3.094,2.648l5.57,0.016
				l-0.352,0.855h-5.371c0,0-0.004,0.188,0,0.323c0,0.165-0.016,0.325-0.016,0.325h5.148l-0.293,0.902h-4.66
				c0,0,0.805,2.52,3.078,2.547c2.133,0.027,2.969-1.617,2.969-1.617l-0.031,1.433c0,0-1.41,1.203-3.047,1.099
				c-3.047-0.191-3.879-3.461-3.879-3.461l-1.398-0.017l0.379-0.929h0.895c0,0-0.02-0.098-0.016-0.254c0.008-0.141,0-0.336,0-0.336
				l-1.27-0.016l0.402-0.871l1.023,0.016C177.207,101.258,178.074,97.875,181.172,97.805z M175.238,92.625
				c0.109,0,0.13,0.199,0.125,0.297c0,0.094-0.004,0.32-0.125,0.324c-0.117,0-0.156-0.224-0.152-0.34
				C175.09,92.789,175.133,92.625,175.238,92.625z M186.168,92.555c0.105,0,0.125,0.199,0.125,0.297c0,0.094-0.008,0.32-0.125,0.324
				c-0.117,0-0.156-0.223-0.156-0.34C186.016,92.719,186.059,92.555,186.168,92.555z M174.734,92.526l-0.195,0.153l0.07,0.102
				l0.113-0.102v0.636h0.125v-0.789H174.734z M175.227,92.512c-0.184,0.004-0.262,0.222-0.266,0.379
				c-0.004,0.175,0.078,0.434,0.277,0.438c0.207,0.004,0.266-0.246,0.266-0.406C175.504,92.754,175.43,92.508,175.227,92.512z
				 M185.664,92.457l-0.195,0.151l0.07,0.103l0.109-0.103v0.638h0.125v-0.789H185.664z M186.152,92.44
				c-0.184,0.005-0.262,0.224-0.266,0.38c-0.004,0.176,0.082,0.434,0.281,0.438c0.203,0.004,0.266-0.246,0.266-0.406
				C186.434,92.684,186.355,92.438,186.152,92.44z M181.117,90.02c1.055-0.023,1.859,0.805,1.859,0.805l-0.211,0.577
				c0,0-0.512-0.879-1.648-0.858c-1.438,0.022-1.766,1.531-1.766,1.531h3.191l-0.195,0.508h-3.094c0,0,0,0.105,0,0.184
				c0.004,0.093,0,0.184,0,0.184h2.953l-0.168,0.534h-2.672c0,0,0.461,1.446,1.762,1.466c1.223,0.016,1.695-0.93,1.695-0.93
				l-0.016,0.828c0,0-0.797,0.695-1.734,0.636c-1.745-0.112-2.227-2-2.227-2l-0.797-0.015l0.211-0.535h0.504
				c0,0-0.004-0.066,0-0.152c0.005-0.082,0-0.184,0-0.184l-0.727-0.016l0.223-0.508h0.586
				C178.84,92.004,179.34,90.062,181.117,90.02z M181.215,82.022c-0.691-0.011-0.918,1.204-0.937,2.017
				c-0.021,0.809,0.21,2.355,0.976,2.352c0.77-0.008,0.836-1.621,0.84-2.282C182.102,83.449,181.906,82.039,181.215,82.022z
				 M177.98,81.348h0.73v5.492h-0.801v-4.406l-0.727,0.675l-0.477-0.62L177.98,81.348z M181.188,81.238
				c1.321-0.027,1.746,1.745,1.746,2.898c0.004,1.129-0.359,2.871-1.691,2.843c-1.297-0.026-1.801-1.854-1.777-3.054
				C179.488,82.836,179.996,81.258,181.188,81.238z M186.07,74.281c0.105,0.004,0.141,0.202,0.141,0.297
				c-0.004,0.094-0.008,0.323-0.129,0.323c-0.117,0-0.156-0.222-0.152-0.34C185.934,74.445,185.961,74.281,186.07,74.281z
				 M175.098,74.281c0.109,0.004,0.129,0.202,0.129,0.297c-0.004,0.094-0.008,0.323-0.129,0.323c-0.117,0-0.156-0.222-0.152-0.34
				C174.949,74.445,174.992,74.281,175.098,74.281z M185.578,74.184l-0.195,0.156l0.07,0.098l0.113-0.098v0.633h0.125v-0.789
				H185.578z M174.594,74.184l-0.195,0.156l0.07,0.098l0.113-0.098v0.633h0.125v-0.789H174.594z M186.07,74.172
				c-0.184,0-0.262,0.223-0.266,0.379c-0.004,0.172,0.078,0.433,0.277,0.438c0.207,0.004,0.254-0.246,0.254-0.41
				C186.336,74.41,186.273,74.168,186.07,74.172z M175.086,74.172c-0.184,0-0.262,0.223-0.266,0.379
				c-0.004,0.172,0.078,0.433,0.277,0.438c0.207,0.004,0.271-0.246,0.266-0.41C175.363,74.41,175.289,74.168,175.086,74.172z
				 M180.781,71.762c1.055-0.023,1.848,0.804,1.848,0.804l-0.211,0.575c0,0-0.5-0.875-1.637-0.855
				c-1.438,0.023-1.777,1.53-1.777,1.53h3.188l-0.18,0.509h-3.094c0,0,0,0.105,0,0.184c0.004,0.094,0,0.183,0,0.183h2.953
				l-0.18,0.536h-2.676c0,0,0.477,1.445,1.777,1.464c1.223,0.017,1.695-0.929,1.695-0.929l-0.016,0.828c0,0-0.809,0.695-1.749,0.637
				c-1.747-0.113-2.224-2-2.224-2l-0.797-0.016l0.223-0.535h0.504c0,0-0.004-0.067,0-0.153c0.004-0.082,0-0.183,0-0.183
				l-0.727-0.016l0.223-0.509h0.586C178.504,73.746,179.004,71.805,180.781,71.762z M180.949,61.516
				c1.84-0.043,3.23,1.406,3.23,1.406l-0.363,1c0,0-0.871-1.524-2.855-1.492c-2.508,0.043-3.09,2.648-3.09,2.648l5.566,0.012
				l-0.348,0.875h-5.375c0,0,0,0.172,0,0.308c0.004,0.165-0.012,0.325-0.012,0.325h5.148l-0.293,0.898h-4.676
				c0,0,0.82,2.52,3.094,2.551c2.133,0.027,2.953-1.621,2.953-1.621l-0.016,1.438c0,0-1.41,1.198-3.051,1.098
				c-3.047-0.191-3.875-3.465-3.875-3.465l-1.397-0.013l0.378-0.929h0.895c0,0-0.023-0.102-0.016-0.254c0.008-0.141,0-0.336,0-0.336
				h-1.273l0.407-0.887l1.022,0.012C176.984,64.965,177.848,61.586,180.949,61.516z M175.113,56.137
				c0.105,0.004,0.129,0.199,0.125,0.297c0,0.093-0.008,0.324-0.125,0.324s-0.156-0.223-0.152-0.34
				C174.961,56.301,175.008,56.137,175.113,56.137z M186.082,56.039c0.109,0,0.141,0.199,0.141,0.297
				c0,0.094-0.008,0.32-0.125,0.324c-0.117,0-0.156-0.223-0.156-0.34C185.945,56.203,185.977,56.035,186.082,56.039z
				 M174.609,56.039l-0.195,0.156l0.07,0.098l0.109-0.098v0.633h0.129v-0.789H174.609z M175.098,56.022
				c-0.184,0.004-0.262,0.224-0.266,0.384c-0.004,0.172,0.082,0.43,0.281,0.434c0.207,0.004,0.266-0.246,0.266-0.406
				C175.379,56.266,175.305,56.02,175.098,56.022z M185.594,55.94l-0.195,0.153l0.07,0.102l0.109-0.102v0.636h0.129V55.94H185.594z
				 M186.082,55.914c-0.184,0-0.262,0.233-0.266,0.391c-0.004,0.175,0.082,0.434,0.281,0.438c0.207,0.004,0.25-0.246,0.25-0.406
				C186.348,56.168,186.289,55.91,186.082,55.914z M180.892,53.676c1.054-0.028,1.847,0.801,1.847,0.801l-0.211,0.578
				c0,0-0.5-0.879-1.636-0.86c-1.438,0.024-1.763,1.535-1.763,1.535h3.191l-0.195,0.504h-3.094c0,0,0,0.106,0,0.185
				c0,0.094,0,0.184,0,0.184h2.953l-0.184,0.535h-2.656c0,0,0.457,1.445,1.762,1.465c1.223,0.016,1.691-0.93,1.691-0.93
				l-0.012,0.832c0,0-0.797,0.691-1.734,0.633c-1.745-0.114-2.238-2-2.238-2l-0.801-0.016l0.227-0.531h0.504
				c0,0-0.004-0.067,0-0.156c0.005-0.082,0-0.184,0-0.184l-0.73-0.017l0.227-0.504h0.586
				C178.613,55.656,179.117,53.715,180.892,53.676z M181.27,45.707c-0.691-0.012-0.902,1.199-0.922,2.012
				c-0.023,0.812,0.199,2.355,0.965,2.351s0.832-1.621,0.84-2.281C182.16,47.129,181.961,45.719,181.27,45.707z M178.039,45.031
				h0.727v5.489h-0.797v-4.407l-0.73,0.676l-0.473-0.617L178.039,45.031z M181.242,44.918c1.324-0.023,1.746,1.746,1.75,2.898
				c0,1.129-0.359,2.872-1.695,2.844c-1.293-0.023-1.8-1.851-1.777-3.055C179.543,46.52,180.051,44.941,181.242,44.918z
				 M186.168,37.949c0.105,0.004,0.125,0.199,0.125,0.297c0,0.094-0.008,0.324-0.125,0.324s-0.156-0.222-0.156-0.34
				C186.016,38.113,186.059,37.949,186.168,37.949z M175.086,37.949c0.105,0.004,0.125,0.199,0.125,0.297
				c0,0.094-0.008,0.324-0.125,0.324s-0.156-0.222-0.156-0.34C174.934,38.113,174.98,37.949,175.086,37.949z M185.664,37.852
				l-0.195,0.156l0.07,0.097l0.109-0.097v0.633h0.125v-0.789H185.664z M174.582,37.852l-0.195,0.156l0.07,0.097l0.109-0.097v0.633
				h0.129v-0.789H174.582z M186.152,37.836c-0.184,0.004-0.262,0.223-0.266,0.383c-0.004,0.172,0.082,0.429,0.281,0.433
				c0.203,0.004,0.266-0.246,0.266-0.406C186.434,38.078,186.355,37.832,186.152,37.836z M175.07,37.836
				c-0.184,0.004-0.261,0.223-0.266,0.383c-0.004,0.172,0.082,0.429,0.281,0.433c0.207,0.004,0.266-0.246,0.266-0.406
				C175.352,38.078,175.277,37.832,175.07,37.836z M181.059,35.414c1.055-0.023,1.863,0.805,1.863,0.805l-0.211,0.578
				c0,0-0.516-0.879-1.652-0.859c-1.438,0.023-1.762,1.535-1.762,1.535h3.191l-0.195,0.504h-3.094c0,0,0,0.105,0,0.183
				c0,0.094,0,0.184,0,0.184h2.953l-0.168,0.535h-2.672c0,0,0.457,1.445,1.762,1.465c1.223,0.015,1.691-0.93,1.691-0.93
				l-0.012,0.832c0,0-0.797,0.692-1.734,0.633c-1.746-0.113-2.227-2-2.227-2l-0.813-0.016l0.227-0.535h0.504
				c0,0-0.004-0.062,0-0.152c0.005-0.082,0-0.184,0-0.184l-0.73-0.015l0.227-0.504h0.586c-0.012-0.075,0.492-2.016,2.266-2.055
				V35.414z M180.922,24.828c1.84-0.039,3.23,1.395,3.23,1.395l-0.363,1.015c0,0-0.871-1.527-2.855-1.492
				c-2.508,0.039-3.094,2.645-3.094,2.645l5.57,0.015l-0.348,0.86h-5.375c0,0,0,0.187,0,0.324c0.004,0.16-0.012,0.32-0.012,0.32
				h5.148l-0.297,0.902h-4.672c0,0,0.805,2.504,3.078,2.536c2.134,0.027,2.965-1.606,2.965-1.606l-0.012,1.438
				c0,0-1.414,1.199-3.051,1.097c-3.047-0.191-3.875-3.465-3.875-3.465l-1.398-0.015l0.375-0.926h0.898c0,0-0.023-0.117-0.016-0.269
				c0.008-0.141,0-0.325,0-0.325l-1.273-0.011l0.406-0.875l1.02,0.015c-0.016-0.125,0.848-3.504,3.949-3.574V24.828z M175.031,19.75
				c0.105,0,0.125,0.199,0.125,0.293c-0.004,0.098-0.008,0.324-0.125,0.324c-0.121,0-0.16-0.219-0.156-0.336
				C174.879,19.914,174.922,19.746,175.031,19.75z M186.07,19.707c0.105,0,0.141,0.199,0.141,0.293
				c-0.004,0.098-0.008,0.324-0.129,0.324c-0.117,0.004-0.156-0.219-0.152-0.336S185.961,19.703,186.07,19.707z M174.527,19.648
				l-0.199,0.157l0.07,0.097l0.113-0.097v0.633h0.125v-0.79H174.527z M175.016,19.637c-0.184,0.004-0.261,0.222-0.266,0.379
				c-0.004,0.172,0.078,0.433,0.281,0.437c0.203,0.004,0.266-0.246,0.266-0.41C175.293,19.879,175.219,19.633,175.016,19.637z
				 M185.578,19.609l-0.207,0.153l0.082,0.097l0.113-0.097v0.633h0.109v-0.786H185.578z M186.07,19.594
				c-0.184,0.004-0.262,0.222-0.266,0.379c-0.004,0.175,0.066,0.433,0.266,0.437c0.203,0.004,0.266-0.246,0.266-0.41
				S186.273,19.59,186.07,19.594z M180.949,17.27c1.055-0.024,1.848,0.804,1.848,0.804l-0.211,0.574c0,0-0.5-0.875-1.637-0.855
				c-1.438,0.023-1.766,1.531-1.766,1.531h3.191l-0.195,0.508h-3.094c0,0,0,0.106,0,0.184c0.004,0.093,0,0.183,0,0.183h2.953
				l-0.168,0.535h-2.672c0,0,0.461,1.446,1.762,1.465c1.223,0.016,1.695-0.929,1.695-0.929l-0.016,0.828
				c0,0-0.797,0.695-1.734,0.636c-1.746-0.113-2.227-2-2.227-2l-0.809-0.015l0.223-0.535h0.504c0,0-0.004-0.067,0-0.153
				c0.004-0.082,0-0.183,0-0.183l-0.727-0.016l0.223-0.508h0.586C178.672,19.254,179.172,17.312,180.949,17.27z M181.215,9.273
				c-0.691-0.011-0.918,1.204-0.937,2.016c-0.021,0.809,0.21,2.356,0.976,2.352c0.77-0.008,0.836-1.621,0.84-2.282
				C182.102,10.699,181.906,9.289,181.215,9.273z M177.98,8.598h0.73v5.492h-0.801V9.684l-0.727,0.675l-0.477-0.621L177.98,8.598z
				 M181.188,8.488c1.321-0.027,1.746,1.742,1.746,2.899c0.004,1.129-0.359,2.871-1.691,2.843c-1.297-0.027-1.801-1.855-1.777-3.054
				C179.488,10.086,179.996,8.508,181.188,8.488z M175.813,1.672c0,0-1.805,2.055-1.805,8.812c0,6.762,1.859,9.516,1.859,9.516
				s-1.859,2.125-1.859,8.883c0,6.762,1.945,9.347,1.945,9.347s-1.777,1.969-1.777,8.731c0,6.758,1.859,9.516,1.859,9.516
				s-1.859,2.121-1.859,8.882c0,6.759,1.891,9.403,1.891,9.403s-1.836,1.996-1.836,8.754c0,6.761,1.863,9.52,1.863,9.52
				s-1.863,2.121-1.863,8.879c0,6.762,1.919,9.449,1.919,9.449c8.198,0,8.226,0.082,8.226,0.082s1.945-2.587,1.945-9.348
				c0-6.758-1.858-8.895-1.858-8.895s1.858-2.758,1.858-9.516c0-6.762-1.832-8.758-1.832-8.758s1.887-2.645,1.887-9.403
				c0-6.757-1.859-8.882-1.859-8.882s1.859-2.758,1.859-9.516c0-6.758-1.773-8.715-1.773-8.715s1.957-2.602,1.957-9.359
				c0-6.762-1.874-8.883-1.874-8.883s1.874-2.758,1.874-9.516c0-6.761-1.82-8.812-1.82-8.812L175.813,1.672z"/>
		</g>
	</g>
</g>
</svg>
