<?xml version="1.0" encoding="utf-8"?>
<!-- Generator: Adobe Illustrator 16.0.3, SVG Export Plug-In . SVG Version: 6.00 Build 0)  -->
<!DOCTYPE svg PUBLIC "-//W3C//DTD SVG 1.1//EN" "http://www.w3.org/Graphics/SVG/1.1/DTD/svg11.dtd">
<svg version="1.1" id="Layer_1" xmlns="http://www.w3.org/2000/svg" xmlns:xlink="http://www.w3.org/1999/xlink" x="0px" y="0px"
	 width="59.527px" height="59.527px" viewBox="0 0 59.527 59.527" enable-background="new 0 0 59.527 59.527" xml:space="preserve">
<path fill="#D0C27B" d="M56.977,29.766c0,15.027-12.184,27.211-27.211,27.211c-15.032,0-27.215-12.184-27.215-27.211
	c0-15.032,12.183-27.215,27.215-27.215C44.793,2.551,56.977,14.734,56.977,29.766z"/>
<path fill="none" stroke="#918133" stroke-width="2.2677" stroke-linecap="round" d="M56.977,29.766
	c0,15.027-12.184,27.211-27.211,27.211c-15.032,0-27.215-12.184-27.215-27.211c0-15.032,12.183-27.215,27.215-27.215
	C44.793,2.551,56.977,14.734,56.977,29.766z"/>
<circle fill="#E6E6E6" cx="29.765" cy="29.766" r="23.535"/>
<circle fill="none" stroke="#CABA69" stroke-width="0.8504" stroke-linecap="round" cx="29.765" cy="29.766" r="23.535"/>
<path fill="#808080" d="M46.703,13.445c-0.297,0.11-0.48,0.305-0.711,0.528c-0.547,0.316-1.054,0.703-1.527,1.031
	c-0.395,0.371-0.715,0.816-1.016,1.266c-0.145,0.218-0.316,0.437-0.383,0.691c-0.031,0.129,0.063,0.281,0,0.398
	c-0.055,0.106-0.266,0.09-0.293,0.207c-0.02,0.082,0.117,0.145,0.117,0.219c0.25,0.301-0.137,0.313-0.176,0.399
	c-0.051,0.113,0.035,0.261,0.043,0.324c-0.074,0.097-0.258-0.059-0.367,0c-0.199,0.109-0.215,0.406-0.367,0.574
	c-0.188,0.207-0.445,0.34-0.664,0.516c-0.324,0.261-0.805,0.418-0.957,0.808c-0.035,0.098,0.102,0.223,0.047,0.309
	c-0.035,0.055-0.138,0.012-0.18,0.058c-0.09,0.106-0.059,0.274-0.07,0.415c-0.011,0.117-0.086,0.269,0,0.351
	c0.086,0.09,0.289-0.094,0.367,0c0.027,0.035-0.02,0.09-0.031,0.133c-0.02,0.078-0.031,0.156-0.074,0.223
	c-0.016,0.027-0.047,0.05-0.074,0.074c-0.035,0.031-0.105,0.039-0.117,0.086c-0.012,0.058,0.042,0.113,0.09,0.148
	c0.047,0.035,0.145-0.008,0.176,0.043c0.063,0.098-0.063,0.227-0.059,0.34c0.008,0.117-0.012,0.281,0.09,0.34
	c0.137,0.078,0.324-0.047,0.457-0.133c0.059-0.039,0.086-0.109,0.133-0.164c0.047-0.059,0.09-0.125,0.145-0.176
	c0.121-0.117,0.289-0.183,0.398-0.308c0.094-0.114,0.059-0.391,0.203-0.383c0.102,0.004,0.086,0.183,0.121,0.277
	c0.027,0.078,0.027,0.168,0.074,0.238c0.051,0.082,0.164,0.121,0.219,0.203c0.152,0.227,0.199,0.512,0.297,0.766
	c0.047,0.133,0.094,0.27,0.145,0.399c0.07,0.175,0.191,0.414,0.223,0.515c0.027,0.102,0.156,0.172,0.191,0.281
	c0.043,0.133,0.012,0.368,0.012,0.426c0,0.059,0.02,0.106,0.059,0.117c0.066,0.02,0.137-0.046,0.18-0.101
	c0.09-0.117,0.047-0.297,0.117-0.43c0.031-0.058,0.082-0.113,0.129-0.16c0.082-0.078,0.203-0.113,0.266-0.207
	c0.059-0.078,0.074-0.184,0.09-0.277c0.035-0.231,0.008-0.461,0-0.692c-0.074-0.527,0.406-0.765,0.734-1.152
	c0.023-0.067,0.051-0.164,0-0.219c-0.02-0.023-0.082,0.012-0.102-0.016c-0.016-0.019,0.012-0.058,0.016-0.085
	c0.039-0.079-0.012-0.165-0.016-0.223c-0.078-0.067-0.223,0.016-0.309-0.043s-0.125-0.168-0.164-0.266
	c-0.027-0.078-0.043-0.164-0.043-0.25c0.043-0.66,0.27-1.195,0.648-1.722c0.043-0.067,0.09-0.133,0.117-0.203
	c0.032-0.083,0.023-0.172,0.059-0.25c0.027-0.063,0.078-0.114,0.117-0.165c0.063-0.078,0.164-0.128,0.191-0.222
	c0.02-0.055,0.016-0.125-0.012-0.176c-0.113-0.035-0.073-0.191-0.105-0.262c0.012-0.066,0.055-0.125,0.09-0.179
	c0.262-0.282,0.359-0.664,0.488-0.973c0.414-0.09,0.434-0.035,0.691,0.297c0.09,0.14,0.199,0.277,0.234,0.441
	c0.023,0.117-0.004,0.239-0.031,0.352c-0.059,0.269-0.184,0.515-0.293,0.765c-0.082,0.184-0.152,0.368-0.266,0.532
	c-0.105,0.156-0.305,0.242-0.382,0.414c-0.11,0.242-0.134,0.531-0.087,0.793c0.063,0.386,0.191,0.82,0.5,1.058
	c0.164,0.129,0.355-0.07,0.555-0.129c0.195-0.054,0.336-0.175,0.504-0.289c0.207-0.14,0.434-0.144,0.676-0.199
	c0.125-0.027,0.258-0.016,0.383,0c0.223,0.031,0.48,0.031,0.648,0.176c0.074,0.062,0.098,0.172,0.117,0.266
	c0.02,0.097,0.051,0.21,0,0.292c-0.145,0.258-0.488,0.348-0.766,0.446c-0.121,0.043-0.254,0.047-0.383,0.058
	c-0.293,0.028-0.703-0.207-0.883,0.028c-0.047,0.066,0.023,0.164,0.059,0.234c0.07,0.137,0.242,0.211,0.297,0.356
	c0.047,0.128-0.031,0.265,0,0.41c0.027,0.148,0.164,0.109,0.234,0.179c0.141,0.137,0.441,0.293,0.352,0.469
	c-0.039,0.078-0.176,0.02-0.262,0c-0.109-0.023-0.191-0.113-0.297-0.148c-0.16-0.047-0.332-0.063-0.5-0.059
	c-0.188,0.004-0.434-0.051-0.559,0.09c-0.125,0.137-0.047,0.375-0.031,0.559c0.02,0.222,0.043,0.453,0.148,0.648
	c0.102,0.191,0.387,0.262,0.441,0.473c0.023,0.086-0.02,0.183-0.059,0.265c-0.082,0.168-0.216,0.313-0.352,0.438
	c-0.125,0.109-0.254,0.238-0.414,0.265c-0.219,0.039-0.43-0.109-0.648-0.144c-0.32-0.059-0.645-0.141-0.969-0.121
	c-0.406,0.027-1.063,0.297-1.18,0.297s-0.5,0.144-0.617,0.144s-0.262,0.141-0.383,0.09c-0.23-0.098-0.297-0.414-0.383-0.648
	c-0.074-0.196-0.137-0.407-0.117-0.618c0.012-0.168,0.129-0.308,0.176-0.472c0.051-0.172,0.141-0.348,0.117-0.528
	c-0.02-0.144-0.078-0.316-0.207-0.382c-0.121-0.063-0.301-0.028-0.41,0.058c-0.172,0.129-0.242,0.375-0.266,0.59
	c-0.016,0.18,0.082,0.352,0.117,0.527c0.047,0.235,0.047,0.481,0.121,0.707c0.086,0.274,0.453,0.493,0.379,0.766
	c-0.027,0.102-0.191,0.102-0.262,0.176c-0.109,0.117-0.105,0.328-0.238,0.414c-0.227,0.058-0.465,0.035-0.676,0.027
	c-0.172-0.039-0.355-0.367-0.473-0.234l-0.027,0.648c-0.215,0.157-0.414,0.344-0.648,0.473c-0.137,0.074-0.336,0.148-0.555,0.219
	l-0.355,0.304c-0.824,0.145-0.523,0.036-0.824,0.145c-0.004,0-0.008,0.004-0.016,0.008c-0.168,0.066-0.445,0.148-0.606,0.234
	c-0.198,0.109-0.351,0.293-0.558,0.383c-0.082,0.039-0.176,0.074-0.266,0.058c-0.168-0.027-0.273-0.218-0.441-0.261
	c-0.188-0.067-0.371,0.035-0.527,0.058c-0.102,0.082-0.188,0.219-0.18,0.352c0.094,0.227,0.34,0.363,0.504,0.5
	c0.172,0.141,0.383,0.246,0.527,0.414c0.051,0.059,0.086,0.133,0.117,0.207c0.09,0.194,0.18,0.401,0.207,0.617
	c0.016,0.125-0.027,0.266-0.027,0.383s-0.008,0.319-0.059,0.469c-0.074,0.219-0.211,0.414-0.355,0.59
	c-0.133,0.168-0.262,0.382-0.469,0.441c-0.105,0.03-0.224-0.027-0.324-0.06c-0.164-0.05-0.313-0.14-0.473-0.207
	c-0.195-0.082-0.387-0.168-0.59-0.233c-0.133-0.047-0.273-0.078-0.41-0.117c-0.266-0.07-0.523-0.18-0.797-0.207
	c-0.176-0.016-0.352,0.008-0.527,0.031c-0.103,0.012-0.254-0.031-0.297,0.059c-0.066,0.136,0.203,0.257,0.207,0.41
	c0.004,0.148-0.086,0.297-0.176,0.414c-0.094,0.113-0.281,0.137-0.355,0.266c-0.012,0.246-0.109,0.5-0.176,0.707
	c-0.043,0.063-0.117,0.098-0.176,0.145c-0.113,0.094-0.273,0.145-0.355,0.266c-0.133,0.203-0.129,0.468-0.176,0.707
	c-0.035,0.246-0.078,0.511-0.117,0.734c-0.012,0.108-0.074,0.227-0.027,0.323c0.137,0.289,0.734,0.414,0.793,0.532
	c0.059,0.117,0.273,0.305,0.441,0.41c0.09,0.058,0.191,0.093,0.297,0.121c0.199,0.047,0.41,0.047,0.617,0.058
	c0.266,0.013,0.531-0.003,0.797,0c0.351,0.004,0.719,0.125,1.059,0.028c0.169-0.051,0.285-0.211,0.441-0.293
	c0.129-0.071,0.285-0.098,0.41-0.176c0.145-0.09,0.238-0.297,0.383-0.324c0.148-0.031,0.031-0.238,0.031-0.356
	c0-0.155-0.066-0.315-0.031-0.472c0.039-0.153,0.148-0.278,0.234-0.41c0.09-0.133,0.16-0.301,0.297-0.383
	c0.102-0.063,0.207,0,0.352-0.059c0.148-0.059,0.309-0.207,0.473-0.293c0.133-0.07,0.273-0.121,0.41-0.181
	c0.109-0.039,0.262-0.019,0.324-0.116c0.074-0.113-0.035-0.273-0.027-0.41c0.008-0.142-0.016-0.32,0.086-0.414
	c0.156-0.138,0.414-0.056,0.621-0.06c0.156,0,0.313,0.052,0.469,0.032c0.289-0.039,0.586-0.105,0.824-0.266
	c0.117-0.078,0.168-0.224,0.266-0.324c0.156-0.16,0.285-0.391,0.5-0.442c0.16-0.039,0.371-0.007,0.473,0.118
	c0.102,0.132-0.063,0.347,0,0.5c0.199,0.211,0.422,0.421,0.617,0.617c0.086,0.101,0.156,0.219,0.234,0.324
	c0.078,0.102,0.141,0.215,0.238,0.293c0.102,0.086,0.25,0.098,0.352,0.18c0.125,0.102,0.164,0.285,0.293,0.383
	c0.453,0.109,0.727,0.367,1.063,0.648c0.168,0.113,0.367,0.176,0.531,0.293c0.117,0.086,0.262,0.16,0.32,0.293
	c0.035,0.082,0.012,0.18,0,0.266c-0.012,0.121-0.063,0.234-0.086,0.355c-0.023,0.104-0.129,0.238-0.059,0.324
	c0.035,0.043,0.117,0,0.176,0c0.148,0,0.148-0.086,0.207-0.148c0.113-0.125,0.23-0.274,0.266-0.442
	c0.02-0.116-0.008-0.245-0.063-0.354c-0.035-0.07-0.141-0.098-0.176-0.176c-0.047-0.099-0.09-0.23-0.027-0.324
	c0.031-0.051,0.113-0.067,0.176-0.06c0.071,0.009,0.109,0.095,0.176,0.117c0.176,0.067,0.414,0.177,0.559,0.063
	c0.055-0.043,0.063-0.146,0.031-0.207c-0.113-0.219-0.426-0.25-0.648-0.356c-0.173-0.078-0.383-0.085-0.531-0.207
	c-0.148-0.116-0.164-0.358-0.32-0.468c-0.211-0.145-0.52-0.055-0.738-0.176c-0.195-0.109-0.367-0.277-0.469-0.473
	c-0.098-0.177,0.309-0.242,0.207-0.414c-0.16,0.164-0.012-0.716-0.02-0.727c-0.367-0.477-0.102-1.098-0.102-1.098
	c0.109-0.188,0.191,0.129,0.297,0.18c0.141,0.063,0.32,0.047,0.441,0.145c0,0,0.289,0.441,0.41,0.707
	c0.066,0.109,0.113,0.238,0.207,0.323c0.105,0.099,0.258,0.129,0.383,0.207c0.266,0.161,0.516,0.345,0.766,0.528
	c0.199,0.152,0.508,0.234,0.586,0.472c0.039,0.114-0.094,0.231-0.086,0.353c0.008,0.18,0.113,0.336,0.176,0.504
	c0.047,0.125,0.094,0.254,0.148,0.383c0.063,0.14,0.117,0.281,0.203,0.41c0.133,0.195,0.445,0.414,0.473,0.531
	c0.031,0.116-0.077,0.137-0.059,0.207c0.035,0.133,0.242,0.164,0.293,0.293c0.047,0.109-0.043,0.241,0,0.352
	c0.066,0.156,0.199,0.3,0.355,0.355c0.176,0.063,0.395,0.03,0.559-0.059c0.109-0.063,0.188-0.18,0.234-0.297
	c0.105-0.395,0-0.629-0.176-0.942c-0.066-0.14-0.09-0.297-0.145-0.44c-0.055-0.129-0.164-0.242-0.18-0.383
	c-0.016-0.129-0.031-0.332,0.09-0.384c0.105-0.043,0.18,0.188,0.293,0.177c0.117-0.013,0.168-0.168,0.266-0.234
	c0.145-0.098,0.336-0.121,0.469-0.235c0.066-0.054,0.066-0.183,0.148-0.207c0.184,0.024,0.359,0.157,0.5,0.235
	c0.172,0.039,0.375,0.05,0.531-0.028c0.109-0.058,0.137-0.218,0.234-0.293c0.137-0.104,0.367-0.073,0.473-0.207
	c0.066-0.086,0.094-0.222,0.059-0.323c-0.094-0.27-0.527-0.302-0.649-0.559c-0.097-0.215-0.011-0.473,0-0.708
	c0.017-0.21,0.005-0.437-0.011-0.664c-0.141-0.382-0.215-0.839-0.191-1.366c0.113-1.359,1.348-2.426,2.629-2.574
	c-0.043-0.734-0.148-1.668-0.254-2.398c-0.195-1.348-0.637-2.614-1.027-3.793c-0.355-1.082-0.938-2.172-1.396-3.192
	c-0.409-0.918-1.468-2.262-2.116-3.058C47.523,14.562,47.613,14.617,46.703,13.445z"/>
<path fill="none" stroke="#808080" stroke-width="0.5669" d="M46.703,13.445c-0.297,0.11-0.48,0.305-0.711,0.528
	c-0.547,0.316-1.054,0.703-1.527,1.031c-0.395,0.371-0.715,0.816-1.016,1.266c-0.145,0.218-0.316,0.437-0.383,0.691
	c-0.031,0.129,0.063,0.281,0,0.398c-0.055,0.106-0.266,0.09-0.293,0.207c-0.02,0.082,0.117,0.145,0.117,0.219
	c0.25,0.301-0.137,0.313-0.176,0.399c-0.051,0.113,0.035,0.261,0.043,0.324c-0.074,0.097-0.258-0.059-0.367,0
	c-0.199,0.109-0.215,0.406-0.367,0.574c-0.188,0.207-0.445,0.34-0.664,0.516c-0.324,0.261-0.805,0.418-0.957,0.808
	c-0.035,0.098,0.102,0.223,0.047,0.309c-0.035,0.055-0.138,0.012-0.18,0.058c-0.09,0.106-0.059,0.274-0.07,0.415
	c-0.011,0.117-0.086,0.269,0,0.351c0.086,0.09,0.289-0.094,0.367,0c0.027,0.035-0.02,0.09-0.031,0.133
	c-0.02,0.078-0.031,0.156-0.074,0.223c-0.016,0.027-0.047,0.05-0.074,0.074c-0.035,0.031-0.105,0.039-0.117,0.086
	c-0.012,0.058,0.042,0.113,0.09,0.148c0.047,0.035,0.145-0.008,0.176,0.043c0.063,0.098-0.063,0.227-0.059,0.34
	c0.008,0.117-0.012,0.281,0.09,0.34c0.137,0.078,0.324-0.047,0.457-0.133c0.059-0.039,0.086-0.109,0.133-0.164
	c0.047-0.059,0.09-0.125,0.145-0.176c0.121-0.117,0.289-0.183,0.398-0.308c0.094-0.114,0.059-0.391,0.203-0.383
	c0.102,0.004,0.086,0.183,0.121,0.277c0.027,0.078,0.027,0.168,0.074,0.238c0.051,0.082,0.164,0.121,0.219,0.203
	c0.152,0.227,0.199,0.512,0.297,0.766c0.047,0.133,0.094,0.27,0.145,0.399c0.07,0.175,0.191,0.414,0.223,0.515
	c0.027,0.102,0.156,0.172,0.191,0.281c0.043,0.133,0.012,0.368,0.012,0.426c0,0.059,0.02,0.106,0.059,0.117
	c0.066,0.02,0.137-0.046,0.18-0.101c0.09-0.117,0.047-0.297,0.117-0.43c0.031-0.058,0.082-0.113,0.129-0.16
	c0.082-0.078,0.203-0.113,0.266-0.207c0.059-0.078,0.074-0.184,0.09-0.277c0.035-0.231,0.008-0.461,0-0.692
	c-0.074-0.527,0.406-0.765,0.734-1.152c0.023-0.067,0.051-0.164,0-0.219c-0.02-0.023-0.082,0.012-0.102-0.016
	c-0.016-0.019,0.012-0.058,0.016-0.085c0.039-0.079-0.012-0.165-0.016-0.223c-0.078-0.067-0.223,0.016-0.309-0.043
	s-0.125-0.168-0.164-0.266c-0.027-0.078-0.043-0.164-0.043-0.25c0.043-0.66,0.27-1.195,0.648-1.722
	c0.043-0.067,0.09-0.133,0.117-0.203c0.032-0.083,0.023-0.172,0.059-0.25c0.027-0.063,0.078-0.114,0.117-0.165
	c0.063-0.078,0.164-0.128,0.191-0.222c0.02-0.055,0.016-0.125-0.012-0.176c-0.113-0.035-0.073-0.191-0.105-0.262
	c0.012-0.066,0.055-0.125,0.09-0.179c0.262-0.282,0.359-0.664,0.488-0.973c0.414-0.09,0.434-0.035,0.691,0.297
	c0.09,0.14,0.199,0.277,0.234,0.441c0.023,0.117-0.004,0.239-0.031,0.352c-0.059,0.269-0.184,0.515-0.293,0.765
	c-0.082,0.184-0.152,0.368-0.266,0.532c-0.105,0.156-0.305,0.242-0.382,0.414c-0.11,0.242-0.134,0.531-0.087,0.793
	c0.063,0.386,0.191,0.82,0.5,1.058c0.164,0.129,0.355-0.07,0.555-0.129c0.195-0.054,0.336-0.175,0.504-0.289
	c0.207-0.14,0.434-0.144,0.676-0.199c0.125-0.027,0.258-0.016,0.383,0c0.223,0.031,0.48,0.031,0.648,0.176
	c0.074,0.062,0.098,0.172,0.117,0.266c0.02,0.097,0.051,0.21,0,0.292c-0.145,0.258-0.488,0.348-0.766,0.446
	c-0.121,0.043-0.254,0.047-0.383,0.058c-0.293,0.028-0.703-0.207-0.883,0.028c-0.047,0.066,0.023,0.164,0.059,0.234
	c0.07,0.137,0.242,0.211,0.297,0.356c0.047,0.128-0.031,0.265,0,0.41c0.027,0.148,0.164,0.109,0.234,0.179
	c0.141,0.137,0.441,0.293,0.352,0.469c-0.039,0.078-0.176,0.02-0.262,0c-0.109-0.023-0.191-0.113-0.297-0.148
	c-0.16-0.047-0.332-0.063-0.5-0.059c-0.188,0.004-0.434-0.051-0.559,0.09c-0.125,0.137-0.047,0.375-0.031,0.559
	c0.02,0.222,0.043,0.453,0.148,0.648c0.102,0.191,0.387,0.262,0.441,0.473c0.023,0.086-0.02,0.183-0.059,0.265
	c-0.082,0.168-0.216,0.313-0.352,0.438c-0.125,0.109-0.254,0.238-0.414,0.265c-0.219,0.039-0.43-0.109-0.648-0.144
	c-0.32-0.059-0.645-0.141-0.969-0.121c-0.406,0.027-1.063,0.297-1.18,0.297s-0.5,0.144-0.617,0.144s-0.262,0.141-0.383,0.09
	c-0.23-0.098-0.297-0.414-0.383-0.648c-0.074-0.196-0.137-0.407-0.117-0.618c0.012-0.168,0.129-0.308,0.176-0.472
	c0.051-0.172,0.141-0.348,0.117-0.528c-0.02-0.144-0.078-0.316-0.207-0.382c-0.121-0.063-0.301-0.028-0.41,0.058
	c-0.172,0.129-0.242,0.375-0.266,0.59c-0.016,0.18,0.082,0.352,0.117,0.527c0.047,0.235,0.047,0.481,0.121,0.707
	c0.086,0.274,0.453,0.493,0.379,0.766c-0.027,0.102-0.191,0.102-0.262,0.176c-0.109,0.117-0.105,0.328-0.238,0.414
	c-0.227,0.058-0.465,0.035-0.676,0.027c-0.172-0.039-0.355-0.367-0.473-0.234l-0.027,0.648c-0.215,0.157-0.414,0.344-0.648,0.473
	c-0.137,0.074-0.336,0.148-0.555,0.219l-0.355,0.304c-0.824,0.145-0.523,0.036-0.824,0.145c-0.004,0-0.008,0.004-0.016,0.008
	c-0.168,0.066-0.445,0.148-0.606,0.234c-0.198,0.109-0.351,0.293-0.558,0.383c-0.082,0.039-0.176,0.074-0.266,0.058
	c-0.168-0.027-0.273-0.218-0.441-0.261c-0.188-0.067-0.371,0.035-0.527,0.058c-0.102,0.082-0.188,0.219-0.18,0.352
	c0.094,0.227,0.34,0.363,0.504,0.5c0.172,0.141,0.383,0.246,0.527,0.414c0.051,0.059,0.086,0.133,0.117,0.207
	c0.09,0.194,0.18,0.401,0.207,0.617c0.016,0.125-0.027,0.266-0.027,0.383s-0.008,0.319-0.059,0.469
	c-0.074,0.219-0.211,0.414-0.355,0.59c-0.133,0.168-0.262,0.382-0.469,0.441c-0.105,0.03-0.224-0.027-0.324-0.06
	c-0.164-0.05-0.313-0.14-0.473-0.207c-0.195-0.082-0.387-0.168-0.59-0.233c-0.133-0.047-0.273-0.078-0.41-0.117
	c-0.266-0.07-0.523-0.18-0.797-0.207c-0.176-0.016-0.352,0.008-0.527,0.031c-0.103,0.012-0.254-0.031-0.297,0.059
	c-0.066,0.136,0.203,0.257,0.207,0.41c0.004,0.148-0.086,0.297-0.176,0.414c-0.094,0.113-0.281,0.137-0.355,0.266
	c-0.012,0.246-0.109,0.5-0.176,0.707c-0.043,0.063-0.117,0.098-0.176,0.145c-0.113,0.094-0.273,0.145-0.355,0.266
	c-0.133,0.203-0.129,0.468-0.176,0.707c-0.035,0.246-0.078,0.511-0.117,0.734c-0.012,0.108-0.074,0.227-0.027,0.323
	c0.137,0.289,0.734,0.414,0.793,0.532c0.059,0.117,0.273,0.305,0.441,0.41c0.09,0.058,0.191,0.093,0.297,0.121
	c0.199,0.047,0.41,0.047,0.617,0.058c0.266,0.013,0.531-0.003,0.797,0c0.351,0.004,0.719,0.125,1.059,0.028
	c0.169-0.051,0.285-0.211,0.441-0.293c0.129-0.071,0.285-0.098,0.41-0.176c0.145-0.09,0.238-0.297,0.383-0.324
	c0.148-0.031,0.031-0.238,0.031-0.356c0-0.155-0.066-0.315-0.031-0.472c0.039-0.153,0.148-0.278,0.234-0.41
	c0.09-0.133,0.16-0.301,0.297-0.383c0.102-0.063,0.207,0,0.352-0.059c0.148-0.059,0.309-0.207,0.473-0.293
	c0.133-0.07,0.273-0.121,0.41-0.181c0.109-0.039,0.262-0.019,0.324-0.116c0.074-0.113-0.035-0.273-0.027-0.41
	c0.008-0.142-0.016-0.32,0.086-0.414c0.156-0.138,0.414-0.056,0.621-0.06c0.156,0,0.313,0.052,0.469,0.032
	c0.289-0.039,0.586-0.105,0.824-0.266c0.117-0.078,0.168-0.224,0.266-0.324c0.156-0.16,0.285-0.391,0.5-0.442
	c0.16-0.039,0.371-0.007,0.473,0.118c0.102,0.132-0.063,0.347,0,0.5c0.199,0.211,0.422,0.421,0.617,0.617
	c0.086,0.101,0.156,0.219,0.234,0.324c0.078,0.102,0.141,0.215,0.238,0.293c0.102,0.086,0.25,0.098,0.352,0.18
	c0.125,0.102,0.164,0.285,0.293,0.383c0.453,0.109,0.727,0.367,1.063,0.648c0.168,0.113,0.367,0.176,0.531,0.293
	c0.117,0.086,0.262,0.16,0.32,0.293c0.035,0.082,0.012,0.18,0,0.266c-0.012,0.121-0.063,0.234-0.086,0.355
	c-0.023,0.104-0.129,0.238-0.059,0.324c0.035,0.043,0.117,0,0.176,0c0.148,0,0.148-0.086,0.207-0.148
	c0.113-0.125,0.23-0.274,0.266-0.442c0.02-0.116-0.008-0.245-0.063-0.354c-0.035-0.07-0.141-0.098-0.176-0.176
	c-0.047-0.099-0.09-0.23-0.027-0.324c0.031-0.051,0.113-0.067,0.176-0.06c0.071,0.009,0.109,0.095,0.176,0.117
	c0.176,0.067,0.414,0.177,0.559,0.063c0.055-0.043,0.063-0.146,0.031-0.207c-0.113-0.219-0.426-0.25-0.648-0.356
	c-0.173-0.078-0.383-0.085-0.531-0.207c-0.148-0.116-0.164-0.358-0.32-0.468c-0.211-0.145-0.52-0.055-0.738-0.176
	c-0.195-0.109-0.367-0.277-0.469-0.473c-0.098-0.177,0.309-0.242,0.207-0.414c-0.16,0.164-0.012-0.716-0.02-0.727
	c-0.367-0.477-0.102-1.098-0.102-1.098c0.109-0.188,0.191,0.129,0.297,0.18c0.141,0.063,0.32,0.047,0.441,0.145
	c0,0,0.289,0.441,0.41,0.707c0.066,0.109,0.113,0.238,0.207,0.323c0.105,0.099,0.258,0.129,0.383,0.207
	c0.266,0.161,0.516,0.345,0.766,0.528c0.199,0.152,0.508,0.234,0.586,0.472c0.039,0.114-0.094,0.231-0.086,0.353
	c0.008,0.18,0.113,0.336,0.176,0.504c0.047,0.125,0.094,0.254,0.148,0.383c0.063,0.14,0.117,0.281,0.203,0.41
	c0.133,0.195,0.445,0.414,0.473,0.531c0.031,0.116-0.077,0.137-0.059,0.207c0.035,0.133,0.242,0.164,0.293,0.293
	c0.047,0.109-0.043,0.241,0,0.352c0.066,0.156,0.199,0.3,0.355,0.355c0.176,0.063,0.395,0.03,0.559-0.059
	c0.109-0.063,0.188-0.18,0.234-0.297c0.105-0.395,0-0.629-0.176-0.942c-0.066-0.14-0.09-0.297-0.145-0.44
	c-0.055-0.129-0.164-0.242-0.18-0.383c-0.016-0.129-0.031-0.332,0.09-0.384c0.105-0.043,0.18,0.188,0.293,0.177
	c0.117-0.013,0.168-0.168,0.266-0.234c0.145-0.098,0.336-0.121,0.469-0.235c0.066-0.054,0.066-0.183,0.148-0.207
	c0.184,0.024,0.359,0.157,0.5,0.235c0.172,0.039,0.375,0.05,0.531-0.028c0.109-0.058,0.137-0.218,0.234-0.293
	c0.137-0.104,0.367-0.073,0.473-0.207c0.066-0.086,0.094-0.222,0.059-0.323c-0.094-0.27-0.527-0.302-0.649-0.559
	c-0.097-0.215-0.011-0.473,0-0.708c0.017-0.21,0.005-0.437-0.011-0.664c-0.141-0.382-0.215-0.839-0.191-1.366
	c0.113-1.359,1.348-2.426,2.629-2.574c-0.043-0.734-0.148-1.668-0.254-2.398c-0.195-1.348-0.637-2.614-1.027-3.793
	c-0.355-1.082-0.938-2.172-1.396-3.192c-0.409-0.918-1.468-2.262-2.116-3.058C47.523,14.562,47.613,14.617,46.703,13.445z"/>
<path fill="#4D4D4D" d="M23.047,36.199c-0.164,0.844-0.27,1.659-0.09,2.469c0.125,0.551,0.371,1.104,0.781,1.535
	c0.52,0.539,1.254,0.914,2,1.172c1.032,0.354,2.621,0.645,3.282,0.676l-0.05,0.711H10.156l-0.054-1.157
	c1.589-0.078,2.773-0.222,4.031-0.707c0.605-0.233,1.144-0.604,1.609-1.022c0.383-0.349,0.633-0.715,0.938-1.199
	c0.304-0.485,0.64-1.27,0.945-2.367L22.25,19.68c0.082-0.278,0.227-0.883,0.355-1.504c0.165-0.805,0.286-1.426,0.223-1.789
	c-0.058-0.364-0.371-0.543-0.773-0.715c-0.332-0.145-1.137-0.293-2.27-0.277c-0.926-0.036-1.816,0.175-2.281-0.266l-0.082-1.039
	c3.582-0.59,7.117-1.094,11.836-3.754l1.586,0.051c-0.532,1.5-1.191,3.578-1.981,6.23L23.047,36.199z"/>
<path fill="none" stroke="#000000" stroke-width="0.0891" d="M23.047,36.199c-0.164,0.844-0.27,1.659-0.09,2.469
	c0.125,0.551,0.371,1.104,0.781,1.535c0.52,0.539,1.254,0.914,2,1.172c1.032,0.354,2.621,0.645,3.282,0.676l-0.05,0.711H10.156
	l-0.054-1.157c1.589-0.078,2.773-0.222,4.031-0.707c0.605-0.233,1.144-0.604,1.609-1.022c0.383-0.349,0.633-0.715,0.938-1.199
	c0.304-0.485,0.64-1.27,0.945-2.367L22.25,19.68c0.082-0.278,0.227-0.883,0.355-1.504c0.165-0.805,0.286-1.426,0.223-1.789
	c-0.058-0.364-0.371-0.543-0.773-0.715c-0.332-0.145-1.137-0.293-2.27-0.277c-0.926-0.036-1.816,0.175-2.281-0.266l-0.082-1.039
	c3.582-0.59,7.117-1.094,11.836-3.754l1.586,0.051c-0.532,1.5-1.191,3.578-1.981,6.23L23.047,36.199z"/>
</svg>
