<?xml version="1.0" encoding="utf-8"?>
<!-- Generator: Adobe Illustrator 16.0.3, SVG Export Plug-In . SVG Version: 6.00 Build 0)  -->
<!DOCTYPE svg PUBLIC "-//W3C//DTD SVG 1.1//EN" "http://www.w3.org/Graphics/SVG/1.1/DTD/svg11.dtd">
<svg version="1.1" id="Layer_1" xmlns="http://www.w3.org/2000/svg" xmlns:xlink="http://www.w3.org/1999/xlink" x="0px" y="0px"
	 width="217.173px" height="115.724px" viewBox="0 0 217.173 115.724" enable-background="new 0 0 217.173 115.724"
	 xml:space="preserve">
<g enable-background="new    ">
	<rect x="2.551" y="2.551" fill="#FFFFFF" width="212.07" height="110.621"/>
	<rect x="2.551" y="2.551" fill="none" stroke="#1A1A1A" stroke-width="2.2677" width="212.07" height="110.621"/>
	<rect x="49.156" y="3.75" fill="#6990BF" width="129.411" height="108.305"/>
	<polygon fill="#DBD50F" points="79.617,94.395 85.641,94.324 87.719,88.488 89.516,94.43 95.535,94.324 90.605,98.203 
		92.508,104.184 87.613,100.652 82.645,104.184 84.547,98.168 	"/>
	<polygon fill="none" stroke="#B3B3B3" stroke-width="0.8" points="79.617,94.395 85.641,94.324 87.719,88.488 89.516,94.43 
		95.535,94.324 90.605,98.203 92.508,104.184 87.613,100.652 82.645,104.184 84.547,98.168 	"/>
	<polygon fill="#DBD50F" points="102.621,101.492 108.645,101.422 110.723,95.582 112.52,101.523 118.543,101.422 113.609,105.301 
		115.512,111.277 110.617,107.746 105.652,111.277 107.551,105.267 	"/>
	<polygon fill="none" stroke="#B3B3B3" stroke-width="0.8" points="102.621,101.492 108.645,101.422 110.723,95.582 112.52,101.523 
		118.543,101.422 113.609,105.301 115.512,111.277 110.617,107.746 105.652,111.277 107.551,105.267 	"/>
	<polygon fill="#DBD50F" points="126.766,94.477 132.789,94.406 134.867,88.571 136.664,94.512 142.688,94.406 137.758,98.286 
		139.656,104.266 134.762,100.735 129.797,104.266 131.699,98.254 	"/>
	<polygon fill="none" stroke="#B3B3B3" stroke-width="0.8" points="126.766,94.477 132.789,94.406 134.867,88.571 136.664,94.512 
		142.688,94.406 137.758,98.286 139.656,104.266 134.762,100.735 129.797,104.266 131.699,98.254 	"/>
	<polygon fill="#DBD50F" points="143.602,78.461 149.625,78.391 151.703,72.551 153.5,78.496 159.523,78.391 154.59,82.27 
		156.492,88.246 151.598,84.715 146.633,88.246 148.535,82.234 	"/>
	<polygon fill="none" stroke="#B3B3B3" stroke-width="0.8" points="143.602,78.461 149.625,78.391 151.703,72.551 153.5,78.496 
		159.523,78.391 154.59,82.27 156.492,88.246 151.598,84.715 146.633,88.246 148.535,82.234 	"/>
	<polygon fill="#DBD50F" points="149.34,54.73 155.363,54.66 157.441,48.825 159.238,54.766 165.262,54.66 160.328,58.54 
		162.23,64.52 157.336,60.988 152.371,64.52 154.27,58.504 	"/>
	<polygon fill="none" stroke="#B3B3B3" stroke-width="0.8" points="149.34,54.73 155.363,54.66 157.441,48.825 159.238,54.766 
		165.262,54.66 160.328,58.54 162.23,64.52 157.336,60.988 152.371,64.52 154.27,58.504 	"/>
	<polygon fill="#DBD50F" points="142.887,32.406 148.91,32.336 150.988,26.5 152.781,32.442 158.805,32.336 153.875,36.215 
		155.777,42.195 150.883,38.664 145.914,42.195 147.816,36.18 	"/>
	<polygon fill="none" stroke="#B3B3B3" stroke-width="0.8" points="142.887,32.406 148.91,32.336 150.988,26.5 152.781,32.442 
		158.805,32.336 153.875,36.215 155.777,42.195 150.883,38.664 145.914,42.195 147.816,36.18 	"/>
	<polygon fill="#DBD50F" points="125.934,16.29 131.953,16.219 134.031,10.383 135.828,16.324 141.852,16.219 136.922,20.102 
		138.82,26.078 133.926,22.547 128.961,26.078 130.863,20.067 	"/>
	<polygon fill="none" stroke="#B3B3B3" stroke-width="0.8" points="125.934,16.29 131.953,16.219 134.031,10.383 135.828,16.324 
		141.852,16.219 136.922,20.102 138.82,26.078 133.926,22.547 128.961,26.078 130.863,20.067 	"/>
	<polygon fill="#DBD50F" points="103.176,11.027 109.199,10.961 111.277,5.121 113.074,11.063 119.098,10.961 114.168,14.84 
		116.066,20.817 111.172,17.285 106.207,20.817 108.109,14.804 	"/>
	<polygon fill="none" stroke="#B3B3B3" stroke-width="0.8" points="103.176,11.027 109.199,10.961 111.277,5.121 113.074,11.063 
		119.098,10.961 114.168,14.84 116.066,20.817 111.172,17.285 106.207,20.817 108.109,14.804 	"/>
	<polygon fill="#DBD50F" points="79.906,16.406 85.93,16.336 88.008,10.5 89.805,16.442 95.828,16.336 90.895,20.219 92.797,26.195 
		87.902,22.664 82.938,26.195 84.84,20.184 	"/>
	<polygon fill="none" stroke="#B3B3B3" stroke-width="0.8" points="79.906,16.406 85.93,16.336 88.008,10.5 89.805,16.442 
		95.828,16.336 90.895,20.219 92.797,26.195 87.902,22.664 82.938,26.195 84.84,20.184 	"/>
	<polygon fill="#DBD50F" points="62.914,78.816 68.934,78.746 71.012,72.906 72.809,78.852 78.832,78.746 73.902,82.625 
		75.805,88.605 70.906,85.074 65.941,88.605 67.844,82.59 	"/>
	<polygon fill="none" stroke="#B3B3B3" stroke-width="0.8" points="62.914,78.816 68.934,78.746 71.012,72.906 72.809,78.852 
		78.832,78.746 73.902,82.625 75.805,88.605 70.906,85.074 65.941,88.605 67.844,82.59 	"/>
	<polygon fill="#DBD50F" points="56.738,54.57 62.758,54.5 64.836,48.665 66.633,54.605 72.656,54.5 67.727,58.383 69.629,64.359 
		64.73,60.828 59.766,64.359 61.668,58.348 	"/>
	<polygon fill="none" stroke="#B3B3B3" stroke-width="0.8" points="56.738,54.57 62.758,54.5 64.836,48.665 66.633,54.605 
		72.656,54.5 67.727,58.383 69.629,64.359 64.73,60.828 59.766,64.359 61.668,58.348 	"/>
	<polygon fill="#DBD50F" points="62.914,31.969 68.934,31.898 71.012,26.062 72.809,32.004 78.832,31.898 73.902,35.781 
		75.805,41.758 70.906,38.227 65.941,41.758 67.844,35.747 	"/>
	<polygon fill="none" stroke="#B3B3B3" stroke-width="0.8" points="62.914,31.969 68.934,31.898 71.012,26.062 72.809,32.004 
		78.832,31.898 73.902,35.781 75.805,41.758 70.906,38.227 65.941,41.758 67.844,35.747 	"/>
	<path d="M61.527,29.625v-11.84c0,0,14.407-5.782,21.801-4.887c14.887,1.805,22.348,11.086,24.434,21.801
		c2.785,14.328-9.422,28.59-19.36,39.281c-5.515,5.938-16.726,16.353-16.726,16.353h37.211v11.276H58.52V87.891
		c0,0,17.191-15.617,23.867-23.871c6.152-7.605,14.258-16.863,12.593-26.5c-1.07-6.199-2.753-12.289-13.343-13.344
		C74.727,23.489,61.527,29.625,61.527,29.625z"/>
	<path d="M141.816,24.891c13.504-0.461,16.414,18.934,16.375,31.582c-0.066,19.715-4.832,35.84-15.559,35.653
		c-13.754-0.239-17.309-21.106-17.051-35.375C125.82,43.747,129.699,25.301,141.816,24.891z M143.121,13.262
		c-0.383-0.004-0.773,0.012-1.164,0.024c-22.422,0.547-29.633,25.125-30.07,42.465c-0.484,19.027,6.141,46.847,31.582,47.167
		c19.848,0.25,28.648-21.253,28.77-47.54C172.312,38.778,167.109,13.465,143.121,13.262z"/>
	<rect x="25.75" y="6.079" fill-rule="evenodd" clip-rule="evenodd" fill="#3036AA" width="23.441" height="15.465"/>
	<polygon fill-rule="evenodd" clip-rule="evenodd" fill="#F4EE30" points="32.676,14.605 32.172,14.23 31.641,14.602 31.848,14.016 
		31.324,13.637 31.957,13.645 32.164,13.042 32.352,13.637 33,13.641 32.48,13.997 	"/>
	<polygon fill-rule="evenodd" clip-rule="evenodd" fill="#F4EE30" points="42.875,14.628 42.371,14.258 41.84,14.628 42.047,14.04 
		41.523,13.661 42.156,13.672 42.363,13.066 42.551,13.661 43.199,13.667 42.68,14.023 	"/>
	<polygon fill-rule="evenodd" clip-rule="evenodd" fill="#F4EE30" points="42.188,12.122 41.684,11.747 41.152,12.118 
		41.359,11.532 40.836,11.153 41.469,11.161 41.676,10.559 41.863,11.153 42.512,11.157 41.992,11.512 	"/>
	<polygon fill-rule="evenodd" clip-rule="evenodd" fill="#F4EE30" points="40.367,10.309 39.859,9.938 39.332,10.305 39.535,9.719 
		39.012,9.34 39.648,9.352 39.852,8.747 40.039,9.34 40.688,9.344 40.172,9.704 	"/>
	<polygon fill-rule="evenodd" clip-rule="evenodd" fill="#F4EE30" points="37.805,9.61 37.297,9.239 36.766,9.61 36.973,9.02 
		36.449,8.641 37.082,8.653 37.289,8.047 37.477,8.641 38.125,8.645 37.609,9.003 	"/>
	<polygon fill-rule="evenodd" clip-rule="evenodd" fill="#F4EE30" points="35.266,10.282 34.762,9.911 34.23,10.282 34.438,9.691 
		33.914,9.316 34.547,9.325 34.754,8.723 34.941,9.313 35.59,9.321 35.07,9.676 	"/>
	<polygon fill-rule="evenodd" clip-rule="evenodd" fill="#F4EE30" points="33.363,12.094 32.859,11.723 32.328,12.09 32.535,11.503 
		32.012,11.125 32.645,11.137 32.852,10.532 33.039,11.125 33.688,11.128 33.168,11.489 	"/>
	<polygon fill-rule="evenodd" clip-rule="evenodd" fill="#F4EE30" points="33.363,17.165 32.859,16.792 32.328,17.165 
		32.535,16.575 32.012,16.2 32.645,16.208 32.852,15.605 33.039,16.196 33.688,16.204 33.168,16.559 	"/>
	<polygon fill-rule="evenodd" clip-rule="evenodd" fill="#F4EE30" points="35.215,19.028 34.707,18.657 34.18,19.028 34.383,18.438 
		33.859,18.059 34.496,18.071 34.699,17.465 34.887,18.059 35.535,18.066 35.02,18.422 	"/>
	<polygon fill-rule="evenodd" clip-rule="evenodd" fill="#F4EE30" points="37.777,19.704 37.27,19.329 36.742,19.7 36.945,19.114 
		36.422,18.735 37.059,18.743 37.262,18.141 37.449,18.73 38.098,18.739 37.582,19.094 	"/>
	<polygon fill-rule="evenodd" clip-rule="evenodd" fill="#F4EE30" points="40.34,19.028 39.832,18.657 39.305,19.028 39.508,18.438 
		38.988,18.059 39.621,18.071 39.824,17.465 40.012,18.059 40.664,18.066 40.145,18.422 	"/>
	<polygon fill-rule="evenodd" clip-rule="evenodd" fill="#F4EE30" points="42.242,17.165 41.734,16.792 41.207,17.165 41.41,16.575 
		40.891,16.2 41.523,16.208 41.727,15.605 41.914,16.196 42.566,16.204 42.047,16.559 	"/>
	<polygon opacity="0.8824" fill="#CCCCCC" points="39.203,102.586 34.73,102.586 34.707,108.586 39.207,108.586 39.207,107.665 
		36.164,107.684 36.184,106.035 39.16,106.035 39.16,105.117 36.207,105.117 36.207,103.469 39.203,103.469 	"/>
	<polygon fill="none" stroke="#4D4D4D" stroke-width="0.9424" points="39.203,102.586 34.73,102.586 34.707,108.586 39.207,108.586 
		39.207,107.664 36.164,107.685 36.184,106.035 39.16,106.035 39.16,105.117 36.207,105.117 36.207,103.469 39.203,103.469 	"/>
	<polygon opacity="0.8824" fill="#CCCCCC" points="43.273,106.195 41.078,102.676 42.871,102.676 44.23,104.879 45.559,102.723 
		47.32,102.723 45.109,106.242 45.078,108.665 43.273,108.665 	"/>
	<polygon fill="none" stroke="#4D4D4D" stroke-width="0.9424" points="43.273,106.195 41.078,102.676 42.871,102.676 44.23,104.879 
		45.559,102.724 47.32,102.724 45.109,106.242 45.078,108.664 43.273,108.664 	"/>
	<path opacity="0.8824" fill="#CCCCCC" d="M50.902,103.586l0.973,0.023c0,0,0.937-0.129,0.902,0.914
		c-0.031,0.941-0.961,0.926-0.961,0.926H50.93l-0.028-1.866V103.586z M49.258,102.579l-0.059,6.101h1.817v-1.957h0.8
		c0,0,2.594,0.055,2.52-2.305c-0.066-2.074-2.633-1.839-2.633-1.839H49.258z"/>
	<path fill="none" stroke="#4D4D4D" stroke-width="0.9424" d="M50.902,103.586l0.973,0.023c0,0,0.938-0.129,0.902,0.914
		c-0.031,0.941-0.961,0.926-0.961,0.926H50.93l-0.028-1.867V103.586z M49.258,102.578l-0.059,6.102h1.817v-1.956h0.8
		c0,0,2.594,0.054,2.52-2.306c-0.066-2.074-2.633-1.84-2.633-1.84H49.258z"/>
	<path opacity="0.8824" fill="#CCCCCC" d="M60.684,105.531c0.007,1.191-0.938,2.293-0.938,2.293l0.016,0.88h2.804l0.039-0.653
		l-1.195-0.011c0,0,1.188-1.31,1.184-2.521c-0.008-2.617-2.125-3.172-3.332-3.156c-1.223,0.013-3.324,0.504-3.332,3.117
		c-0.004,1.211,0.98,2.521,0.98,2.521l-1.238,0.015l0.043,0.688h2.805l-0.032-0.919c0,0-0.824-1.102-0.773-2.293
		c0.062-1.336,1.015-1.801,1.508-1.793C59.887,103.711,60.676,104.152,60.684,105.531z"/>
	<path fill="none" stroke="#4D4D4D" stroke-width="0.9424" d="M60.684,105.531c0.007,1.192-0.938,2.293-0.938,2.293l0.016,0.879
		h2.804l0.039-0.652l-1.195-0.012c0,0,1.188-1.309,1.184-2.519c-0.008-2.618-2.125-3.172-3.332-3.157
		c-1.223,0.012-3.324,0.504-3.332,3.117c-0.004,1.211,0.98,2.52,0.98,2.52l-1.238,0.017l0.043,0.687h2.805l-0.032-0.918
		c0,0-0.824-1.101-0.773-2.293c0.062-1.336,1.015-1.801,1.508-1.793C59.887,103.711,60.676,104.152,60.684,105.531z"/>
	<polygon fill="#333333" points="39.188,94.723 34.527,94.704 34.527,101.395 39.121,101.395 39.121,99.965 36.375,99.965 
		36.375,98.648 39.094,98.648 39.094,97.277 36.375,97.277 36.375,96.133 39.16,96.133 	"/>
	<path fill="#333333" d="M46.992,99.473l0.082-4.73l-1.961,0.02l-0.043,4.571c-0.031,0.628-0.644,0.96-1.062,0.929
		c-0.496-0.039-0.883-0.316-0.981-0.941l-0.039-4.569l-1.965-0.021l0.082,4.734c0.196,1.797,2.348,2.082,2.946,2.086
		C44.645,101.559,46.797,101.273,46.992,99.473z"/>
	<path fill="#333333" d="M50.859,96.059l1.102,0.027c0.668,0.168,0.57,1.266,0,1.418h-1.102V96.059z M49.098,94.727v6.656h1.773
		v-2.59h0.945c0.426,0.781,0.879,1.555,0.989,2.547h1.859c-0.301-1.242-0.809-2.261-1.375-3.214
		c1.625-1.086,1.047-3.043-0.613-3.313L49.098,94.727z"/>
	<path fill="#333333" d="M59.344,96.145c0.535,0.027,1.183,0.582,1.215,1.91c0.035,1.328-0.645,1.98-1.317,1.953
		c-0.672-0.023-1.258-0.684-1.242-2.109C58.012,96.477,58.805,96.117,59.344,96.145z M59.488,94.758
		c-1.285-0.05-3.187,0.555-3.222,3.027c-0.032,2.473,1.375,3.637,2.976,3.684c1.606,0.043,3.231-1.093,3.149-3.398
		C62.312,95.766,60.77,94.805,59.488,94.758z"/>
	<g id="EURion_constellation">
		<path fill="#F3D723" d="M51.785,46.708c0.192,0,0.348,0.156,0.348,0.347c0,0.196-0.156,0.352-0.348,0.352
			c-0.195,0-0.351-0.156-0.351-0.352C51.434,46.864,51.59,46.708,51.785,46.708z M51.785,46.372c-0.383,0-0.691,0.304-0.691,0.683
			s0.308,0.688,0.691,0.688c0.379,0,0.688-0.309,0.688-0.688S52.164,46.372,51.785,46.372z"/>
		<path fill="#F3D723" d="M51.227,37.594c0.195,0,0.351,0.153,0.351,0.348c0,0.191-0.156,0.348-0.351,0.348
			c-0.192,0-0.348-0.157-0.348-0.348C50.879,37.747,51.035,37.594,51.227,37.594z M51.227,37.258c-0.379,0-0.688,0.305-0.688,0.684
			c0,0.379,0.309,0.684,0.688,0.684c0.382,0,0.691-0.305,0.691-0.684C51.918,37.563,51.609,37.258,51.227,37.258z"/>
		<path fill="#F3D723" d="M53.719,35.61c0.195,0,0.351,0.156,0.351,0.348c0,0.195-0.156,0.347-0.351,0.347
			c-0.192,0-0.348-0.152-0.348-0.347C53.371,35.766,53.527,35.61,53.719,35.61z M53.719,35.273c-0.379,0-0.688,0.305-0.688,0.684
			c0,0.378,0.309,0.683,0.688,0.683c0.383,0,0.691-0.305,0.691-0.683C54.41,35.579,54.102,35.273,53.719,35.273z"/>
		<path fill="#F3D723" d="M57.207,34.727c0.195,0,0.352,0.156,0.352,0.352c0,0.191-0.157,0.347-0.352,0.347
			c-0.191,0-0.348-0.156-0.348-0.347C56.859,34.883,57.016,34.727,57.207,34.727z M57.207,34.391c-0.379,0-0.687,0.309-0.687,0.688
			c0,0.375,0.308,0.683,0.687,0.683c0.383,0,0.691-0.308,0.691-0.683C57.898,34.7,57.59,34.391,57.207,34.391z"/>
		<path fill="#F3D723" d="M55.992,40.348c0.192,0,0.348,0.156,0.348,0.348c0,0.191-0.156,0.347-0.348,0.347
			c-0.195,0-0.351-0.156-0.351-0.347C55.641,40.503,55.797,40.348,55.992,40.348z M55.992,40.012c-0.383,0-0.691,0.305-0.691,0.684
			c0,0.379,0.308,0.683,0.691,0.683c0.379,0,0.688-0.304,0.688-0.683C56.68,40.316,56.371,40.012,55.992,40.012z"/>
		<path fill="#F3D723" d="M58.871,42.551c0.191,0,0.352,0.157,0.352,0.348c0,0.191-0.161,0.348-0.352,0.348
			c-0.195,0-0.351-0.157-0.351-0.348C58.52,42.708,58.676,42.551,58.871,42.551z M58.871,42.215c-0.383,0-0.687,0.305-0.687,0.684
			c0,0.379,0.304,0.684,0.687,0.684c0.379,0,0.688-0.305,0.688-0.684C59.559,42.52,59.25,42.215,58.871,42.215z"/>
		<path fill="#F3D723" d="M54.109,43.43c0.192,0,0.348,0.156,0.348,0.352c0,0.191-0.156,0.347-0.348,0.347
			c-0.195,0-0.351-0.156-0.351-0.347C53.758,43.585,53.914,43.43,54.109,43.43z M54.109,43.094c-0.382,0-0.691,0.309-0.691,0.688
			s0.309,0.683,0.691,0.683c0.379,0,0.688-0.304,0.688-0.683S54.488,43.094,54.109,43.094z"/>
		<path fill="#F3D723" d="M65.184,40.898c0.195,0,0.351,0.156,0.351,0.348c0,0.191-0.156,0.347-0.351,0.347
			c-0.196,0-0.352-0.156-0.352-0.347C64.832,41.055,64.988,40.898,65.184,40.898z M65.184,40.563c-0.383,0-0.688,0.305-0.688,0.684
			s0.305,0.683,0.688,0.683c0.378,0,0.687-0.304,0.687-0.683S65.562,40.563,65.184,40.563z"/>
		<path fill="#F3D723" d="M69.668,40.954c0.195,0,0.352,0.156,0.352,0.347c0,0.192-0.157,0.348-0.352,0.348
			s-0.352-0.156-0.352-0.348C69.316,41.11,69.473,40.954,69.668,40.954z M69.668,40.618c-0.379,0-0.688,0.304-0.688,0.683
			s0.309,0.684,0.688,0.684c0.383,0,0.687-0.305,0.687-0.684S70.051,40.618,69.668,40.618z"/>
		<path fill="#F3D723" d="M66.621,44.477c0.195,0,0.352,0.156,0.352,0.352c0,0.191-0.157,0.347-0.352,0.347
			c-0.191,0-0.348-0.156-0.348-0.347C66.273,44.633,66.43,44.477,66.621,44.477z M66.621,44.141c-0.379,0-0.687,0.309-0.687,0.688
			s0.308,0.683,0.687,0.683c0.383,0,0.691-0.304,0.691-0.683S67.004,44.141,66.621,44.141z"/>
		<path fill="#F3D723" d="M71.219,45.36c0.195,0,0.351,0.156,0.351,0.348c0,0.195-0.156,0.351-0.351,0.351
			c-0.196,0-0.352-0.156-0.352-0.351C70.867,45.516,71.023,45.36,71.219,45.36z M71.219,45.023c-0.379,0-0.688,0.305-0.688,0.684
			c0,0.378,0.309,0.683,0.688,0.683c0.379,0,0.687-0.305,0.687-0.683C71.906,45.329,71.598,45.023,71.219,45.023z"/>
		<path fill="#F3D723" d="M77.145,45.305c0.195,0,0.351,0.156,0.351,0.348c0,0.195-0.156,0.348-0.351,0.348
			c-0.196,0-0.352-0.153-0.352-0.348C76.793,45.46,76.949,45.305,77.145,45.305z M77.145,44.969c-0.383,0-0.688,0.305-0.688,0.684
			c0,0.379,0.305,0.683,0.688,0.683c0.378,0,0.687-0.304,0.687-0.683C77.832,45.273,77.523,44.969,77.145,44.969z"/>
		<path fill="#F3D723" d="M53.941,52.575c0.196,0,0.352,0.156,0.352,0.351c0,0.192-0.156,0.348-0.352,0.348
			c-0.195,0-0.351-0.156-0.351-0.348C53.59,52.73,53.746,52.575,53.941,52.575z M53.941,52.239c-0.379,0-0.687,0.308-0.687,0.687
			c0,0.375,0.308,0.684,0.687,0.684c0.383,0,0.688-0.309,0.688-0.684C54.629,52.547,54.324,52.239,53.941,52.239z"/>
		<path fill="#F3D723" d="M51.672,55.77c0.195,0,0.351,0.156,0.351,0.348c0,0.195-0.156,0.351-0.351,0.351
			c-0.195,0-0.352-0.156-0.352-0.351C51.32,55.926,51.477,55.77,51.672,55.77z M51.672,55.434c-0.383,0-0.688,0.305-0.688,0.684
			s0.305,0.687,0.688,0.687c0.379,0,0.687-0.308,0.687-0.687S52.051,55.434,51.672,55.434z"/>
		<path fill="#F3D723" d="M53.887,59.297c0.195,0,0.351,0.157,0.351,0.348c0,0.191-0.156,0.348-0.351,0.348
			c-0.196,0-0.352-0.156-0.352-0.348C53.535,59.454,53.691,59.297,53.887,59.297z M53.887,58.961c-0.383,0-0.688,0.305-0.688,0.684
			s0.305,0.685,0.688,0.685c0.379,0,0.687-0.306,0.687-0.685S54.266,58.961,53.887,58.961z"/>
		<path fill="#F3D723" d="M50.953,60.285c0.192,0,0.348,0.156,0.348,0.352c0,0.192-0.156,0.348-0.348,0.348
			c-0.195,0-0.351-0.155-0.351-0.348C50.602,60.441,50.758,60.285,50.953,60.285z M50.953,59.954c-0.383,0-0.691,0.304-0.691,0.683
			s0.308,0.684,0.691,0.684c0.379,0,0.688-0.305,0.688-0.684S51.332,59.954,50.953,59.954z"/>
		<path fill="#F3D723" d="M60.309,61.113c0.195,0,0.351,0.156,0.351,0.348c0,0.195-0.156,0.352-0.351,0.352
			c-0.192,0-0.348-0.156-0.348-0.352C59.961,61.27,60.117,61.113,60.309,61.113z M60.309,60.777c-0.379,0-0.688,0.306-0.688,0.684
			c0,0.379,0.309,0.688,0.688,0.688c0.382,0,0.687-0.309,0.687-0.688C60.996,61.083,60.691,60.777,60.309,60.777z"/>
		<path fill="#F3D723" d="M65.238,61.883c0.196,0,0.352,0.157,0.352,0.352c0,0.191-0.156,0.349-0.352,0.349
			c-0.195,0-0.351-0.157-0.351-0.349C64.887,62.04,65.043,61.883,65.238,61.883z M65.238,61.551c-0.379,0-0.687,0.305-0.687,0.684
			s0.308,0.684,0.687,0.684c0.379,0,0.688-0.305,0.688-0.684S65.617,61.551,65.238,61.551z"/>
		<path fill="#F3D723" d="M66.734,55.715c0.192,0,0.352,0.157,0.352,0.348c0,0.195-0.16,0.352-0.352,0.352
			c-0.195,0-0.351-0.157-0.351-0.352C66.383,55.872,66.539,55.715,66.734,55.715z M66.734,55.378c-0.382,0-0.687,0.305-0.687,0.684
			s0.305,0.688,0.687,0.688c0.379,0,0.688-0.309,0.688-0.688S67.113,55.378,66.734,55.378z"/>
		<path fill="#F3D723" d="M70.996,54.395c0.195,0,0.352,0.152,0.352,0.348c0,0.191-0.157,0.347-0.352,0.347
			c-0.191,0-0.348-0.156-0.348-0.347C70.648,54.547,70.805,54.395,70.996,54.395z M70.996,54.059c-0.379,0-0.687,0.305-0.687,0.684
			s0.308,0.683,0.687,0.683c0.383,0,0.688-0.304,0.688-0.683S71.379,54.059,70.996,54.059z"/>
		<path fill="#F3D723" d="M75.316,49.27c0.196,0,0.352,0.156,0.352,0.348c0,0.195-0.156,0.351-0.352,0.351
			c-0.195,0-0.351-0.156-0.351-0.351C74.965,49.426,75.121,49.27,75.316,49.27z M75.316,48.934c-0.378,0-0.687,0.305-0.687,0.684
			s0.309,0.687,0.687,0.687c0.383,0,0.688-0.308,0.688-0.687S75.699,48.934,75.316,48.934z"/>
		<path fill="#F3D723" d="M52.227,65.684c0.191,0,0.347,0.156,0.347,0.352c0,0.191-0.156,0.348-0.347,0.348
			c-0.196,0-0.352-0.156-0.352-0.348C51.875,65.84,52.031,65.684,52.227,65.684z M52.227,65.352c-0.383,0-0.692,0.305-0.692,0.684
			c0,0.38,0.309,0.684,0.692,0.684c0.378,0,0.687-0.304,0.687-0.684C52.914,65.656,52.605,65.352,52.227,65.352z"/>
		<path fill="#F3D723" d="M51.008,67.504c0.191,0,0.351,0.156,0.351,0.348c0,0.195-0.16,0.348-0.351,0.348
			c-0.196,0-0.352-0.152-0.352-0.348C50.656,67.66,50.812,67.504,51.008,67.504z M51.008,67.168c-0.383,0-0.688,0.305-0.688,0.684
			s0.305,0.684,0.688,0.684c0.379,0,0.687-0.305,0.687-0.684S51.387,67.168,51.008,67.168z"/>
		<path fill="#F3D723" d="M55.66,64.527c0.192,0,0.348,0.156,0.348,0.352c0,0.191-0.156,0.348-0.348,0.348
			c-0.195,0-0.351-0.156-0.351-0.348C55.309,64.684,55.465,64.527,55.66,64.527z M55.66,64.191c-0.383,0-0.691,0.31-0.691,0.688
			c0,0.379,0.308,0.684,0.691,0.684c0.379,0,0.688-0.305,0.688-0.684C56.348,64.501,56.039,64.191,55.66,64.191z"/>
		<path fill="#F3D723" d="M56.156,67.945c0.196,0,0.352,0.156,0.352,0.348s-0.156,0.348-0.352,0.348
			c-0.195,0-0.351-0.156-0.351-0.348S55.961,67.945,56.156,67.945z M56.156,67.609c-0.379,0-0.687,0.306-0.687,0.684
			c0,0.379,0.308,0.684,0.687,0.684c0.383,0,0.688-0.305,0.688-0.684C56.844,67.915,56.539,67.609,56.156,67.609z"/>
		<path fill="#F3D723" d="M60.531,64.583c0.196,0,0.352,0.155,0.352,0.351c0,0.192-0.156,0.348-0.352,0.348
			c-0.195,0-0.351-0.155-0.351-0.348C60.18,64.738,60.336,64.583,60.531,64.583z M60.531,64.251c-0.379,0-0.687,0.304-0.687,0.683
			s0.308,0.684,0.687,0.684c0.383,0,0.688-0.305,0.688-0.684S60.914,64.251,60.531,64.251z"/>
		<path fill="#F3D723" d="M62.25,67.668c0.191,0,0.348,0.156,0.348,0.348c0,0.195-0.157,0.352-0.348,0.352
			c-0.195,0-0.352-0.156-0.352-0.352C61.898,67.824,62.055,67.668,62.25,67.668z M62.25,67.333c-0.383,0-0.691,0.304-0.691,0.683
			s0.308,0.688,0.691,0.688c0.379,0,0.688-0.31,0.688-0.688S62.629,67.333,62.25,67.333z"/>
		<path fill="#F3D723" d="M70.5,61.941c0.191,0,0.352,0.152,0.352,0.349c0,0.19-0.161,0.347-0.352,0.347
			c-0.195,0-0.352-0.156-0.352-0.347C70.148,62.094,70.305,61.941,70.5,61.941z M70.5,61.605c-0.383,0-0.688,0.305-0.688,0.685
			c0,0.378,0.305,0.683,0.688,0.683c0.379,0,0.688-0.305,0.688-0.683C71.188,61.91,70.879,61.605,70.5,61.605z"/>
		<path fill="#F3D723" d="M76.258,58.633c0.195,0,0.351,0.157,0.351,0.352c0,0.191-0.156,0.349-0.351,0.349
			c-0.196,0-0.352-0.157-0.352-0.349C75.906,58.79,76.062,58.633,76.258,58.633z M76.258,58.301c-0.379,0-0.688,0.305-0.688,0.684
			s0.309,0.684,0.688,0.684c0.383,0,0.687-0.305,0.687-0.684S76.641,58.301,76.258,58.301z"/>
		<path fill="#F3D723" d="M76.59,55c0.195,0,0.351,0.156,0.351,0.347c0,0.192-0.156,0.348-0.351,0.348
			c-0.195,0-0.352-0.156-0.352-0.348C76.238,55.157,76.395,55,76.59,55z M76.59,54.665c-0.379,0-0.688,0.304-0.688,0.683
			s0.309,0.684,0.688,0.684c0.383,0,0.687-0.305,0.687-0.684S76.973,54.665,76.59,54.665z"/>
		<path fill="#F3D723" d="M80.133,55.934c0.195,0,0.351,0.156,0.351,0.352c0,0.191-0.156,0.347-0.351,0.347
			c-0.192,0-0.348-0.156-0.348-0.347C79.785,56.09,79.941,55.934,80.133,55.934z M80.133,55.602c-0.379,0-0.688,0.305-0.688,0.684
			s0.309,0.683,0.688,0.683c0.383,0,0.691-0.304,0.691-0.683S80.516,55.602,80.133,55.602z"/>
		<path fill="#F3D723" d="M80.246,61.941c0.192,0,0.352,0.152,0.352,0.349c0,0.19-0.16,0.347-0.352,0.347
			c-0.195,0-0.351-0.156-0.351-0.347C79.895,62.094,80.051,61.941,80.246,61.941z M80.246,61.605c-0.383,0-0.687,0.305-0.687,0.685
			c0,0.378,0.304,0.683,0.687,0.683c0.379,0,0.688-0.305,0.688-0.683C80.934,61.91,80.625,61.605,80.246,61.605z"/>
		<path fill="#F3D723" d="M80.078,48.5c0.195,0,0.352,0.156,0.352,0.347c0,0.192-0.157,0.348-0.352,0.348
			c-0.191,0-0.351-0.156-0.351-0.348C79.727,48.657,79.887,48.5,80.078,48.5z M80.078,48.165c-0.379,0-0.687,0.304-0.687,0.683
			s0.308,0.684,0.687,0.684c0.383,0,0.688-0.305,0.688-0.684S80.461,48.165,80.078,48.165z"/>
		<path fill="#F3D723" d="M80.133,42.551c0.195,0,0.351,0.157,0.351,0.348c0,0.191-0.156,0.348-0.351,0.348
			c-0.192,0-0.348-0.157-0.348-0.348C79.785,42.708,79.941,42.551,80.133,42.551z M80.133,42.215c-0.379,0-0.688,0.305-0.688,0.684
			c0,0.379,0.309,0.684,0.688,0.684c0.383,0,0.691-0.305,0.691-0.684C80.824,42.52,80.516,42.215,80.133,42.215z"/>
		<path fill="#F3D723" d="M84.066,41.45c0.196,0,0.352,0.156,0.352,0.347c0,0.192-0.156,0.348-0.352,0.348
			c-0.195,0-0.351-0.156-0.351-0.348C83.715,41.605,83.871,41.45,84.066,41.45z M84.066,41.114c-0.382,0-0.687,0.304-0.687,0.683
			c0,0.379,0.305,0.684,0.687,0.684c0.379,0,0.688-0.305,0.688-0.684C84.754,41.417,84.445,41.114,84.066,41.114z"/>
		<path fill="#F3D723" d="M88.328,43.708c0.195,0,0.352,0.156,0.352,0.347c0,0.196-0.157,0.348-0.352,0.348
			c-0.191,0-0.348-0.152-0.348-0.348C87.98,43.864,88.137,43.708,88.328,43.708z M88.328,43.372c-0.379,0-0.687,0.304-0.687,0.683
			s0.308,0.684,0.687,0.684c0.383,0,0.692-0.305,0.692-0.684S88.711,43.372,88.328,43.372z"/>
		<path fill="#F3D723" d="M84.73,44.973c0.196,0,0.352,0.156,0.352,0.348c0,0.195-0.156,0.351-0.352,0.351
			c-0.195,0-0.351-0.156-0.351-0.351C84.379,45.128,84.535,44.973,84.73,44.973z M84.73,44.637c-0.378,0-0.687,0.309-0.687,0.684
			c0,0.379,0.309,0.687,0.687,0.687c0.379,0,0.688-0.308,0.688-0.687C85.418,44.946,85.109,44.637,84.73,44.637z"/>
		<path fill="#F3D723" d="M86.781,50.042c0.192,0,0.348,0.153,0.348,0.348c0,0.192-0.156,0.348-0.348,0.348
			c-0.195,0-0.351-0.156-0.351-0.348C86.43,50.196,86.586,50.042,86.781,50.042z M86.781,49.708c-0.383,0-0.691,0.304-0.691,0.683
			s0.308,0.684,0.691,0.684c0.379,0,0.688-0.305,0.688-0.684S87.16,49.708,86.781,49.708z"/>
		<path fill="#F3D723" d="M86.281,60.285c0.196,0,0.352,0.156,0.352,0.352c0,0.192-0.156,0.348-0.352,0.348
			c-0.195,0-0.351-0.155-0.351-0.348C85.93,60.441,86.086,60.285,86.281,60.285z M86.281,59.954c-0.383,0-0.687,0.304-0.687,0.683
			s0.304,0.684,0.687,0.684c0.379,0,0.688-0.305,0.688-0.684S86.66,59.954,86.281,59.954z"/>
		<path fill="#F3D723" d="M84.785,67.449c0.195,0,0.352,0.156,0.352,0.348s-0.157,0.348-0.352,0.348
			c-0.191,0-0.351-0.156-0.351-0.348S84.594,67.449,84.785,67.449z M84.785,67.113c-0.379,0-0.687,0.305-0.687,0.684
			s0.308,0.684,0.687,0.684c0.383,0,0.688-0.305,0.688-0.684S85.168,67.113,84.785,67.113z"/>
		<path fill="#F3D723" d="M78.309,66.18c0.191,0,0.347,0.156,0.347,0.352c0,0.191-0.156,0.348-0.347,0.348
			c-0.196,0-0.352-0.156-0.352-0.348C77.957,66.336,78.113,66.18,78.309,66.18z M78.309,65.844c-0.383,0-0.692,0.309-0.692,0.688
			s0.309,0.684,0.692,0.684c0.379,0,0.687-0.305,0.687-0.684S78.688,65.844,78.309,65.844z"/>
		<path fill="#F3D723" d="M75.426,64.309c0.195,0,0.351,0.156,0.351,0.348c0,0.195-0.156,0.352-0.351,0.352
			c-0.192,0-0.348-0.156-0.348-0.352C75.078,64.465,75.234,64.309,75.426,64.309z M75.426,63.973c-0.379,0-0.688,0.305-0.688,0.684
			s0.309,0.684,0.688,0.684c0.383,0,0.691-0.305,0.691-0.684S75.809,63.973,75.426,63.973z"/>
		<path fill="#F3D723" d="M73.82,67.449c0.196,0,0.352,0.156,0.352,0.348s-0.156,0.348-0.352,0.348
			c-0.191,0-0.347-0.156-0.347-0.348S73.629,67.449,73.82,67.449z M73.82,67.113c-0.379,0-0.687,0.305-0.687,0.684
			s0.308,0.684,0.687,0.684c0.383,0,0.688-0.305,0.688-0.684S74.203,67.113,73.82,67.113z"/>
		<path fill="#F3D723" d="M76.426,70.422c0.191,0,0.347,0.157,0.347,0.352c0,0.191-0.156,0.349-0.347,0.349
			c-0.196,0-0.352-0.157-0.352-0.349C76.074,70.579,76.23,70.422,76.426,70.422z M76.426,70.086c-0.383,0-0.692,0.309-0.692,0.688
			c0,0.375,0.309,0.685,0.692,0.685c0.379,0,0.687-0.31,0.687-0.685C77.113,70.395,76.805,70.086,76.426,70.086z"/>
		<path fill="#F3D723" d="M79.746,69.43c0.195,0,0.352,0.156,0.352,0.352c0,0.191-0.157,0.348-0.352,0.348
			c-0.195,0-0.351-0.156-0.351-0.348C79.395,69.586,79.551,69.43,79.746,69.43z M79.746,69.094c-0.379,0-0.687,0.309-0.687,0.688
			s0.308,0.684,0.687,0.684c0.383,0,0.688-0.305,0.688-0.684S80.129,69.094,79.746,69.094z"/>
		<path fill="#F3D723" d="M83.734,73.836c0.196,0,0.352,0.156,0.352,0.352c0,0.191-0.156,0.348-0.352,0.348
			c-0.195,0-0.351-0.156-0.351-0.348C83.383,73.992,83.539,73.836,83.734,73.836z M83.734,73.504c-0.382,0-0.687,0.305-0.687,0.684
			s0.305,0.685,0.687,0.685c0.379,0,0.688-0.306,0.688-0.685S84.113,73.504,83.734,73.504z"/>
		<path fill="#F3D723" d="M86.336,76.48c0.195,0,0.352,0.156,0.352,0.353c0,0.19-0.157,0.347-0.352,0.347s-0.352-0.156-0.352-0.347
			C85.984,76.637,86.141,76.48,86.336,76.48z M86.336,76.145c-0.379,0-0.688,0.31-0.688,0.688c0,0.378,0.309,0.683,0.688,0.683
			c0.383,0,0.687-0.305,0.687-0.683C87.023,76.454,86.719,76.145,86.336,76.145z"/>
		<path fill="#F3D723" d="M80.133,74.997c0.195,0,0.351,0.155,0.351,0.347s-0.156,0.348-0.351,0.348
			c-0.192,0-0.348-0.156-0.348-0.348S79.941,74.997,80.133,74.997z M80.133,74.66c-0.379,0-0.688,0.305-0.688,0.684
			s0.309,0.684,0.688,0.684c0.383,0,0.691-0.305,0.691-0.684S80.516,74.66,80.133,74.66z"/>
		<path fill="#F3D723" d="M74.266,74.997c0.191,0,0.351,0.155,0.351,0.347s-0.16,0.348-0.351,0.348
			c-0.196,0-0.352-0.156-0.352-0.348S74.07,74.997,74.266,74.997z M74.266,74.66c-0.383,0-0.688,0.305-0.688,0.684
			s0.305,0.684,0.688,0.684c0.379,0,0.687-0.305,0.687-0.684S74.645,74.66,74.266,74.66z"/>
		<path fill="#F3D723" d="M72.602,77.859c0.195,0,0.351,0.156,0.351,0.349c0,0.194-0.156,0.351-0.351,0.351
			c-0.192,0-0.348-0.156-0.348-0.351C72.254,78.016,72.41,77.859,72.602,77.859z M72.602,77.523c-0.379,0-0.688,0.306-0.688,0.685
			c0,0.378,0.309,0.683,0.688,0.683c0.382,0,0.691-0.305,0.691-0.683C73.293,77.829,72.984,77.523,72.602,77.523z"/>
		<path fill="#F3D723" d="M54.828,73.344c0.195,0,0.352,0.153,0.352,0.348c0,0.191-0.157,0.349-0.352,0.349
			c-0.195,0-0.351-0.157-0.351-0.349C54.477,73.497,54.633,73.344,54.828,73.344z M54.828,73.008c-0.383,0-0.687,0.305-0.687,0.684
			s0.304,0.685,0.687,0.685c0.379,0,0.688-0.306,0.688-0.685S55.207,73.008,54.828,73.008z"/>
		<path fill="#F3D723" d="M51.008,73.285c0.191,0,0.351,0.156,0.351,0.352c0,0.192-0.16,0.348-0.351,0.348
			c-0.196,0-0.352-0.155-0.352-0.348C50.656,73.441,50.812,73.285,51.008,73.285z M51.008,72.954c-0.383,0-0.688,0.304-0.688,0.683
			s0.305,0.684,0.688,0.684c0.379,0,0.687-0.305,0.687-0.684S51.387,72.954,51.008,72.954z"/>
		<path fill="#F3D723" d="M51.504,78.742c0.195,0,0.351,0.152,0.351,0.348c0,0.191-0.156,0.348-0.351,0.348
			c-0.192,0-0.348-0.156-0.348-0.348C51.156,78.895,51.312,78.742,51.504,78.742z M51.504,78.406c-0.379,0-0.688,0.305-0.688,0.684
			s0.309,0.684,0.688,0.684c0.383,0,0.687-0.305,0.687-0.684S51.887,78.406,51.504,78.406z"/>
		<path fill="#F3D723" d="M57.098,80.172c0.195,0,0.351,0.157,0.351,0.352c0,0.191-0.156,0.349-0.351,0.349
			c-0.196,0-0.352-0.157-0.352-0.349C56.746,80.329,56.902,80.172,57.098,80.172z M57.098,79.836c-0.379,0-0.688,0.309-0.688,0.688
			c0,0.375,0.309,0.685,0.688,0.685c0.382,0,0.687-0.31,0.687-0.685C57.785,80.145,57.48,79.836,57.098,79.836z"/>
		<path fill="#F3D723" d="M59.535,77.309c0.195,0,0.352,0.156,0.352,0.348c0,0.195-0.157,0.352-0.352,0.352
			c-0.195,0-0.351-0.156-0.351-0.352C59.184,77.465,59.34,77.309,59.535,77.309z M59.535,76.973c-0.383,0-0.687,0.305-0.687,0.684
			s0.304,0.684,0.687,0.684c0.379,0,0.688-0.305,0.688-0.684S59.914,76.973,59.535,76.973z"/>
		<path fill="#F3D723" d="M63.355,78.465c0.196,0,0.352,0.157,0.352,0.348c0,0.195-0.156,0.353-0.352,0.353
			c-0.195,0-0.351-0.157-0.351-0.353C63.004,78.622,63.16,78.465,63.355,78.465z M63.355,78.129c-0.378,0-0.687,0.305-0.687,0.684
			s0.309,0.688,0.687,0.688c0.379,0,0.688-0.31,0.688-0.688S63.734,78.129,63.355,78.129z"/>
		<path fill="#F3D723" d="M63.91,82.102c0.192,0,0.352,0.156,0.352,0.348c0,0.195-0.16,0.348-0.352,0.348
			c-0.195,0-0.351-0.152-0.351-0.348C63.559,82.258,63.715,82.102,63.91,82.102z M63.91,81.766c-0.383,0-0.687,0.305-0.687,0.684
			c0,0.38,0.304,0.684,0.687,0.684c0.379,0,0.688-0.304,0.688-0.684C64.598,82.07,64.289,81.766,63.91,81.766z"/>
		<path fill="#F3D723" d="M60.145,82.102c0.191,0,0.351,0.156,0.351,0.348c0,0.195-0.16,0.348-0.351,0.348
			c-0.196,0-0.352-0.152-0.352-0.348C59.793,82.258,59.949,82.102,60.145,82.102z M60.145,81.766c-0.383,0-0.688,0.305-0.688,0.684
			c0,0.38,0.305,0.684,0.688,0.684c0.378,0,0.687-0.304,0.687-0.684C60.832,82.07,60.523,81.766,60.145,81.766z"/>
		<path fill="#F3D723" d="M69.336,81.273c0.195,0,0.352,0.156,0.352,0.353c0,0.19-0.157,0.347-0.352,0.347s-0.352-0.156-0.352-0.347
			C68.984,81.43,69.141,81.273,69.336,81.273z M69.336,80.938c-0.379,0-0.688,0.31-0.688,0.688c0,0.378,0.309,0.683,0.688,0.683
			c0.383,0,0.687-0.305,0.687-0.683C70.023,81.247,69.719,80.938,69.336,80.938z"/>
		<path fill="#F3D723" d="M75.648,80.945c0.196,0,0.352,0.156,0.352,0.348s-0.156,0.348-0.352,0.348
			c-0.195,0-0.351-0.156-0.351-0.348S75.453,80.945,75.648,80.945z M75.648,80.609c-0.378,0-0.687,0.306-0.687,0.684
			c0,0.379,0.309,0.684,0.687,0.684c0.383,0,0.688-0.305,0.688-0.684C76.336,80.915,76.031,80.609,75.648,80.609z"/>
		<path fill="#F3D723" d="M50.953,85.242c0.192,0,0.348,0.152,0.348,0.348c0,0.191-0.156,0.348-0.348,0.348
			c-0.195,0-0.351-0.156-0.351-0.348C50.602,85.395,50.758,85.242,50.953,85.242z M50.953,84.906c-0.383,0-0.691,0.305-0.691,0.684
			s0.308,0.684,0.691,0.684c0.379,0,0.688-0.305,0.688-0.684S51.332,84.906,50.953,84.906z"/>
		<path fill="#F3D723" d="M54.273,84.691c0.196,0,0.352,0.152,0.352,0.349c0,0.19-0.156,0.347-0.352,0.347
			c-0.195,0-0.351-0.156-0.351-0.347C53.922,84.844,54.078,84.691,54.273,84.691z M54.273,84.355c-0.378,0-0.687,0.305-0.687,0.685
			c0,0.378,0.309,0.683,0.687,0.683c0.383,0,0.688-0.305,0.688-0.683C54.961,84.66,54.656,84.355,54.273,84.355z"/>
		<path fill="#F3D723" d="M61.582,85.297c0.195,0,0.352,0.157,0.352,0.348c0,0.191-0.157,0.348-0.352,0.348
			c-0.191,0-0.348-0.156-0.348-0.348C61.234,85.454,61.391,85.297,61.582,85.297z M61.582,84.961c-0.379,0-0.687,0.305-0.687,0.684
			s0.308,0.685,0.687,0.685c0.383,0,0.691-0.306,0.691-0.685S61.965,84.961,61.582,84.961z"/>
		<path fill="#F3D723" d="M66.621,87.059c0.195,0,0.352,0.156,0.352,0.348c0,0.195-0.157,0.352-0.352,0.352
			c-0.191,0-0.348-0.156-0.348-0.352C66.273,87.215,66.43,87.059,66.621,87.059z M66.621,86.723c-0.379,0-0.687,0.305-0.687,0.684
			s0.308,0.684,0.687,0.684c0.383,0,0.691-0.305,0.691-0.684S67.004,86.723,66.621,86.723z"/>
		<path fill="#F3D723" d="M60.367,87.059c0.192,0,0.348,0.156,0.348,0.348c0,0.195-0.156,0.352-0.348,0.352
			c-0.195,0-0.351-0.156-0.351-0.352C60.016,87.215,60.172,87.059,60.367,87.059z M60.367,86.723c-0.383,0-0.691,0.305-0.691,0.684
			s0.308,0.684,0.691,0.684c0.379,0,0.688-0.305,0.688-0.684S60.746,86.723,60.367,86.723z"/>
		<path fill="#F3D723" d="M60.586,89.704c0.195,0,0.352,0.155,0.352,0.347c0,0.196-0.157,0.348-0.352,0.348
			c-0.191,0-0.352-0.151-0.352-0.348C60.234,89.859,60.395,89.704,60.586,89.704z M60.586,89.367c-0.379,0-0.688,0.305-0.688,0.684
			s0.309,0.684,0.688,0.684c0.383,0,0.687-0.305,0.687-0.684S60.969,89.367,60.586,89.367z"/>
		<path fill="#F3D723" d="M65.07,91.465c0.196,0,0.352,0.157,0.352,0.348c0,0.195-0.156,0.353-0.352,0.353
			c-0.191,0-0.347-0.157-0.347-0.353C64.723,91.622,64.879,91.465,65.07,91.465z M65.07,91.129c-0.379,0-0.687,0.305-0.687,0.684
			s0.308,0.688,0.687,0.688c0.383,0,0.692-0.31,0.692-0.688S65.453,91.129,65.07,91.129z"/>
		<path fill="#F3D723" d="M68.449,90.363c0.196,0,0.352,0.156,0.352,0.348c0,0.195-0.156,0.352-0.352,0.352
			c-0.191,0-0.351-0.156-0.351-0.352C68.098,90.52,68.258,90.363,68.449,90.363z M68.449,90.027c-0.379,0-0.687,0.306-0.687,0.684
			c0,0.379,0.308,0.688,0.687,0.688c0.383,0,0.688-0.309,0.688-0.688C69.137,90.333,68.832,90.027,68.449,90.027z"/>
		<path fill="#F3D723" d="M73.211,87.773c0.195,0,0.351,0.156,0.351,0.353c0,0.19-0.156,0.347-0.351,0.347
			c-0.191,0-0.348-0.156-0.348-0.347C72.863,87.93,73.02,87.773,73.211,87.773z M73.211,87.438c-0.379,0-0.688,0.31-0.688,0.688
			c0,0.378,0.309,0.683,0.688,0.683c0.383,0,0.691-0.305,0.691-0.683C73.902,87.747,73.594,87.438,73.211,87.438z"/>
		<path fill="#F3D723" d="M69.777,85.406c0.196,0,0.352,0.156,0.352,0.348c0,0.195-0.156,0.352-0.352,0.352
			c-0.191,0-0.347-0.156-0.347-0.352C69.43,85.563,69.586,85.406,69.777,85.406z M69.777,85.07c-0.379,0-0.687,0.306-0.687,0.684
			c0,0.379,0.308,0.684,0.687,0.684c0.383,0,0.692-0.305,0.692-0.684C70.469,85.376,70.16,85.07,69.777,85.07z"/>
		<path fill="#F3D723" d="M72.547,94.273c0.195,0,0.351,0.156,0.351,0.353c0,0.19-0.156,0.347-0.351,0.347
			c-0.192,0-0.352-0.156-0.352-0.347C72.195,94.43,72.355,94.273,72.547,94.273z M72.547,93.938c-0.379,0-0.688,0.31-0.688,0.688
			c0,0.378,0.309,0.683,0.688,0.683c0.383,0,0.687-0.305,0.687-0.683C73.234,94.247,72.93,93.938,72.547,93.938z"/>
		<path fill="#F3D723" d="M66.621,95.762c0.195,0,0.352,0.156,0.352,0.348c0,0.195-0.157,0.352-0.352,0.352
			c-0.191,0-0.348-0.156-0.348-0.352C66.273,95.918,66.43,95.762,66.621,95.762z M66.621,95.426c-0.379,0-0.687,0.305-0.687,0.684
			s0.308,0.688,0.687,0.688c0.383,0,0.691-0.309,0.691-0.688S67.004,95.426,66.621,95.426z"/>
		<path fill="#F3D723" d="M54.605,89.758c0.196,0,0.352,0.157,0.352,0.348c0,0.195-0.156,0.353-0.352,0.353
			c-0.191,0-0.351-0.157-0.351-0.353C54.254,89.915,54.414,89.758,54.605,89.758z M54.605,89.422c-0.378,0-0.687,0.305-0.687,0.684
			s0.309,0.685,0.687,0.685c0.383,0,0.688-0.306,0.688-0.685S54.988,89.422,54.605,89.422z"/>
	</g>
	<path d="M9.852,96.133v-2.261c0,0,2.753-1.106,4.164-0.935c2.843,0.344,4.269,2.117,4.668,4.164c0.531,2.734-1.801,5.457-3.7,7.5
		c-1.054,1.137-3.195,3.125-3.195,3.125h7.109v2.152H9.277v-2.621c0,0,3.285-2.98,4.559-4.559c1.176-1.452,2.723-3.219,2.406-5.059
		c-0.207-1.187-0.527-2.348-2.551-2.551C12.371,94.958,9.852,96.133,9.852,96.133z"/>
	<path d="M25.188,95.227c2.578-0.086,3.132,3.617,3.124,6.031c-0.011,3.766-0.921,6.848-2.968,6.809
		c-2.629-0.043-3.309-4.026-3.258-6.754C22.133,98.829,22.871,95.305,25.188,95.227z M25.438,93.004
		c-0.075,0-0.149,0.004-0.223,0.008c-4.285,0.102-5.66,4.797-5.746,8.11c-0.09,3.632,1.176,8.944,6.035,9.007
		c3.789,0.047,5.469-4.059,5.492-9.078C31.012,97.879,30.02,93.043,25.438,93.004z"/>
	<g>
		<defs>
			<rect id="SVGID_1_" x="186.805" y="3.688" width="19.595" height="108.555"/>
		</defs>
		<clipPath id="SVGID_2_">
			<use xlink:href="#SVGID_1_"  overflow="visible"/>
		</clipPath>
		<g clip-path="url(#SVGID_2_)">
			<defs>
				<rect id="SVGID_3_" x="186" y="1" width="18" height="115"/>
			</defs>
			<clipPath id="SVGID_4_">
				<use xlink:href="#SVGID_3_"  overflow="visible"/>
			</clipPath>
			<path clip-path="url(#SVGID_4_)" fill="#E6E6E6" d="M195.98,134.099c2.043-0.044,3.586,1.437,3.586,1.437l-0.398,1.035
				c0,0-0.977-1.566-3.18-1.531c-2.785,0.043-3.434,2.719-3.434,2.719l6.184,0.009l-0.367,0.886h-5.984c0,0-0.004,0.2,0,0.336
				c0,0.168-0.02,0.332-0.02,0.332h5.719l-0.328,0.941h-5.184c0,0,0.906,2.574,3.434,2.605c2.371,0.028,3.285-1.668,3.285-1.668
				l-0.031,1.48c0,0-1.547,1.234-3.367,1.13c-3.383-0.2-4.309-3.548-4.309-3.548l-1.563-0.02l0.422-0.961h0.988
				c0,0-0.023-0.105-0.016-0.261c0.004-0.149,0-0.349,0-0.349l-1.414-0.02l0.461-0.895l1.129,0.009
				C191.574,137.642,192.539,134.168,195.98,134.099z M195.988,127.099c1.129-0.028,1.996,0.922,1.996,0.922l-0.227,0.647
				c0,0-0.535-1-1.75-0.979c-1.535,0.026-1.902,1.741-1.902,1.741l3.406,0.012l-0.207,0.563h-3.293c0,0,0,0.117,0,0.207
				c0.004,0.105-0.008,0.228-0.008,0.228h3.16l-0.195,0.593h-2.844c0,0,0.492,1.637,1.883,1.657
				c1.304,0.015,1.816-1.047,1.816-1.047l-0.027,0.933c0,0-0.844,0.789-1.844,0.723c-1.867-0.125-2.383-2.266-2.383-2.266
				l-0.855-0.011l0.234-0.61h0.535c0,0-0.004-0.078,0-0.18c0.004-0.094,0-0.207,0-0.207l-0.777-0.02l0.242-0.574l0.621,0.012
				C193.559,129.359,194.094,127.146,195.988,127.099z M188.715,111.41c0.242-0.008,0.293,0.34,0.293,0.567
				c0,0.351-0.082,0.64-0.273,0.64c-0.246-0.004-0.316-0.387-0.309-0.64C188.43,111.742,188.5,111.418,188.715,111.41z
				 M202.547,111.392c0.242-0.009,0.293,0.339,0.293,0.565c-0.004,0.355-0.09,0.646-0.281,0.642
				c-0.25-0.005-0.309-0.384-0.305-0.642C202.262,111.724,202.328,111.398,202.547,111.392z M188.715,111.195
				c-0.403,0.008-0.526,0.45-0.535,0.762c-0.008,0.34,0.109,0.84,0.563,0.848c0.359,0.005,0.516-0.375,0.52-0.848
				c0-0.297-0.098-0.758-0.527-0.762C188.727,111.195,188.723,111.195,188.715,111.195z M187.551,111.195
				c-0.129,0.023-0.273,0.086-0.273,0.086v0.215c0,0,0.23-0.117,0.355-0.104c0.191,0.019,0.227,0.136,0.246,0.245
				c0.027,0.173-0.117,0.337-0.227,0.473c-0.121,0.145-0.434,0.43-0.434,0.43v0.246h0.902v-0.207h-0.668
				c0,0,0.203-0.183,0.305-0.293c0.176-0.191,0.395-0.449,0.348-0.703c-0.039-0.195-0.176-0.354-0.445-0.387
				C187.629,111.191,187.594,111.188,187.551,111.195z M202.547,111.188c-0.402,0.007-0.527,0.448-0.535,0.761
				c-0.008,0.34,0.105,0.84,0.563,0.844c0.355,0.008,0.516-0.383,0.52-0.854c0-0.297-0.098-0.75-0.527-0.75
				C202.559,111.185,202.555,111.185,202.547,111.188z M201.492,111.176c-0.133-0.016-0.383,0.086-0.383,0.086v0.216
				c0,0,0.23-0.114,0.355-0.103c0.191,0.021,0.215,0.133,0.234,0.242c0.031,0.176-0.113,0.336-0.223,0.473
				c-0.121,0.148-0.426,0.434-0.426,0.434v0.243h0.902v-0.196h-0.668c0,0,0.203-0.195,0.301-0.3c0.18-0.196,0.398-0.45,0.353-0.708
				C201.898,111.371,201.762,111.207,201.492,111.176z M195.594,108.813c1.125-0.027,1.984,0.934,1.984,0.934l-0.227,0.66
				c0,0-0.535-1-1.75-0.98c-1.535,0.027-1.891,1.723-1.891,1.723l3.406,0.02l-0.207,0.563h-3.293c0,0,0,0.118,0,0.208
				c0,0.108,0,0.218,0,0.218h3.145l-0.18,0.602h-2.859c0,0,0.5,1.645,1.891,1.664c1.305,0.02,1.816-1.063,1.816-1.063l-0.02,0.941
				c0,0-0.859,0.781-1.863,0.716c-1.863-0.125-2.371-2.259-2.371-2.259l-0.855-0.02l0.234-0.602h0.547c0,0-0.016-0.09-0.012-0.188
				c0.004-0.094,0-0.207,0-0.207l-0.77-0.012l0.241-0.582l0.622,0.02C193.176,111.086,193.695,108.859,195.594,108.813z
				 M195.98,97.156c2.043-0.043,3.586,1.442,3.586,1.442l-0.398,1.034c0,0-0.977-1.57-3.18-1.534
				c-2.785,0.043-3.434,2.718-3.434,2.718l6.184,0.02l-0.387,0.883h-5.965c0,0-0.004,0.191,0,0.332c0,0.168-0.02,0.328-0.02,0.328
				h5.719l-0.328,0.941h-5.184c0,0,0.906,2.575,3.434,2.605c2.371,0.027,3.285-1.664,3.285-1.664l-0.031,1.477
				c0,0-1.547,1.235-3.367,1.129c-3.383-0.195-4.328-3.547-4.328-3.547l-1.543-0.02l0.422-0.961h0.988c0,0-0.023-0.105-0.016-0.262
				c0.004-0.144,0-0.348,0-0.348l-1.414-0.012l0.461-0.902l1.121,0.02C191.566,100.707,192.539,97.23,195.98,97.156z M188.68,92.582
				c0.242-0.008,0.289,0.348,0.289,0.574c0,0.355-0.078,0.645-0.273,0.641c-0.246-0.004-0.313-0.383-0.309-0.641
				C188.391,92.926,188.461,92.59,188.68,92.582z M202.508,92.574c0.242-0.008,0.293,0.336,0.293,0.563
				c0,0.355-0.09,0.645-0.281,0.641c-0.246-0.004-0.305-0.382-0.301-0.641C202.223,92.906,202.293,92.582,202.508,92.574z
				 M188.68,92.375c-0.402,0.012-0.531,0.453-0.539,0.762c-0.008,0.344,0.109,0.844,0.566,0.848
				c0.354,0.004,0.516-0.375,0.516-0.848c0.004-0.297-0.094-0.758-0.527-0.762C188.691,92.375,188.684,92.375,188.68,92.375z
				 M187.512,92.375c-0.129,0.023-0.273,0.086-0.273,0.086v0.215c0,0,0.234-0.113,0.359-0.102c0.188,0.02,0.223,0.133,0.242,0.246
				c0.031,0.172-0.113,0.332-0.227,0.469c-0.117,0.149-0.43,0.435-0.43,0.435v0.241h0.902v-0.207h-0.668
				c0,0,0.203-0.184,0.301-0.289c0.18-0.191,0.398-0.448,0.348-0.707c-0.039-0.191-0.176-0.352-0.441-0.387
				C187.59,92.371,187.555,92.367,187.512,92.375z M202.508,92.359c-0.402,0.008-0.527,0.45-0.535,0.762
				c-0.008,0.34,0.109,0.84,0.566,0.844c0.355,0.009,0.516-0.375,0.516-0.844c0-0.301-0.098-0.762-0.527-0.762
				C202.523,92.359,202.516,92.359,202.508,92.359z M201.457,92.359c-0.133-0.02-0.387,0.082-0.387,0.082v0.219
				c0,0,0.234-0.117,0.355-0.105c0.191,0.02,0.219,0.134,0.238,0.246c0.027,0.173-0.117,0.332-0.226,0.47
				c-0.122,0.147-0.427,0.433-0.427,0.433v0.246h0.906v-0.207h-0.668c0,0,0.199-0.188,0.301-0.293
				c0.176-0.191,0.398-0.449,0.348-0.707C201.859,92.551,201.723,92.392,201.457,92.359z M195.906,90.07
				c1.125-0.027,1.992,0.922,1.992,0.922l-0.227,0.653c0,0-0.535-1-1.75-0.981c-1.535,0.027-1.891,1.742-1.891,1.742l3.407,0.008
				l-0.208,0.574h-3.301c0,0,0,0.117,0,0.207c0,0.105,0,0.215,0,0.215h3.152l-0.18,0.594h-2.859c0,0,0.488,1.638,1.879,1.656
				c1.309,0.02,1.828-1.043,1.828-1.043l-0.02,0.942c0,0-0.859,0.78-1.863,0.714c-1.863-0.125-2.383-2.27-2.383-2.27l-0.855-0.008
				l0.234-0.613h0.547c0,0-0.004-0.078,0-0.18c0.004-0.09,0-0.207,0-0.207l-0.781-0.008l0.234-0.582l0.641,0.008
				C193.492,92.332,194.008,90.117,195.906,90.07z M188.715,74.228c0.242-0.009,0.293,0.335,0.293,0.562
				c0,0.356-0.082,0.646-0.273,0.641c-0.246-0.004-0.316-0.375-0.309-0.629C188.43,74.566,188.5,74.234,188.715,74.228z
				 M202.547,74.207c0.242-0.008,0.293,0.336,0.293,0.566c-0.004,0.352-0.09,0.641-0.281,0.637c-0.25-0.004-0.309-0.371-0.305-0.629
				C202.262,74.547,202.328,74.215,202.547,74.207z M188.715,74.021c-0.403,0.007-0.526,0.448-0.535,0.761
				c-0.008,0.34,0.109,0.84,0.563,0.848c0.359,0.004,0.516-0.387,0.52-0.855c0-0.3-0.098-0.75-0.527-0.753
				C188.727,74.021,188.723,74.021,188.715,74.021z M187.66,74.008c-0.133-0.016-0.383,0.086-0.383,0.086v0.219
				c0,0,0.23-0.109,0.355-0.098c0.191,0.02,0.227,0.125,0.246,0.238c0.027,0.172-0.117,0.332-0.227,0.469
				c-0.121,0.148-0.434,0.434-0.434,0.434v0.247h0.902v-0.2h-0.668c0,0,0.203-0.195,0.305-0.3c0.176-0.192,0.395-0.442,0.348-0.696
				C188.066,74.211,187.93,74.043,187.66,74.008z M202.547,74c-0.402,0.012-0.527,0.453-0.535,0.762
				c-0.008,0.344,0.105,0.841,0.563,0.848c0.355,0.004,0.516-0.386,0.52-0.855c0-0.297-0.098-0.75-0.527-0.754
				C202.559,74,202.555,74,202.547,74z M201.492,73.992c-0.133-0.015-0.383,0.082-0.383,0.082v0.219c0,0,0.23-0.108,0.355-0.094
				c0.191,0.016,0.215,0.121,0.234,0.235c0.031,0.171-0.113,0.343-0.223,0.479c-0.121,0.148-0.426,0.422-0.426,0.422v0.246h0.902
				v-0.199h-0.668c0,0,0.203-0.184,0.301-0.293c0.18-0.191,0.398-0.444,0.353-0.703C201.898,74.195,201.762,74.023,201.492,73.992z
				 M195.801,71.637c1.125-0.027,1.965,0.914,1.965,0.914l-0.215,0.668c0,0-0.535-1.008-1.75-0.988
				c-1.535,0.027-1.902,1.743-1.902,1.743l3.418,0.019l-0.207,0.563h-3.285c0,0,0,0.117,0,0.207c0,0.109-0.02,0.207-0.02,0.207
				h3.152l-0.176,0.594h-2.863c0,0,0.5,1.656,1.891,1.676c1.309,0.016,1.809-1.066,1.809-1.066l-0.008,0.953
				c0,0-0.863,0.781-1.863,0.715c-1.867-0.125-2.383-2.277-2.383-2.277h-0.836l0.215-0.621h0.555c0,0-0.023-0.059-0.02-0.16
				c0.004-0.093,0-0.207,0-0.207l-0.77-0.02l0.254-0.581l0.621,0.019C193.371,73.91,193.902,71.685,195.801,71.637z M196.32,60.574
				c2.043-0.043,3.609,1.438,3.609,1.438l-0.422,1.027c0,0-0.969-1.565-3.172-1.535c-2.785,0.043-3.422,2.72-3.422,2.72l6.172,0.011
				l-0.379,0.902h-5.973c0,0-0.004,0.18,0,0.32c0,0.168-0.02,0.328-0.02,0.328h5.73l-0.34,0.942h-5.164c0,0,0.879,2.577,3.406,2.604
				c2.367,0.031,3.293-1.656,3.293-1.656l-0.027,1.48c0,0-1.552,1.235-3.371,1.129c-3.383-0.199-4.316-3.558-4.316-3.558
				l-1.543-0.021l0.414-0.969h0.996c0,0-0.027-0.105-0.02-0.261c0.008-0.146,0-0.332,0-0.332l-1.402-0.009l0.44-0.913l1.13,0.011
				C191.922,64.105,192.875,60.646,196.32,60.574z M188.602,55.898c0.242-0.011,0.293,0.344,0.293,0.575
				c0,0.351-0.09,0.64-0.281,0.636c-0.246-0.004-0.309-0.382-0.302-0.636C188.316,56.238,188.387,55.902,188.602,55.898z
				 M202.434,55.879c0.242-0.008,0.293,0.348,0.293,0.574c0,0.352-0.09,0.641-0.281,0.641c-0.25-0.008-0.309-0.387-0.301-0.641
				C202.148,56.219,202.219,55.887,202.434,55.879z M188.602,55.691c-0.402,0.008-0.527,0.45-0.535,0.762
				c-0.008,0.34,0.109,0.84,0.566,0.848c0.355,0.004,0.512-0.387,0.516-0.86c0-0.296-0.098-0.746-0.527-0.75
				C188.613,55.691,188.609,55.691,188.602,55.691z M187.551,55.68c-0.133-0.016-0.387,0.093-0.387,0.093v0.207
				c0,0,0.234-0.105,0.355-0.093c0.191,0.019,0.227,0.125,0.246,0.234c0.031,0.176-0.117,0.344-0.227,0.481
				c-0.121,0.148-0.434,0.425-0.434,0.425v0.254h0.906v-0.207h-0.668c0,0,0.199-0.187,0.301-0.293
				c0.176-0.191,0.398-0.449,0.348-0.707C187.953,55.883,187.816,55.711,187.551,55.68z M202.434,55.672
				c-0.402,0.008-0.535,0.449-0.547,0.762c-0.008,0.339,0.121,0.839,0.574,0.847c0.359,0.004,0.516-0.375,0.52-0.847
				c0-0.297-0.098-0.758-0.527-0.762C202.445,55.672,202.441,55.672,202.434,55.672z M201.27,55.672
				c-0.129,0.023-0.285,0.082-0.285,0.082v0.207c0,0,0.242-0.106,0.367-0.094c0.191,0.02,0.219,0.137,0.234,0.246
				c0.031,0.172-0.113,0.336-0.223,0.469c-0.121,0.148-0.425,0.434-0.425,0.434v0.246h0.901v-0.207h-0.668
				c0,0,0.203-0.188,0.305-0.293c0.176-0.192,0.395-0.45,0.348-0.703c-0.039-0.196-0.176-0.356-0.445-0.387
				C201.348,55.668,201.309,55.664,201.27,55.672z M195.934,53.516c1.082-0.028,1.91,0.914,1.91,0.914l-0.227,0.656
				c0,0-0.5-0.996-1.664-0.977c-1.477,0.028-1.828,1.731-1.828,1.731l3.277,0.012l-0.207,0.554h-3.152c0,0,0,0.117,0,0.207
				c0,0.106-0.012,0.215-0.012,0.215h3.02l-0.176,0.582h-2.738c0,0,0.477,1.637,1.816,1.656c1.254,0.02,1.738-1.043,1.738-1.043
				l-0.02,0.93c0,0-0.813,0.793-1.777,0.727c-1.789-0.125-2.277-2.27-2.277-2.27h-0.836l0.227-0.609h0.527c0,0-0.008-0.078,0-0.18
				c0.004-0.09,0-0.207,0-0.207l-0.754-0.008l0.234-0.566l0.602,0.012C193.605,55.77,194.109,53.562,195.934,53.516z
				 M188.828,37.539c0.242-0.008,0.293,0.34,0.293,0.566c-0.004,0.352-0.082,0.641-0.273,0.637
				c-0.246-0.004-0.316-0.383-0.313-0.637C188.543,37.871,188.609,37.547,188.828,37.539z M202.66,37.52
				c0.242-0.008,0.293,0.339,0.293,0.566c-0.004,0.352-0.09,0.641-0.285,0.641c-0.246-0.008-0.305-0.375-0.301-0.633
				C202.371,37.859,202.441,37.527,202.66,37.52z M188.828,37.332c-0.402,0.012-0.527,0.453-0.535,0.762
				c-0.008,0.344,0.109,0.832,0.563,0.84c0.359,0.004,0.516-0.375,0.52-0.848c0-0.297-0.086-0.75-0.52-0.754
				C188.852,37.332,188.836,37.332,188.828,37.332z M187.785,37.324c-0.133-0.015-0.395,0.082-0.395,0.082v0.219
				c0,0,0.23-0.117,0.355-0.105c0.192,0.019,0.227,0.132,0.246,0.246c0.027,0.172-0.117,0.332-0.227,0.468
				c-0.121,0.149-0.434,0.434-0.434,0.434v0.246h0.902v-0.207h-0.668c0,0,0.203-0.187,0.301-0.293
				c0.18-0.191,0.398-0.449,0.352-0.707C188.18,37.516,188.051,37.355,187.785,37.324z M202.66,37.312
				c-0.402,0.012-0.527,0.454-0.535,0.762c-0.008,0.344,0.105,0.844,0.563,0.848c0.354,0.004,0.515-0.383,0.519-0.856
				c0-0.296-0.098-0.75-0.527-0.754C202.672,37.312,202.668,37.312,202.66,37.312z M201.605,37.305
				c-0.133-0.016-0.387,0.086-0.387,0.086v0.214c0,0,0.234-0.117,0.359-0.105c0.191,0.02,0.215,0.137,0.233,0.246
				c0.032,0.172-0.112,0.336-0.226,0.473c-0.117,0.144-0.422,0.429-0.422,0.429v0.247h0.902v-0.2h-0.668c0,0,0.203-0.191,0.301-0.3
				c0.18-0.192,0.398-0.438,0.348-0.696C202.012,37.508,201.875,37.336,201.605,37.305z M195.98,35.113
				c1.125-0.027,1.984,0.91,1.984,0.91l-0.234,0.668c0,0-0.527-1.007-1.742-0.988c-1.535,0.027-1.891,1.742-1.891,1.742h3.398
				l-0.207,0.582h-3.285c0,0,0,0.11,0,0.2c0,0.105-0.02,0.214-0.02,0.214h3.16l-0.188,0.594h-2.852c0,0,0.492,1.656,1.883,1.676
				c1.305,0.016,1.823-1.063,1.823-1.063l-0.026,0.942c0,0-0.852,0.801-1.852,0.73c-1.867-0.125-2.372-2.285-2.372-2.285h-0.854
				l0.234-0.621h0.535c0,0-0.004-0.059,0-0.16c0.004-0.094,0-0.227,0-0.227h-0.788l0.253-0.582h0.62
				C193.551,37.363,194.082,35.16,195.98,35.113z M196.422,23.98c2.043-0.042,3.605,1.442,3.605,1.442l-0.406,1.035
				c0,0-0.988-1.586-3.191-1.555c-2.785,0.043-3.422,2.731-3.422,2.731l6.172,0.008l-0.368,0.894h-5.976c0,0,0,0.18,0,0.32
				c0.004,0.168-0.008,0.348-0.008,0.348h5.719l-0.336,0.922h-5.176c0,0,0.891,2.586,3.414,2.617
				c2.371,0.028,3.293-1.656,3.293-1.656l-0.02,1.476c0,0-1.566,1.235-3.387,1.129c-3.383-0.195-4.309-3.566-4.309-3.566
				l-1.551-0.008l0.414-0.953h0.996c0,0-0.016-0.121-0.008-0.281c0.004-0.145,0-0.328,0-0.328l-1.414-0.02l0.441-0.902l1.133,0.008
				C192.016,27.512,192.98,24.055,196.422,23.98z M188.801,19.371c0.242-0.008,0.293,0.336,0.293,0.563
				c-0.004,0.355-0.09,0.644-0.285,0.64c-0.247-0.004-0.305-0.375-0.301-0.629C188.512,19.711,188.582,19.379,188.801,19.371z
				 M202.621,19.352c0.242-0.008,0.305,0.347,0.301,0.574c0,0.351-0.09,0.644-0.281,0.64c-0.246-0.004-0.313-0.386-0.309-0.64
				C202.336,19.691,202.406,19.359,202.621,19.352z M188.801,19.164c-0.402,0.008-0.527,0.449-0.535,0.762
				c-0.012,0.34,0.105,0.84,0.563,0.847c0.355,0.004,0.516-0.386,0.52-0.859c0-0.297-0.098-0.746-0.527-0.75
				C188.812,19.164,188.809,19.164,188.801,19.164z M187.746,19.152c-0.133-0.015-0.387,0.094-0.387,0.094v0.207
				c0,0,0.234-0.105,0.359-0.094c0.191,0.02,0.215,0.125,0.234,0.239c0.031,0.172-0.113,0.343-0.227,0.476
				c-0.117,0.149-0.422,0.426-0.422,0.426v0.242h0.902v-0.195h-0.668c0,0,0.203-0.188,0.301-0.293
				c0.18-0.192,0.398-0.449,0.349-0.703C188.152,19.355,188.016,19.188,187.746,19.152z M202.633,19.145
				c-0.402,0.007-0.539,0.449-0.547,0.761c-0.008,0.34,0.109,0.84,0.566,0.848c0.355,0.004,0.516-0.387,0.516-0.856
				c0-0.3-0.086-0.75-0.516-0.753C202.645,19.145,202.641,19.145,202.633,19.145z M201.578,19.137
				c-0.133-0.02-0.395,0.093-0.395,0.093v0.208c0,0,0.242-0.11,0.367-0.094c0.188,0.015,0.215,0.121,0.234,0.234
				c0.031,0.172-0.117,0.344-0.227,0.481c-0.117,0.148-0.434,0.421-0.434,0.421v0.254h0.914v-0.207h-0.668
				c0,0,0.19-0.183,0.293-0.293c0.176-0.191,0.397-0.445,0.348-0.703C201.973,19.34,201.844,19.168,201.578,19.137z M195.715,17.195
				c1.133-0.023,2.004,0.828,2.004,0.828l-0.234,0.594c0,0-0.539-0.902-1.758-0.883c-1.543,0.024-1.902,1.563-1.902,1.563
				l3.426,0.015l-0.207,0.508h-3.32c0,0-0.004,0.118,0,0.2c0,0.097,0,0.187,0,0.187h3.168l-0.188,0.535h-2.867
				c0,0,0.492,1.488,1.891,1.508c1.313,0.016,1.824-0.949,1.824-0.949l-0.008,0.844c0,0-0.867,0.722-1.875,0.66
				c-1.875-0.114-2.391-2.063-2.391-2.063l-0.855-0.008l0.238-0.554h0.543c0,0-0.004-0.059,0-0.153c0.004-0.082,0-0.187,0-0.187
				l-0.789-0.02l0.246-0.523l0.637,0.015C193.285,19.238,193.809,17.238,195.715,17.195z M187.277,1.613v0.321h2.672
				c-0.215,3.921-1.219,6.711-2.605,8.863c1.414,2.156,2.418,4.953,2.633,8.875v0.621c-0.215,3.918-1.219,6.715-2.605,8.871
				c1.414,2.156,2.422,4.965,2.633,8.883v0.601c-0.211,3.922-1.219,6.727-2.605,8.883c1.413,2.157,2.422,4.953,2.633,8.875v0.621
				c-0.211,3.918-1.22,6.707-2.605,8.864c1.414,2.155,2.422,4.968,2.636,8.89v0.621c-0.214,3.922-1.222,6.707-2.608,8.864
				c1.418,2.155,2.422,4.961,2.637,8.882v0.609c-0.215,3.922-1.219,6.73-2.605,8.884c1.414,2.155,2.422,4.944,2.633,8.862v0.605
				c-0.211,3.918-1.219,6.707-2.605,8.864c1.414,2.151,2.422,4.961,2.633,8.879h-2.68v0.612h2.68
				c-0.211,3.922-1.219,6.727-2.605,8.884c1.414,2.155,2.422,4.94,2.637,8.862h-2.684v0.32h5.785c0-0.051,0-0.121,0-0.121h-0.77
				l0.254-0.586h0.621c-0.012-0.082,0.52-2.285,2.418-2.332c1.125-0.027,1.965,0.914,1.965,0.914l-0.215,0.668
				c0,0-0.535-1.012-1.75-0.988c-1.535,0.027-1.902,1.738-1.902,1.738h3.418l-0.207,0.586h-3.285c0,0,0,0.063,0,0.121h8.987v-0.301
				h-2.675c0.215-3.921,1.223-6.727,2.637-8.882c-1.387-2.157-2.402-4.953-2.617-8.875h2.684v-0.621h-2.684
				c0.215-3.918,1.23-6.707,2.645-8.864c-1.387-2.152-2.402-4.961-2.612-8.879v-0.605c0.21-3.918,1.226-6.707,2.64-8.862
				c-1.387-2.153-2.402-4.95-2.613-8.871v-0.622c0.211-3.921,1.227-6.707,2.645-8.863c-1.387-2.156-2.402-4.961-2.617-8.883v-0.621
				c0.215-3.922,1.23-6.719,2.645-8.871c-1.387-2.156-2.402-4.965-2.617-8.883v-0.613c0.215-3.922,1.23-6.726,2.645-8.883
				c-1.387-2.156-2.402-4.941-2.617-8.863v-0.621c0.215-3.918,1.23-6.715,2.645-8.871c-1.387-2.156-2.402-4.965-2.613-8.883V19.68
				c0.211-3.918,1.227-6.727,2.645-8.883c-1.387-2.152-2.406-4.942-2.617-8.863h2.68V1.613h-9.105c0,0.02,0,0.024,0,0.039
				c0,0.106,0,0.227,0,0.227h3.152l-0.18,0.594h-2.859c0,0,0.488,1.652,1.879,1.672c1.309,0.019,1.828-1.063,1.828-1.063
				l-0.02,0.934c0,0-0.859,0.8-1.863,0.734c-1.863-0.129-2.383-2.277-2.383-2.277l-0.855-0.012l0.234-0.609h0.547
				c0,0-0.004-0.071,0-0.172c0.004-0.028,0-0.035,0-0.067H187.277z"/>
			<path opacity="0.6396" clip-path="url(#SVGID_4_)" fill="none" stroke="#999999" stroke-width="0.6066" d="M195.98,134.099
				c2.043-0.044,3.586,1.437,3.586,1.437l-0.398,1.035c0,0-0.977-1.566-3.18-1.531c-2.785,0.043-3.434,2.719-3.434,2.719
				l6.184,0.009l-0.367,0.886h-5.984c0,0-0.004,0.2,0,0.336c0,0.168-0.02,0.332-0.02,0.332h5.719l-0.328,0.941h-5.184
				c0,0,0.906,2.574,3.434,2.605c2.371,0.028,3.285-1.668,3.285-1.668l-0.031,1.48c0,0-1.547,1.234-3.367,1.13
				c-3.383-0.2-4.309-3.548-4.309-3.548l-1.563-0.02l0.422-0.961h0.988c0,0-0.023-0.105-0.016-0.261c0.004-0.149,0-0.349,0-0.349
				l-1.414-0.02l0.461-0.895l1.129,0.009C191.574,137.642,192.539,134.168,195.98,134.099z M195.988,127.099
				c1.129-0.028,1.996,0.922,1.996,0.922l-0.227,0.647c0,0-0.535-1-1.75-0.979c-1.535,0.026-1.902,1.741-1.902,1.741l3.406,0.012
				l-0.207,0.563h-3.293c0,0,0,0.117,0,0.207c0.004,0.105-0.008,0.228-0.008,0.228h3.16l-0.195,0.593h-2.844
				c0,0,0.492,1.637,1.883,1.657c1.304,0.015,1.816-1.047,1.816-1.047l-0.027,0.933c0,0-0.844,0.789-1.844,0.723
				c-1.867-0.125-2.383-2.266-2.383-2.266l-0.855-0.011l0.234-0.61h0.535c0,0-0.004-0.078,0-0.18c0.004-0.094,0-0.207,0-0.207
				l-0.777-0.02l0.242-0.574l0.621,0.012C193.559,129.359,194.094,127.146,195.988,127.099z M188.715,111.41
				c0.242-0.008,0.293,0.34,0.293,0.567c0,0.351-0.082,0.64-0.273,0.64c-0.246-0.004-0.316-0.387-0.309-0.64
				C188.43,111.742,188.5,111.418,188.715,111.41z M202.547,111.392c0.242-0.009,0.293,0.339,0.293,0.565
				c-0.004,0.355-0.09,0.646-0.281,0.642c-0.25-0.005-0.309-0.384-0.305-0.642C202.262,111.724,202.328,111.398,202.547,111.392z
				 M188.715,111.195c-0.403,0.008-0.526,0.45-0.535,0.762c-0.008,0.34,0.109,0.84,0.563,0.848c0.359,0.005,0.516-0.375,0.52-0.848
				c0-0.297-0.098-0.758-0.527-0.762C188.727,111.195,188.723,111.195,188.715,111.195z M187.551,111.195
				c-0.129,0.023-0.273,0.086-0.273,0.086v0.215c0,0,0.23-0.117,0.355-0.104c0.191,0.019,0.227,0.136,0.246,0.245
				c0.027,0.173-0.117,0.337-0.227,0.473c-0.121,0.145-0.434,0.43-0.434,0.43v0.246h0.902v-0.207h-0.668
				c0,0,0.203-0.183,0.305-0.293c0.176-0.191,0.395-0.449,0.348-0.703c-0.039-0.195-0.176-0.354-0.445-0.387
				C187.629,111.191,187.594,111.188,187.551,111.195z M202.547,111.188c-0.402,0.007-0.527,0.448-0.535,0.761
				c-0.008,0.34,0.105,0.84,0.563,0.844c0.355,0.008,0.516-0.383,0.52-0.854c0-0.297-0.098-0.75-0.527-0.75
				C202.559,111.185,202.555,111.185,202.547,111.188z M201.492,111.176c-0.133-0.016-0.383,0.086-0.383,0.086v0.216
				c0,0,0.23-0.114,0.355-0.103c0.191,0.021,0.215,0.133,0.234,0.242c0.031,0.176-0.113,0.336-0.223,0.473
				c-0.121,0.148-0.426,0.434-0.426,0.434v0.243h0.902v-0.196h-0.668c0,0,0.203-0.195,0.301-0.3c0.18-0.196,0.398-0.45,0.353-0.708
				C201.898,111.371,201.762,111.207,201.492,111.176z M195.594,108.813c1.125-0.027,1.984,0.934,1.984,0.934l-0.227,0.66
				c0,0-0.535-1-1.75-0.98c-1.535,0.027-1.891,1.723-1.891,1.723l3.406,0.02l-0.207,0.563h-3.293c0,0,0,0.118,0,0.208
				c0,0.108,0,0.218,0,0.218h3.145l-0.18,0.602h-2.859c0,0,0.5,1.645,1.891,1.664c1.305,0.02,1.816-1.063,1.816-1.063l-0.02,0.941
				c0,0-0.859,0.781-1.863,0.716c-1.863-0.125-2.371-2.259-2.371-2.259l-0.855-0.02l0.234-0.602h0.547c0,0-0.016-0.09-0.012-0.188
				c0.004-0.094,0-0.207,0-0.207l-0.77-0.012l0.241-0.582l0.622,0.02C193.176,111.086,193.695,108.859,195.594,108.813z
				 M195.98,97.156c2.043-0.043,3.586,1.442,3.586,1.442l-0.398,1.034c0,0-0.977-1.57-3.18-1.534
				c-2.785,0.043-3.434,2.718-3.434,2.718l6.184,0.02l-0.387,0.883h-5.965c0,0-0.004,0.191,0,0.332c0,0.168-0.02,0.328-0.02,0.328
				h5.719l-0.328,0.941h-5.184c0,0,0.906,2.575,3.434,2.605c2.371,0.027,3.285-1.664,3.285-1.664l-0.031,1.477
				c0,0-1.547,1.235-3.367,1.129c-3.383-0.195-4.328-3.547-4.328-3.547l-1.543-0.02l0.422-0.961h0.988c0,0-0.023-0.105-0.016-0.262
				c0.004-0.144,0-0.348,0-0.348l-1.414-0.012l0.461-0.902l1.121,0.02C191.566,100.707,192.539,97.23,195.98,97.156z M188.68,92.582
				c0.242-0.008,0.289,0.348,0.289,0.574c0,0.355-0.078,0.645-0.273,0.641c-0.246-0.004-0.313-0.383-0.309-0.641
				C188.391,92.926,188.461,92.59,188.68,92.582z M202.508,92.574c0.242-0.008,0.293,0.336,0.293,0.563
				c0,0.355-0.09,0.645-0.281,0.641c-0.246-0.004-0.305-0.382-0.301-0.641C202.223,92.906,202.293,92.582,202.508,92.574z
				 M188.68,92.375c-0.402,0.012-0.531,0.453-0.539,0.762c-0.008,0.344,0.109,0.844,0.566,0.848
				c0.354,0.004,0.516-0.375,0.516-0.848c0.004-0.297-0.094-0.758-0.527-0.762C188.691,92.375,188.684,92.375,188.68,92.375z
				 M187.512,92.375c-0.129,0.023-0.273,0.086-0.273,0.086v0.215c0,0,0.234-0.113,0.359-0.102c0.188,0.02,0.223,0.133,0.242,0.246
				c0.031,0.172-0.113,0.332-0.227,0.469c-0.117,0.149-0.43,0.435-0.43,0.435v0.241h0.902v-0.207h-0.668
				c0,0,0.203-0.184,0.301-0.289c0.18-0.191,0.398-0.448,0.348-0.707c-0.039-0.191-0.176-0.352-0.441-0.387
				C187.59,92.371,187.555,92.367,187.512,92.375z M202.508,92.359c-0.402,0.008-0.527,0.45-0.535,0.762
				c-0.008,0.34,0.109,0.84,0.566,0.844c0.355,0.009,0.516-0.375,0.516-0.844c0-0.301-0.098-0.762-0.527-0.762
				C202.523,92.359,202.516,92.359,202.508,92.359z M201.457,92.359c-0.133-0.02-0.387,0.082-0.387,0.082v0.219
				c0,0,0.234-0.117,0.355-0.105c0.191,0.02,0.219,0.134,0.238,0.246c0.027,0.173-0.117,0.332-0.226,0.47
				c-0.122,0.147-0.427,0.433-0.427,0.433v0.246h0.906v-0.207h-0.668c0,0,0.199-0.188,0.301-0.293
				c0.176-0.191,0.398-0.449,0.348-0.707C201.859,92.551,201.723,92.392,201.457,92.359z M195.906,90.07
				c1.125-0.027,1.992,0.922,1.992,0.922l-0.227,0.653c0,0-0.535-1-1.75-0.981c-1.535,0.027-1.891,1.742-1.891,1.742l3.407,0.008
				l-0.208,0.574h-3.301c0,0,0,0.117,0,0.207c0,0.105,0,0.215,0,0.215h3.152l-0.18,0.594h-2.859c0,0,0.488,1.638,1.879,1.656
				c1.309,0.02,1.828-1.043,1.828-1.043l-0.02,0.942c0,0-0.859,0.78-1.863,0.714c-1.863-0.125-2.383-2.27-2.383-2.27l-0.855-0.008
				l0.234-0.613h0.547c0,0-0.004-0.078,0-0.18c0.004-0.09,0-0.207,0-0.207l-0.781-0.008l0.234-0.582l0.641,0.008
				C193.492,92.332,194.008,90.117,195.906,90.07z M188.715,74.228c0.242-0.009,0.293,0.335,0.293,0.562
				c0,0.356-0.082,0.646-0.273,0.641c-0.246-0.004-0.316-0.375-0.309-0.629C188.43,74.566,188.5,74.234,188.715,74.228z
				 M202.547,74.207c0.242-0.008,0.293,0.336,0.293,0.566c-0.004,0.352-0.09,0.641-0.281,0.637c-0.25-0.004-0.309-0.371-0.305-0.629
				C202.262,74.547,202.328,74.215,202.547,74.207z M188.715,74.021c-0.403,0.007-0.526,0.448-0.535,0.761
				c-0.008,0.34,0.109,0.84,0.563,0.848c0.359,0.004,0.516-0.387,0.52-0.855c0-0.3-0.098-0.75-0.527-0.753
				C188.727,74.021,188.723,74.021,188.715,74.021z M187.66,74.008c-0.133-0.016-0.383,0.086-0.383,0.086v0.219
				c0,0,0.23-0.109,0.355-0.098c0.191,0.02,0.227,0.125,0.246,0.238c0.027,0.172-0.117,0.332-0.227,0.469
				c-0.121,0.148-0.434,0.434-0.434,0.434v0.247h0.902v-0.2h-0.668c0,0,0.203-0.195,0.305-0.3c0.176-0.192,0.395-0.442,0.348-0.696
				C188.066,74.211,187.93,74.043,187.66,74.008z M202.547,74c-0.402,0.012-0.527,0.453-0.535,0.762
				c-0.008,0.344,0.105,0.841,0.563,0.848c0.355,0.004,0.516-0.386,0.52-0.855c0-0.297-0.098-0.75-0.527-0.754
				C202.559,74,202.555,74,202.547,74z M201.492,73.992c-0.133-0.015-0.383,0.082-0.383,0.082v0.219c0,0,0.23-0.108,0.355-0.094
				c0.191,0.016,0.215,0.121,0.234,0.235c0.031,0.171-0.113,0.343-0.223,0.479c-0.121,0.148-0.426,0.422-0.426,0.422v0.246h0.902
				v-0.199h-0.668c0,0,0.203-0.184,0.301-0.293c0.18-0.191,0.398-0.444,0.353-0.703C201.898,74.195,201.762,74.023,201.492,73.992z
				 M195.801,71.637c1.125-0.027,1.965,0.914,1.965,0.914l-0.215,0.668c0,0-0.535-1.008-1.75-0.988
				c-1.535,0.027-1.902,1.743-1.902,1.743l3.418,0.019l-0.207,0.563h-3.285c0,0,0,0.117,0,0.207c0,0.109-0.02,0.207-0.02,0.207
				h3.152l-0.176,0.594h-2.863c0,0,0.5,1.656,1.891,1.676c1.309,0.016,1.809-1.066,1.809-1.066l-0.008,0.953
				c0,0-0.863,0.781-1.863,0.715c-1.867-0.125-2.383-2.277-2.383-2.277h-0.836l0.215-0.621h0.555c0,0-0.023-0.059-0.02-0.16
				c0.004-0.093,0-0.207,0-0.207l-0.77-0.02l0.254-0.581l0.621,0.019C193.371,73.91,193.902,71.685,195.801,71.637z M196.32,60.574
				c2.043-0.043,3.609,1.438,3.609,1.438l-0.422,1.027c0,0-0.969-1.565-3.172-1.535c-2.785,0.043-3.422,2.72-3.422,2.72l6.172,0.011
				l-0.379,0.902h-5.973c0,0-0.004,0.18,0,0.32c0,0.168-0.02,0.328-0.02,0.328h5.73l-0.34,0.942h-5.164c0,0,0.879,2.577,3.406,2.604
				c2.367,0.031,3.293-1.656,3.293-1.656l-0.027,1.48c0,0-1.552,1.235-3.371,1.129c-3.383-0.199-4.316-3.558-4.316-3.558
				l-1.543-0.021l0.414-0.969h0.996c0,0-0.027-0.105-0.02-0.261c0.008-0.146,0-0.332,0-0.332l-1.402-0.009l0.44-0.913l1.13,0.011
				C191.922,64.105,192.875,60.646,196.32,60.574z M188.602,55.898c0.242-0.011,0.293,0.344,0.293,0.575
				c0,0.351-0.09,0.64-0.281,0.636c-0.246-0.004-0.309-0.382-0.302-0.636C188.316,56.238,188.387,55.902,188.602,55.898z
				 M202.434,55.879c0.242-0.008,0.293,0.348,0.293,0.574c0,0.352-0.09,0.641-0.281,0.641c-0.25-0.008-0.309-0.387-0.301-0.641
				C202.148,56.219,202.219,55.887,202.434,55.879z M188.602,55.691c-0.402,0.008-0.527,0.45-0.535,0.762
				c-0.008,0.34,0.109,0.84,0.566,0.848c0.355,0.004,0.512-0.387,0.516-0.86c0-0.296-0.098-0.746-0.527-0.75
				C188.613,55.691,188.609,55.691,188.602,55.691z M187.551,55.68c-0.133-0.016-0.387,0.093-0.387,0.093v0.207
				c0,0,0.234-0.105,0.355-0.093c0.191,0.019,0.227,0.125,0.246,0.234c0.031,0.176-0.117,0.344-0.227,0.481
				c-0.121,0.148-0.434,0.425-0.434,0.425v0.254h0.906v-0.207h-0.668c0,0,0.199-0.187,0.301-0.293
				c0.176-0.191,0.398-0.449,0.348-0.707C187.953,55.883,187.816,55.711,187.551,55.68z M202.434,55.672
				c-0.402,0.008-0.535,0.449-0.547,0.762c-0.008,0.339,0.121,0.839,0.574,0.847c0.359,0.004,0.516-0.375,0.52-0.847
				c0-0.297-0.098-0.758-0.527-0.762C202.445,55.672,202.441,55.672,202.434,55.672z M201.27,55.672
				c-0.129,0.023-0.285,0.082-0.285,0.082v0.207c0,0,0.242-0.106,0.367-0.094c0.191,0.02,0.219,0.137,0.234,0.246
				c0.031,0.172-0.113,0.336-0.223,0.469c-0.121,0.148-0.425,0.434-0.425,0.434v0.246h0.901v-0.207h-0.668
				c0,0,0.203-0.188,0.305-0.293c0.176-0.192,0.395-0.45,0.348-0.703c-0.039-0.196-0.176-0.356-0.445-0.387
				C201.348,55.668,201.309,55.664,201.27,55.672z M195.934,53.516c1.082-0.028,1.91,0.914,1.91,0.914l-0.227,0.656
				c0,0-0.5-0.996-1.664-0.977c-1.477,0.028-1.828,1.731-1.828,1.731l3.277,0.012l-0.207,0.554h-3.152c0,0,0,0.117,0,0.207
				c0,0.106-0.012,0.215-0.012,0.215h3.02l-0.176,0.582h-2.738c0,0,0.477,1.637,1.816,1.656c1.254,0.02,1.738-1.043,1.738-1.043
				l-0.02,0.93c0,0-0.813,0.793-1.777,0.727c-1.789-0.125-2.277-2.27-2.277-2.27h-0.836l0.227-0.609h0.527c0,0-0.008-0.078,0-0.18
				c0.004-0.09,0-0.207,0-0.207l-0.754-0.008l0.234-0.566l0.602,0.012C193.605,55.77,194.109,53.562,195.934,53.516z
				 M188.828,37.539c0.242-0.008,0.293,0.34,0.293,0.566c-0.004,0.352-0.082,0.641-0.273,0.637
				c-0.246-0.004-0.316-0.383-0.313-0.637C188.543,37.871,188.609,37.547,188.828,37.539z M202.66,37.52
				c0.242-0.008,0.293,0.339,0.293,0.566c-0.004,0.352-0.09,0.641-0.285,0.641c-0.246-0.008-0.305-0.375-0.301-0.633
				C202.371,37.859,202.441,37.527,202.66,37.52z M188.828,37.332c-0.402,0.012-0.527,0.453-0.535,0.762
				c-0.008,0.344,0.109,0.832,0.563,0.84c0.359,0.004,0.516-0.375,0.52-0.848c0-0.297-0.086-0.75-0.52-0.754
				C188.852,37.332,188.836,37.332,188.828,37.332z M187.785,37.324c-0.133-0.015-0.395,0.082-0.395,0.082v0.219
				c0,0,0.23-0.117,0.355-0.105c0.192,0.019,0.227,0.132,0.246,0.246c0.027,0.172-0.117,0.332-0.227,0.468
				c-0.121,0.149-0.434,0.434-0.434,0.434v0.246h0.902v-0.207h-0.668c0,0,0.203-0.187,0.301-0.293
				c0.18-0.191,0.398-0.449,0.352-0.707C188.18,37.516,188.051,37.355,187.785,37.324z M202.66,37.312
				c-0.402,0.012-0.527,0.454-0.535,0.762c-0.008,0.344,0.105,0.844,0.563,0.848c0.354,0.004,0.515-0.383,0.519-0.856
				c0-0.296-0.098-0.75-0.527-0.754C202.672,37.312,202.668,37.312,202.66,37.312z M201.605,37.305
				c-0.133-0.016-0.387,0.086-0.387,0.086v0.214c0,0,0.234-0.117,0.359-0.105c0.191,0.02,0.215,0.137,0.233,0.246
				c0.032,0.172-0.112,0.336-0.226,0.473c-0.117,0.144-0.422,0.429-0.422,0.429v0.247h0.902v-0.2h-0.668c0,0,0.203-0.191,0.301-0.3
				c0.18-0.192,0.398-0.438,0.348-0.696C202.012,37.508,201.875,37.336,201.605,37.305z M195.98,35.113
				c1.125-0.027,1.984,0.91,1.984,0.91l-0.234,0.668c0,0-0.527-1.007-1.742-0.988c-1.535,0.027-1.891,1.742-1.891,1.742h3.398
				l-0.207,0.582h-3.285c0,0,0,0.11,0,0.2c0,0.105-0.02,0.214-0.02,0.214h3.16l-0.188,0.594h-2.852c0,0,0.492,1.656,1.883,1.676
				c1.305,0.016,1.823-1.063,1.823-1.063l-0.026,0.942c0,0-0.852,0.801-1.852,0.73c-1.867-0.125-2.372-2.285-2.372-2.285h-0.854
				l0.234-0.621h0.535c0,0-0.004-0.059,0-0.16c0.004-0.094,0-0.227,0-0.227h-0.788l0.253-0.582h0.62
				C193.551,37.363,194.082,35.16,195.98,35.113z M196.422,23.98c2.043-0.042,3.605,1.442,3.605,1.442l-0.406,1.035
				c0,0-0.988-1.586-3.191-1.555c-2.785,0.043-3.422,2.731-3.422,2.731l6.172,0.008l-0.368,0.894h-5.976c0,0,0,0.18,0,0.32
				c0.004,0.168-0.008,0.348-0.008,0.348h5.719l-0.336,0.922h-5.176c0,0,0.891,2.586,3.414,2.617
				c2.371,0.028,3.293-1.656,3.293-1.656l-0.02,1.476c0,0-1.566,1.235-3.387,1.129c-3.383-0.195-4.309-3.566-4.309-3.566
				l-1.551-0.008l0.414-0.953h0.996c0,0-0.016-0.121-0.008-0.281c0.004-0.145,0-0.328,0-0.328l-1.414-0.02l0.441-0.902l1.133,0.008
				C192.016,27.512,192.98,24.055,196.422,23.98z M188.801,19.371c0.242-0.008,0.293,0.336,0.293,0.563
				c-0.004,0.355-0.09,0.644-0.285,0.64c-0.247-0.004-0.305-0.375-0.301-0.629C188.512,19.711,188.582,19.379,188.801,19.371z
				 M202.621,19.352c0.242-0.008,0.305,0.347,0.301,0.574c0,0.351-0.09,0.644-0.281,0.64c-0.246-0.004-0.313-0.386-0.309-0.64
				C202.336,19.691,202.406,19.359,202.621,19.352z M188.801,19.164c-0.402,0.008-0.527,0.449-0.535,0.762
				c-0.012,0.34,0.105,0.84,0.563,0.847c0.355,0.004,0.516-0.386,0.52-0.859c0-0.297-0.098-0.746-0.527-0.75
				C188.812,19.164,188.809,19.164,188.801,19.164z M187.746,19.152c-0.133-0.015-0.387,0.094-0.387,0.094v0.207
				c0,0,0.234-0.105,0.359-0.094c0.191,0.02,0.215,0.125,0.234,0.239c0.031,0.172-0.113,0.343-0.227,0.476
				c-0.117,0.149-0.422,0.426-0.422,0.426v0.242h0.902v-0.195h-0.668c0,0,0.203-0.188,0.301-0.293
				c0.18-0.192,0.398-0.449,0.349-0.703C188.152,19.355,188.016,19.188,187.746,19.152z M202.633,19.145
				c-0.402,0.007-0.539,0.449-0.547,0.761c-0.008,0.34,0.109,0.84,0.566,0.848c0.355,0.004,0.516-0.387,0.516-0.856
				c0-0.3-0.086-0.75-0.516-0.753C202.645,19.145,202.641,19.145,202.633,19.145z M201.578,19.137
				c-0.133-0.02-0.395,0.093-0.395,0.093v0.208c0,0,0.242-0.11,0.367-0.094c0.188,0.015,0.215,0.121,0.234,0.234
				c0.031,0.172-0.117,0.344-0.227,0.481c-0.117,0.148-0.434,0.421-0.434,0.421v0.254h0.914v-0.207h-0.668
				c0,0,0.19-0.183,0.293-0.293c0.176-0.191,0.397-0.445,0.348-0.703C201.973,19.34,201.844,19.168,201.578,19.137z M195.715,17.195
				c1.133-0.023,2.004,0.828,2.004,0.828l-0.234,0.594c0,0-0.539-0.902-1.758-0.883c-1.543,0.024-1.902,1.563-1.902,1.563
				l3.426,0.015l-0.207,0.508h-3.32c0,0-0.004,0.118,0,0.2c0,0.097,0,0.187,0,0.187h3.168l-0.188,0.535h-2.867
				c0,0,0.492,1.488,1.891,1.508c1.313,0.016,1.824-0.949,1.824-0.949l-0.008,0.844c0,0-0.867,0.722-1.875,0.66
				c-1.875-0.114-2.391-2.063-2.391-2.063l-0.855-0.008l0.238-0.554h0.543c0,0-0.004-0.059,0-0.153c0.004-0.082,0-0.187,0-0.187
				l-0.789-0.02l0.246-0.523l0.637,0.015C193.285,19.238,193.809,17.238,195.715,17.195z M187.277,1.613v0.321h2.672
				c-0.215,3.921-1.219,6.711-2.605,8.863c1.414,2.156,2.418,4.953,2.633,8.875v0.621c-0.215,3.918-1.219,6.715-2.605,8.871
				c1.414,2.156,2.422,4.965,2.633,8.883v0.601c-0.211,3.922-1.219,6.727-2.605,8.883c1.413,2.157,2.422,4.953,2.633,8.875v0.621
				c-0.211,3.918-1.22,6.707-2.605,8.864c1.414,2.155,2.422,4.968,2.636,8.89v0.621c-0.214,3.922-1.222,6.707-2.608,8.864
				c1.418,2.155,2.422,4.961,2.637,8.882v0.609c-0.215,3.922-1.219,6.73-2.605,8.884c1.414,2.155,2.422,4.944,2.633,8.862v0.605
				c-0.211,3.918-1.219,6.707-2.605,8.864c1.414,2.151,2.422,4.961,2.633,8.879h-2.68v0.612h2.68
				c-0.211,3.922-1.219,6.727-2.605,8.884c1.414,2.155,2.422,4.94,2.637,8.862h-2.684v0.32h5.785c0-0.051,0-0.121,0-0.121h-0.77
				l0.254-0.586h0.621c-0.012-0.082,0.52-2.285,2.418-2.332c1.125-0.027,1.965,0.914,1.965,0.914l-0.215,0.668
				c0,0-0.535-1.012-1.75-0.988c-1.535,0.027-1.902,1.738-1.902,1.738h3.418l-0.207,0.586h-3.285c0,0,0,0.063,0,0.121h8.987v-0.301
				h-2.675c0.215-3.921,1.223-6.727,2.637-8.882c-1.387-2.157-2.402-4.953-2.617-8.875h2.684v-0.621h-2.684
				c0.215-3.918,1.23-6.707,2.645-8.864c-1.387-2.152-2.402-4.961-2.612-8.879v-0.605c0.21-3.918,1.226-6.707,2.64-8.862
				c-1.387-2.153-2.402-4.95-2.613-8.871v-0.622c0.211-3.921,1.227-6.707,2.645-8.863c-1.387-2.156-2.402-4.961-2.617-8.883v-0.621
				c0.215-3.922,1.23-6.719,2.645-8.871c-1.387-2.156-2.402-4.965-2.617-8.883v-0.613c0.215-3.922,1.23-6.726,2.645-8.883
				c-1.387-2.156-2.402-4.941-2.617-8.863v-0.621c0.215-3.918,1.23-6.715,2.645-8.871c-1.387-2.156-2.402-4.965-2.613-8.883V19.68
				c0.211-3.918,1.227-6.727,2.645-8.883c-1.387-2.152-2.406-4.942-2.617-8.863h2.68V1.613h-9.105c0,0.02,0,0.024,0,0.039
				c0,0.106,0,0.227,0,0.227h3.152l-0.18,0.594h-2.859c0,0,0.488,1.652,1.879,1.672c1.309,0.019,1.828-1.063,1.828-1.063
				l-0.02,0.934c0,0-0.859,0.8-1.863,0.734c-1.863-0.129-2.383-2.277-2.383-2.277l-0.855-0.012l0.234-0.609h0.547
				c0,0-0.004-0.071,0-0.172c0.004-0.028,0-0.035,0-0.067H187.277z"/>
		</g>
	</g>
</g>
</svg>
