<?xml version="1.0" encoding="utf-8"?>
<!-- Generator: Adobe Illustrator 16.0.3, SVG Export Plug-In . SVG Version: 6.00 Build 0)  -->
<!DOCTYPE svg PUBLIC "-//W3C//DTD SVG 1.1//EN" "http://www.w3.org/Graphics/SVG/1.1/DTD/svg11.dtd">
<svg version="1.1" id="Layer_1" xmlns="http://www.w3.org/2000/svg" xmlns:xlink="http://www.w3.org/1999/xlink" x="0px" y="0px"
	 width="233.065px" height="124.013px" viewBox="0 0 233.065 124.013" enable-background="new 0 0 233.065 124.013"
	 xml:space="preserve">
<g enable-background="new    ">
	<rect x="2.551" y="2.551" fill="#FFFFFF" width="227.965" height="118.91"/>
	<rect x="52.648" y="2.883" fill="#F7BB81" width="139.105" height="118.578"/>
	<rect x="2.551" y="2.551" fill="none" stroke="#1A1A1A" stroke-width="2.2677" width="227.965" height="118.91"/>
	<polygon fill="#FFEB00" points="84.656,100.45 91.16,100.375 93.406,94.066 95.344,100.489 101.852,100.375 96.523,104.567 
		98.578,111.023 93.289,107.208 87.926,111.023 89.98,104.527 	"/>
	<polygon fill="none" stroke="#B3B3B3" stroke-width="0.8" points="84.656,100.45 91.16,100.375 93.406,94.066 95.344,100.489 
		101.852,100.375 96.523,104.567 98.578,111.023 93.289,107.208 87.926,111.023 89.98,104.527 	"/>
	<polygon fill="#FFEB00" points="109.504,108.114 116.008,108.039 118.254,101.735 120.195,108.152 126.699,108.039 
		121.375,112.231 123.43,118.688 118.141,114.871 112.777,118.688 114.832,112.192 	"/>
	<polygon fill="none" stroke="#B3B3B3" stroke-width="0.8" points="109.504,108.114 116.008,108.039 118.254,101.735 
		120.195,108.152 126.699,108.039 121.375,112.231 123.43,118.688 118.141,114.871 112.777,118.688 114.832,112.192 	"/>
	<polygon fill="#FFEB00" points="135.586,100.54 142.094,100.461 144.336,94.157 146.277,100.574 152.781,100.461 147.457,104.653 
		149.512,111.11 144.223,107.296 138.859,111.11 140.914,104.618 	"/>
	<polygon fill="none" stroke="#B3B3B3" stroke-width="0.8" points="135.586,100.54 142.094,100.461 144.336,94.157 146.277,100.574 
		152.781,100.461 147.457,104.653 149.512,111.11 144.223,107.296 138.859,111.11 140.914,104.618 	"/>
	<polygon fill="#FFEB00" points="153.773,83.234 160.277,83.161 162.523,76.856 164.461,83.274 170.969,83.161 165.641,87.351 
		167.695,93.808 162.406,89.997 157.043,93.808 159.098,87.313 	"/>
	<polygon fill="none" stroke="#B3B3B3" stroke-width="0.8" points="153.773,83.234 160.277,83.161 162.523,76.856 164.461,83.274 
		170.969,83.161 165.641,87.351 167.695,93.808 162.406,89.997 157.043,93.808 159.098,87.313 	"/>
	<polygon fill="#FFEB00" points="159.969,57.605 166.477,57.527 168.719,51.223 170.66,57.641 177.168,57.527 171.84,61.719 
		173.895,68.176 168.605,64.363 163.242,68.176 165.297,61.684 	"/>
	<polygon fill="none" stroke="#B3B3B3" stroke-width="0.8" points="159.969,57.605 166.477,57.527 168.719,51.223 170.66,57.64 
		177.168,57.527 171.84,61.719 173.895,68.176 168.605,64.363 163.242,68.176 165.297,61.684 	"/>
	<polygon fill="#FFEB00" points="152.996,33.488 159.504,33.415 161.75,27.106 163.688,33.527 170.195,33.415 164.867,37.605 
		166.922,44.063 161.633,40.246 156.27,44.063 158.324,37.567 	"/>
	<polygon fill="none" stroke="#B3B3B3" stroke-width="0.8" points="152.996,33.488 159.504,33.415 161.75,27.106 163.688,33.527 
		170.195,33.415 164.867,37.605 166.922,44.063 161.633,40.246 156.27,44.063 158.324,37.567 	"/>
	<polygon fill="#FFEB00" points="134.684,16.079 141.188,16.004 143.434,9.699 145.375,16.118 151.879,16.004 146.555,20.195 
		148.609,26.652 143.32,22.84 137.957,26.652 140.012,20.156 	"/>
	<polygon fill="none" stroke="#B3B3B3" stroke-width="0.8" points="134.684,16.079 141.188,16.004 143.434,9.699 145.375,16.118 
		151.879,16.004 146.555,20.195 148.609,26.652 143.32,22.84 137.957,26.652 140.012,20.156 	"/>
	<polygon fill="#FFEB00" points="110.105,10.398 116.609,10.321 118.855,4.016 120.797,10.433 127.301,10.321 121.973,14.512 
		124.027,20.969 118.742,17.156 113.375,20.969 115.43,14.477 	"/>
	<polygon fill="none" stroke="#B3B3B3" stroke-width="0.8" points="110.105,10.398 116.609,10.321 118.855,4.016 120.797,10.433 
		127.301,10.321 121.973,14.512 124.027,20.969 118.742,17.156 113.375,20.969 115.43,14.477 	"/>
	<polygon fill="#FFEB00" points="84.969,16.207 91.473,16.133 93.719,9.825 95.66,16.246 102.164,16.133 96.836,20.324 
		98.891,26.781 93.605,22.964 88.238,26.781 90.293,20.286 	"/>
	<polygon fill="none" stroke="#B3B3B3" stroke-width="0.8" points="84.969,16.207 91.473,16.133 93.719,9.825 95.66,16.246 
		102.164,16.133 96.836,20.324 98.891,26.781 93.605,22.964 88.238,26.781 90.293,20.286 	"/>
	<polygon fill="#FFEB00" points="66.609,83.621 73.117,83.547 75.359,77.239 77.301,83.66 83.809,83.547 78.48,87.739 
		80.535,94.196 75.246,90.379 69.883,94.196 71.938,87.7 	"/>
	<polygon fill="none" stroke="#B3B3B3" stroke-width="0.8" points="66.609,83.621 73.117,83.547 75.359,77.239 77.301,83.66 
		83.809,83.547 78.48,87.739 80.535,94.196 75.246,90.379 69.883,94.196 71.938,87.7 	"/>
	<polygon fill="#FFEB00" points="59.938,57.434 66.445,57.356 68.688,51.051 70.629,57.469 77.137,57.356 71.809,61.547 
		73.863,68.004 68.574,64.192 63.211,68.004 65.266,61.512 	"/>
	<polygon fill="none" stroke="#B3B3B3" stroke-width="0.8" points="59.938,57.434 66.445,57.356 68.688,51.051 70.629,57.469 
		77.137,57.356 71.809,61.547 73.863,68.004 68.574,64.192 63.211,68.004 65.266,61.512 	"/>
	<polygon fill="#FFEB00" points="66.609,33.016 73.117,32.941 75.359,26.637 77.301,33.055 83.809,32.941 78.48,37.133 
		80.535,43.59 75.246,39.777 69.883,43.59 71.938,37.094 	"/>
	<polygon fill="none" stroke="#B3B3B3" stroke-width="0.8" points="66.609,33.016 73.117,32.941 75.359,26.637 77.301,33.055 
		83.809,32.941 78.48,37.133 80.535,43.59 75.246,39.777 69.883,43.59 71.938,37.094 	"/>
	<path d="M112.578,20.364H63.855v45.925c0,0,11.391-4.078,17.243-3.593c16.394,1.359,19.914,8.66,20.254,18.172
		c0.441,12.438-10.391,17.223-20.454,18.171c-6.261,0.59-18.246-4.793-18.246-4.793v11.383c0,0,13.453,4.192,20.25,3.396
		c25.883-3.04,31.485-14.594,32.082-28.957c0.524-12.563-9.007-26.399-25.867-27.555c-4.762-0.328-14.234,1.597-14.234,1.597V30.546
		h37.695V20.364z"/>
	<path fill="none" stroke="#604141" stroke-width="0.8" d="M112.578,20.364H63.855v45.925c0,0,11.391-4.078,17.243-3.593
		c16.394,1.359,19.914,8.66,20.254,18.172c0.441,12.438-10.391,17.223-20.454,18.171c-6.261,0.59-18.246-4.793-18.246-4.793v11.383
		c0,0,13.453,4.192,20.25,3.396c25.883-3.04,31.485-14.594,32.082-28.957c0.524-12.563-9.007-26.399-25.867-27.555
		c-4.762-0.328-14.234,1.597-14.234,1.597V30.546h37.695V20.364z"/>
	<path d="M149.934,30.434c13.918-0.465,16.922,19.199,16.878,32.02c-0.065,19.988-4.979,36.336-16.038,36.145
		c-14.176-0.242-17.84-21.395-17.574-35.859C133.445,49.551,137.441,30.852,149.934,30.434z M151.277,18.645
		c-0.395,0-0.797,0.015-1.199,0.023c-23.113,0.559-30.547,25.472-31,43.055c-0.496,19.289,6.332,47.493,32.559,47.817
		c20.461,0.253,29.531-21.548,29.656-48.195C181.371,44.516,176.008,18.852,151.277,18.645z"/>
	<path fill="none" stroke="#604141" stroke-width="0.7682" d="M149.934,30.434c13.918-0.465,16.922,19.199,16.878,32.02
		c-0.065,19.988-4.979,36.336-16.038,36.145c-14.176-0.242-17.84-21.395-17.574-35.859
		C133.445,49.551,137.441,30.852,149.934,30.434z M151.277,18.645c-0.395,0-0.797,0.015-1.199,0.023
		c-23.113,0.559-30.547,25.472-31,43.055c-0.496,19.289,6.332,47.493,32.559,47.817c20.461,0.253,29.531-21.548,29.656-48.195
		C181.371,44.516,176.008,18.852,151.277,18.645z"/>
	<path fill="#B3B3B3" d="M199.75,91.766h0.156c0,0,0.141-0.02,0.137,0.179c-0.008,0.177-0.148,0.177-0.148,0.177h-0.133
		l-0.012-0.353V91.766z M216.363,91.738c0.082,0.004,0.184,0.099,0.188,0.328c0.008,0.235-0.094,0.349-0.195,0.345
		c-0.102-0.009-0.191-0.125-0.188-0.375C216.168,91.79,216.285,91.73,216.363,91.738z M215.094,91.715l0.168,0.011
		c0.098,0.032,0.086,0.223,0,0.25h-0.168V91.715z M198.262,91.594l0.332,0.672v0.464h0.27l0.012-0.464l0.332-0.665h-0.269
		l-0.2,0.415l-0.207-0.422H198.262z M197.293,91.583l-0.012,1.129h0.688v-0.168h-0.457v-0.31h0.457v-0.176h-0.457v-0.312h0.457
		v-0.164H197.293z M199.5,91.57l-0.012,1.16h0.281v-0.375h0.125c0,0,0.398,0.012,0.387-0.433c-0.012-0.396-0.406-0.353-0.406-0.353
		H199.5z M201.031,91.54c-0.188,0-0.508,0.094-0.512,0.59c0,0.229,0.148,0.476,0.148,0.476h-0.188l0.008,0.137h0.43l-0.012-0.18
		c0,0-0.121-0.207-0.113-0.433c0.008-0.254,0.152-0.344,0.227-0.344c0.102,0.004,0.219,0.081,0.219,0.344
		c0.004,0.226-0.133,0.433-0.133,0.433v0.18h0.426l0.012-0.125l-0.188-0.012c0,0,0.176-0.246,0.176-0.476
		C201.531,91.633,201.215,91.536,201.031,91.54z M216.387,91.488c-0.195-0.012-0.477,0.095-0.48,0.528
		c-0.004,0.433,0.207,0.645,0.449,0.652s0.48-0.195,0.469-0.603C216.812,91.661,216.578,91.497,216.387,91.488z M214.824,91.488
		v1.16h0.27v-0.457h0.145c0.066,0.138,0.133,0.282,0.148,0.457h0.281c-0.047-0.218-0.125-0.401-0.211-0.569
		c0.246-0.191,0.156-0.535-0.094-0.582l-0.539-0.013V91.488z M213.613,91.488l0.012,0.828c0.031,0.317,0.348,0.36,0.437,0.364
		c0.091,0,0.419-0.047,0.45-0.364l0.008-0.828h-0.289l-0.012,0.806c-0.004,0.112-0.094,0.164-0.157,0.155
		c-0.073-0.004-0.132-0.055-0.144-0.163l-0.012-0.802L213.613,91.488z M212.637,91.476v1.18h0.688v-0.258h-0.418v-0.229h0.418V91.93
		h-0.418v-0.207h0.426v-0.239l-0.695-0.011V91.476z M207.457,90.937c-0.191,0.004-0.254,0.293-0.258,0.496
		c-0.008,0.223,0.059,0.555,0.281,0.559c0.172,0.005,0.238-0.25,0.238-0.559C207.719,91.234,207.676,90.93,207.457,90.937z
		 M206.113,90.781h0.762v0.156h-0.594v0.364c0,0,0.157-0.028,0.23-0.024c0.262,0.021,0.402,0.231,0.395,0.427
		c-0.008,0.223-0.098,0.397-0.5,0.444c-0.105,0.013-0.313-0.05-0.313-0.05v-0.176c0,0,0.184,0.082,0.281,0.074
		c0.156-0.017,0.328-0.091,0.324-0.281c-0.008-0.149-0.059-0.258-0.313-0.282c-0.094-0.003-0.273,0.055-0.273,0.055V90.781z
		 M207.469,90.75c0.004,0,0.004,0,0.012,0c0.383,0.004,0.469,0.401,0.469,0.664c-0.004,0.409-0.141,0.75-0.461,0.746
		c-0.406-0.009-0.516-0.438-0.508-0.738C206.988,91.152,207.109,90.758,207.469,90.75z M195.188,90.191v0.692h1.175v-0.685h-0.25
		v0.418h-0.238v-0.418h-0.238v0.418h-0.198v-0.426H195.188z M217.699,89.704v0.426h0.164c0,0,0.211-0.121,0.438-0.113
		c0.258,0.007,0.348,0.152,0.344,0.226c0,0.103-0.078,0.216-0.344,0.22c-0.227,0-0.438-0.146-0.438-0.146l-0.164,0.008v0.427h0.125
		v-0.177c0,0,0.246,0.177,0.477,0.177c0.5,0,0.609-0.324,0.605-0.509c-0.004-0.184-0.095-0.495-0.595-0.495
		c-0.229,0-0.479,0.145-0.479,0.145l-0.008-0.188H217.699z M195.188,89.008l0.011,0.293L196,89.312
		c0.109,0.004,0.172,0.09,0.168,0.153c-0.008,0.074-0.059,0.133-0.168,0.144l-0.812,0.013v0.293l0.831-0.013
		c0.32-0.03,0.375-0.347,0.375-0.437c0-0.086-0.055-0.414-0.375-0.446L195.188,89.008z M218.312,88.976h0.356v0.146
		c0,0,0.021,0.141-0.18,0.137c-0.18-0.004-0.177-0.146-0.177-0.146V88.976z M217.699,88.719V89h0.375v0.112
		c0,0-0.016,0.396,0.438,0.384c0.395-0.009,0.352-0.396,0.352-0.396V88.73L217.699,88.719z M195.551,88.211
		c0.055,0,0.113,0.019,0.125,0.062v0.164h-0.25v-0.164C195.441,88.223,195.496,88.211,195.551,88.211z M196.355,87.867
		c-0.219,0.048-0.395,0.125-0.563,0.212c-0.191-0.246-0.547-0.156-0.594,0.09l-0.011,0.539h1.175v-0.271h-0.457v-0.144
		c0.137-0.063,0.273-0.129,0.449-0.146V87.867z M218.844,87.484l-0.668,0.332h-0.477v0.282h0.469l0.664,0.339v-0.269l-0.406-0.207
		l0.418-0.207V87.484z M195.77,86.988c0.234-0.004,0.348,0.099,0.344,0.195c-0.004,0.103-0.113,0.192-0.363,0.188
		c-0.25,0-0.316-0.117-0.312-0.195C195.441,87.094,195.535,86.992,195.77,86.988z M195.781,86.719
		c-0.406,0.011-0.574,0.242-0.582,0.433c-0.011,0.196,0.094,0.474,0.531,0.481c0.434,0.004,0.637-0.207,0.645-0.45
		C196.383,86.945,196.188,86.708,195.781,86.719z M217.719,86.523v0.685h0.176l-0.008-0.47l0.313,0.013v0.444h0.176V86.75h0.313
		v0.457h0.175v-0.685H217.719z M209.793,76.543c-1.191,0.043-1.57,1.901-1.594,3.211c-0.027,1.437,0.328,3.531,1.676,3.554
		c1.051,0.021,1.516-1.601,1.52-3.585C211.398,78.454,211.117,76.497,209.793,76.543z M201.531,75.547h4.637v1.008h-3.594v2.339
		c0,0,0.898-0.187,1.352-0.156c1.605,0.117,2.52,1.488,2.469,2.738c-0.055,1.426-0.59,2.567-3.051,2.872
		c-0.648,0.078-1.926-0.332-1.926-0.332v-1.141c0,0,1.133,0.535,1.727,0.476c0.957-0.093,1.992-0.57,1.949-1.804
		c-0.032-0.942-0.367-1.668-1.926-1.801c-0.559-0.052-1.637,0.362-1.637,0.362V75.547z M209.801,75.372c0.039,0,0.078,0,0.117,0
		c2.352,0.02,2.859,2.569,2.852,4.237c-0.012,2.649-0.863,4.813-2.813,4.789c-2.492-0.031-3.148-2.832-3.102-4.746
		C206.898,77.906,207.602,75.426,209.801,75.372z M195.168,73.031v0.673l1.144,0.012v-0.685h-0.175l0.008,0.457h-0.313v-0.444
		h-0.176v0.444h-0.313v-0.457H195.168z M218.449,72.801c0.25,0.004,0.316,0.129,0.313,0.207c-0.008,0.082-0.109,0.172-0.344,0.179
		c-0.234,0.004-0.348-0.097-0.344-0.199C218.078,72.887,218.195,72.801,218.449,72.801z M218.469,72.543
		c-0.438-0.004-0.637,0.207-0.645,0.444c-0.008,0.242,0.188,0.488,0.594,0.478c0.406-0.012,0.574-0.242,0.582-0.435
		C219.008,72.84,218.906,72.547,218.469,72.543z M195.199,71.797v0.269l0.406,0.2l-0.417,0.207v0.269l0.667-0.331h0.477v-0.27
		h-0.469L195.199,71.797z M218.52,71.734h0.25v0.168c-0.027,0.099-0.223,0.086-0.25,0V71.734z M217.832,71.476v0.258h0.461v0.146
		c-0.141,0.065-0.273,0.129-0.449,0.147v0.278c0.218-0.043,0.395-0.122,0.563-0.207c0.191,0.242,0.535,0.156,0.582-0.094
		l0.023-0.528H217.832z M195.543,70.969c0.18,0.004,0.176,0.144,0.176,0.144v0.138l-0.355,0.008v-0.153
		C195.363,71.105,195.344,70.965,195.543,70.969z M195.52,70.73c-0.395,0.008-0.352,0.403-0.352,0.403v0.375l1.164,0.011v-0.281
		h-0.375v-0.125C195.957,71.113,195.973,70.719,195.52,70.73z M219.012,70.266l-0.836,0.007c-0.316,0.032-0.371,0.36-0.375,0.446
		c0,0.089,0.047,0.406,0.367,0.437l0.844,0.021L219,70.875h-0.801c-0.113-0.004-0.172-0.103-0.168-0.164
		c0.008-0.074,0.059-0.133,0.168-0.149L219,70.555L219.012,70.266z M196.207,69.476v0.188c0,0-0.246-0.181-0.477-0.177
		c-0.5,0-0.609,0.313-0.605,0.496c0.004,0.185,0.094,0.508,0.594,0.508c0.23,0,0.48-0.144,0.48-0.144l0.008,0.188l0.125-0.013
		v-0.425l-0.164,0.011c0,0-0.211,0.121-0.438,0.114c-0.258-0.008-0.348-0.153-0.344-0.227c0-0.103,0.078-0.22,0.344-0.22
		c0.227,0,0.438,0.134,0.438,0.134h0.164v-0.427L196.207,69.476z M217.832,69.29v0.694h0.25V69.57h0.229v0.403h0.25V69.57h0.2v0.414
		l0.25,0.013V69.29H217.832z M207.551,68.348c-0.191,0.003-0.254,0.3-0.258,0.507c-0.008,0.224,0.051,0.543,0.269,0.547
		c0.173,0.004,0.25-0.25,0.25-0.558C207.812,68.644,207.77,68.34,207.551,68.348z M206.207,68.191h0.75v0.164h-0.582v0.364
		c0,0,0.145-0.036,0.219-0.032c0.262,0.021,0.414,0.243,0.406,0.438c-0.008,0.223-0.098,0.397-0.5,0.444
		c-0.105,0.013-0.312-0.051-0.312-0.051V69.34c0,0,0.183,0.082,0.28,0.074c0.156-0.017,0.328-0.086,0.324-0.281
		c-0.008-0.146-0.07-0.258-0.324-0.278c-0.09-0.007-0.262,0.051-0.262,0.051V68.191z M207.551,68.172c0.008,0,0.016,0,0.023,0
		c0.383,0.004,0.469,0.401,0.469,0.664c-0.004,0.41-0.141,0.75-0.461,0.746c-0.406-0.009-0.516-0.449-0.508-0.746
		C207.082,68.562,207.195,68.18,207.551,68.172z M201.02,67.891c0.082,0.007,0.172,0.101,0.18,0.332
		c0.004,0.234-0.098,0.347-0.199,0.343c-0.102-0.008-0.191-0.112-0.188-0.362C200.816,67.954,200.941,67.887,201.02,67.891z
		 M199.738,67.872l0.168,0.012c0.102,0.031,0.086,0.222,0,0.25h-0.168V67.872z M207.082,67.676
		c-1.293,0.117-2.602,0.229-4.051,2.777h-0.988v-1.31h-5.324v5.071h1.324v1.75c-1.402,0.871-2.516,1.996-2.773,4.176
		c0.215,2.183,1.332,3.304,2.73,4.175v1.782h-1.363v5.078h5.32V89.84H203c1.449,2.547,2.746,2.647,4.043,2.765
		c1.293-0.144,2.602-0.25,4.051-2.797h0.968v1.317h5.333v-5.078h-1.313v-1.75c1.402-0.871,2.516-2,2.773-4.156
		c-0.215-2.153-1.32-3.274-2.719-4.145v-1.97h1.363v-5.078h-5.324v1.535h-1.039C209.684,67.937,208.375,67.82,207.082,67.676z
		 M201.043,67.644c-0.195-0.007-0.484,0.106-0.492,0.539c-0.004,0.434,0.207,0.633,0.449,0.641c0.242,0.009,0.492-0.194,0.48-0.601
		C201.469,67.82,201.234,67.652,201.043,67.644z M199.48,67.644v1.172h0.27v-0.457h0.137c0.063,0.138,0.129,0.271,0.145,0.446h0.28
		c-0.046-0.219-0.123-0.403-0.206-0.571c0.242-0.19,0.164-0.53-0.086-0.582L199.48,67.644z M198.262,67.644l0.008,0.829
		c0.031,0.316,0.359,0.363,0.449,0.363s0.406-0.047,0.438-0.363l0.02-0.829h-0.301v0.81c-0.004,0.108-0.105,0.172-0.168,0.163
		c-0.074-0.004-0.129-0.055-0.146-0.163v-0.81H198.262z M197.281,67.633v1.179h0.699v-0.246h-0.419v-0.237h0.407V68.09h-0.407
		v-0.199h0.419l0.008-0.247L197.281,67.633z M215.238,67.622h0.148c0,0,0.141-0.023,0.133,0.176
		c-0.004,0.179-0.145,0.176-0.145,0.176h-0.137V67.622z M213.738,67.445l0.336,0.672v0.47h0.281v-0.47l0.333-0.659h-0.263
		l-0.207,0.401l-0.207-0.414H213.738z M214.988,67.426l-0.008,1.16h0.281v-0.375h0.113c0,0,0.398,0.012,0.387-0.435
		c-0.012-0.394-0.398-0.351-0.398-0.351H214.988z M212.77,67.426v1.14h0.688v-0.175l-0.469,0.007V68.09h0.461v-0.176H213v-0.313
		h0.457v-0.175H212.77z M216.512,67.383c-0.188,0.004-0.512,0.093-0.512,0.59c0,0.23,0.156,0.488,0.156,0.488h-0.188v0.125h0.426
		v-0.168c0,0-0.121-0.207-0.113-0.435c0.008-0.254,0.157-0.343,0.23-0.34c0.102,0,0.215,0.079,0.219,0.34
		c0,0.228-0.148,0.435-0.148,0.435v0.168h0.43l0.008-0.125h-0.176c0,0,0.18-0.246,0.176-0.478
		C217.02,67.488,216.695,67.383,216.512,67.383z"/>
	<path d="M18.59,99.351H8.816v8.942c0,0,2.286-0.793,3.457-0.699c3.289,0.265,3.997,1.687,4.063,3.539
		c0.09,2.418-2.082,3.351-4.102,3.535c-1.254,0.117-3.66-0.935-3.66-0.935v2.22c0,0,2.699,0.815,4.063,0.659
		c5.191-0.594,6.312-2.844,6.433-5.637c0.106-2.445-1.804-5.14-5.187-5.367c-0.953-0.062-2.856,0.313-2.856,0.313v-4.586h7.563
		V99.351z M26.078,101.312c2.793-0.089,3.395,3.739,3.387,6.235c-0.016,3.89-1,7.074-3.219,7.035
		c-2.84-0.047-3.578-4.164-3.523-6.981C22.773,105.036,23.574,101.394,26.078,101.312z M26.348,99.019c-0.078,0-0.16,0-0.239,0.004
		c-4.636,0.11-6.125,4.961-6.218,8.383c-0.098,3.755,1.269,9.246,6.531,9.31c4.101,0.047,5.922-4.196,5.945-9.383
		C32.387,104.055,31.309,99.058,26.348,99.019z"/>
	<rect x="27.488" y="6.344" fill-rule="evenodd" clip-rule="evenodd" fill="#2435AB" width="25.199" height="16.625"/>
	<polygon fill-rule="evenodd" clip-rule="evenodd" fill="#FFF000" points="34.934,15.508 34.391,15.105 33.82,15.504 34.043,14.875 
		33.48,14.465 34.16,14.476 34.383,13.828 34.582,14.465 35.281,14.473 34.727,14.855 	"/>
	<polygon fill-rule="evenodd" clip-rule="evenodd" fill="#FFF000" points="45.898,15.535 45.352,15.133 44.785,15.531 
		45.004,14.902 44.445,14.496 45.125,14.504 45.348,13.855 45.547,14.492 46.246,14.5 45.688,14.883 	"/>
	<polygon fill-rule="evenodd" clip-rule="evenodd" fill="#FFF000" points="45.16,12.836 44.613,12.437 44.047,12.836 44.266,12.203 
		43.707,11.797 44.387,11.805 44.609,11.156 44.809,11.797 45.508,11.801 44.949,12.183 	"/>
	<polygon fill-rule="evenodd" clip-rule="evenodd" fill="#FFF000" points="43.199,10.891 42.656,10.488 42.086,10.887 
		42.309,10.258 41.746,9.848 42.426,9.859 42.648,9.211 42.848,9.848 43.547,9.855 42.988,10.238 	"/>
	<polygon fill-rule="evenodd" clip-rule="evenodd" fill="#FFF000" points="40.445,10.141 39.898,9.738 39.332,10.137 39.551,9.504 
		38.992,9.098 39.672,9.109 39.895,8.461 40.094,9.098 40.793,9.101 40.234,9.488 	"/>
	<polygon fill-rule="evenodd" clip-rule="evenodd" fill="#FFF000" points="37.719,10.863 37.172,10.461 36.605,10.859 
		36.824,10.226 36.266,9.82 36.945,9.832 37.168,9.183 37.367,9.82 38.066,9.828 37.508,10.211 	"/>
	<polygon fill-rule="evenodd" clip-rule="evenodd" fill="#FFF000" points="35.672,12.808 35.129,12.41 34.559,12.805 34.781,12.176 
		34.219,11.769 34.898,11.777 35.121,11.129 35.32,11.766 36.02,11.773 35.465,12.156 	"/>
	<polygon fill-rule="evenodd" clip-rule="evenodd" fill="#FFF000" points="35.672,18.262 35.129,17.859 34.559,18.258 
		34.781,17.625 34.219,17.219 34.898,17.23 35.121,16.582 35.32,17.219 36.02,17.226 35.465,17.609 	"/>
	<polygon fill-rule="evenodd" clip-rule="evenodd" fill="#FFF000" points="37.66,20.262 37.117,19.863 36.547,20.262 36.77,19.629 
		36.207,19.223 36.887,19.234 37.109,18.586 37.309,19.223 38.008,19.226 37.453,19.609 	"/>
	<polygon fill-rule="evenodd" clip-rule="evenodd" fill="#FFF000" points="40.418,20.988 39.871,20.586 39.305,20.984 
		39.523,20.351 38.961,19.945 39.645,19.957 39.863,19.308 40.066,19.945 40.762,19.949 40.207,20.336 	"/>
	<polygon fill-rule="evenodd" clip-rule="evenodd" fill="#FFF000" points="43.172,20.262 42.625,19.863 42.059,20.262 
		42.277,19.629 41.719,19.223 42.398,19.234 42.621,18.586 42.82,19.223 43.52,19.226 42.961,19.609 	"/>
	<polygon fill-rule="evenodd" clip-rule="evenodd" fill="#FFF000" points="45.215,18.262 44.672,17.859 44.102,18.258 
		44.324,17.625 43.762,17.219 44.441,17.23 44.664,16.582 44.863,17.219 45.562,17.226 45.008,17.609 	"/>
	<polygon opacity="0.8824" fill="#CCCCCC" points="41.949,110.083 37.141,110.083 37.117,116.531 41.953,116.531 41.953,115.543 
		38.68,115.562 38.703,113.79 41.902,113.79 41.902,112.801 38.727,112.801 38.727,111.031 41.949,111.031 	"/>
	<polygon fill="none" stroke="#4D4D4D" stroke-width="0.9424" points="41.949,110.083 37.141,110.083 37.117,116.531 
		41.953,116.531 41.953,115.543 38.68,115.562 38.703,113.79 41.902,113.79 41.902,112.801 38.727,112.801 38.727,111.031 
		41.949,111.031 	"/>
	<polygon opacity="0.8824" fill="#CCCCCC" points="46.328,113.965 43.965,110.176 45.891,110.176 47.352,112.547 48.781,110.226 
		50.676,110.226 48.297,114.012 48.266,116.613 46.328,116.613 	"/>
	<polygon fill="none" stroke="#4D4D4D" stroke-width="0.9424" points="46.328,113.965 43.965,110.176 45.891,110.176 
		47.352,112.547 48.781,110.227 50.676,110.227 48.297,114.012 48.266,116.613 46.328,116.613 	"/>
	<path opacity="0.8824" fill="#CCCCCC" d="M54.523,111.156l1.047,0.027c0,0,1.008-0.14,0.969,0.981
		c-0.031,1.016-1.031,0.996-1.031,0.996h-0.953L54.523,111.156z M52.758,110.074l-0.063,6.56h1.953v-2.103h0.86
		c0,0,2.789,0.06,2.707-2.479c-0.07-2.228-2.828-1.978-2.828-1.978H52.758z"/>
	<path fill="none" stroke="#4D4D4D" stroke-width="0.9424" d="M54.523,111.156l1.047,0.028c0,0,1.008-0.141,0.969,0.98
		c-0.031,1.016-1.031,0.995-1.031,0.995h-0.953L54.523,111.156z M52.758,110.074l-0.063,6.56h1.953v-2.103h0.86
		c0,0,2.789,0.06,2.707-2.479c-0.07-2.228-2.828-1.978-2.828-1.978H52.758z"/>
	<path opacity="0.8824" fill="#CCCCCC" d="M65.039,113.25c0.008,1.276-1.004,2.465-1.004,2.465l0.012,0.94h3.015l0.043-0.698
		l-1.285-0.013c0,0,1.278-1.405,1.274-2.711c-0.008-2.808-2.285-3.405-3.582-3.39c-1.313,0.011-3.574,0.539-3.582,3.351
		c-0.004,1.302,1.054,2.707,1.054,2.707l-1.332,0.017l0.047,0.737h3.012l-0.031-0.983c0,0-0.887-1.188-0.828-2.465
		c0.062-1.438,1.089-1.938,1.617-1.931c0.715,0.013,1.562,0.489,1.574,1.974H65.039z"/>
	<path fill="none" stroke="#4D4D4D" stroke-width="0.9424" d="M65.039,113.25c0.008,1.276-1.004,2.465-1.004,2.465l0.012,0.94h3.015
		l0.043-0.698l-1.285-0.013c0,0,1.278-1.405,1.274-2.711c-0.008-2.808-2.285-3.406-3.582-3.39c-1.313,0.011-3.574,0.539-3.582,3.351
		c-0.004,1.301,1.054,2.707,1.054,2.707l-1.332,0.017l0.047,0.737h3.012l-0.031-0.983c0,0-0.887-1.188-0.828-2.465
		c0.062-1.438,1.089-1.938,1.617-1.931c0.715,0.013,1.562,0.489,1.574,1.974H65.039z"/>
	<polygon fill="#333333" points="41.934,101.629 36.922,101.605 36.922,108.801 41.859,108.801 41.859,107.262 38.91,107.262 
		38.91,105.848 41.832,105.848 41.832,104.375 38.91,104.375 38.91,103.144 41.906,103.144 	"/>
	<path fill="#333333" d="M50.324,106.738l0.086-5.09l-2.109,0.024l-0.043,4.914c-0.035,0.676-0.696,1.03-1.141,1
		c-0.535-0.039-0.953-0.34-1.055-1.013l-0.046-4.913l-2.11-0.023l0.09,5.089c0.211,1.935,2.524,2.239,3.164,2.243
		C47.797,108.976,50.113,108.672,50.324,106.738z"/>
	<path fill="#333333" d="M54.477,103.066l1.187,0.032c0.719,0.175,0.613,1.355,0,1.519h-1.187V103.066z M52.586,101.637v7.152h1.906
		v-2.785h1.016c0.457,0.844,0.945,1.672,1.062,2.737h2c-0.324-1.331-0.871-2.43-1.476-3.452c1.746-1.168,1.121-3.273-0.66-3.563
		L52.586,101.637z"/>
	<path fill="#333333" d="M63.598,103.156c0.578,0.031,1.273,0.63,1.308,2.056c0.035,1.43-0.691,2.129-1.414,2.101
		c-0.722-0.026-1.351-0.738-1.34-2.269C62.168,103.516,63.023,103.129,63.598,103.156z M63.754,101.668
		c-1.379-0.056-3.426,0.598-3.461,3.254c-0.035,2.66,1.473,3.91,3.199,3.957c1.723,0.047,3.469-1.172,3.383-3.653
		C66.789,102.75,65.133,101.719,63.754,101.668z"/>
	<g id="EURion_constellation">
		<path fill="#FFEB00" d="M55.473,50.016c0.207,0,0.379,0.167,0.379,0.375c0,0.207-0.172,0.375-0.379,0.375
			s-0.375-0.168-0.375-0.375C55.098,50.183,55.266,50.016,55.473,50.016z M55.473,49.656c-0.411,0-0.739,0.328-0.739,0.735
			c0,0.406,0.328,0.738,0.739,0.738c0.41,0,0.738-0.332,0.738-0.738C56.211,49.984,55.883,49.656,55.473,49.656z"/>
		<path fill="#FFEB00" d="M54.875,40.219c0.211,0,0.379,0.168,0.379,0.375s-0.168,0.375-0.379,0.375
			c-0.207,0-0.375-0.168-0.375-0.375S54.668,40.219,54.875,40.219z M54.875,39.855c-0.406,0-0.738,0.332-0.738,0.739
			c0,0.406,0.332,0.734,0.738,0.734c0.41,0,0.742-0.328,0.742-0.734C55.617,40.187,55.285,39.855,54.875,39.855z"/>
		<path fill="#FFEB00" d="M57.555,38.086c0.207,0,0.379,0.168,0.379,0.375c0,0.207-0.172,0.375-0.379,0.375
			s-0.379-0.168-0.379-0.375C57.176,38.254,57.348,38.086,57.555,38.086z M57.555,37.726c-0.41,0-0.739,0.329-0.739,0.735
			c0,0.406,0.329,0.734,0.739,0.734c0.41,0,0.738-0.328,0.738-0.734C58.293,38.055,57.965,37.726,57.555,37.726z"/>
		<path fill="#FFEB00" d="M61.305,37.137c0.207,0,0.379,0.168,0.379,0.375c0,0.211-0.172,0.379-0.379,0.379
			s-0.375-0.168-0.375-0.379C60.93,37.305,61.098,37.137,61.305,37.137z M61.305,36.777c-0.41,0-0.739,0.328-0.739,0.735
			c0,0.41,0.329,0.738,0.739,0.738c0.41,0,0.738-0.328,0.738-0.738C62.043,37.105,61.715,36.777,61.305,36.777z"/>
		<path fill="#FFEB00" d="M59.996,43.18c0.207,0,0.375,0.168,0.375,0.375s-0.168,0.375-0.375,0.375
			c-0.211,0-0.379-0.168-0.379-0.375S59.785,43.18,59.996,43.18z M59.996,42.816c-0.41,0-0.742,0.328-0.742,0.739
			c0,0.406,0.332,0.734,0.742,0.734c0.41,0,0.738-0.328,0.738-0.734C60.734,43.144,60.406,42.816,59.996,42.816z"/>
		<path fill="#FFEB00" d="M63.09,45.547c0.211,0,0.379,0.168,0.379,0.375s-0.168,0.375-0.379,0.375
			c-0.207,0-0.375-0.168-0.375-0.375S62.883,45.547,63.09,45.547z M63.09,45.187c-0.41,0-0.738,0.329-0.738,0.735
			c0,0.406,0.328,0.734,0.738,0.734c0.41,0,0.742-0.328,0.742-0.734C63.832,45.516,63.5,45.187,63.09,45.187z"/>
		<path fill="#FFEB00" d="M57.973,46.496c0.207,0,0.375,0.164,0.375,0.375c0,0.207-0.168,0.375-0.375,0.375
			c-0.211,0-0.379-0.168-0.379-0.375C57.594,46.66,57.762,46.496,57.973,46.496z M57.973,46.133c-0.411,0-0.743,0.328-0.743,0.738
			c0,0.406,0.332,0.734,0.743,0.734c0.406,0,0.738-0.328,0.738-0.734C58.711,46.461,58.379,46.133,57.973,46.133z"/>
		<path fill="#FFEB00" d="M69.875,43.769c0.211,0,0.379,0.168,0.379,0.375s-0.168,0.375-0.379,0.375
			c-0.207,0-0.375-0.168-0.375-0.375S69.668,43.769,69.875,43.769z M69.875,43.41c-0.406,0-0.738,0.328-0.738,0.734
			c0,0.407,0.332,0.739,0.738,0.739c0.41,0,0.742-0.332,0.742-0.739C70.617,43.738,70.285,43.41,69.875,43.41z"/>
		<path fill="#FFEB00" d="M74.699,43.828c0.207,0,0.375,0.168,0.375,0.375c0,0.211-0.168,0.375-0.375,0.375
			c-0.211,0-0.379-0.164-0.379-0.375C74.32,43.996,74.488,43.828,74.699,43.828z M74.699,43.469c-0.41,0-0.742,0.328-0.742,0.734
			c0,0.41,0.332,0.738,0.742,0.738c0.406,0,0.739-0.328,0.739-0.738C75.438,43.797,75.105,43.469,74.699,43.469z"/>
		<path fill="#FFEB00" d="M71.426,47.621c0.207,0,0.375,0.164,0.375,0.375c0,0.207-0.168,0.375-0.375,0.375
			c-0.211,0-0.379-0.168-0.379-0.375C71.047,47.785,71.215,47.621,71.426,47.621z M71.426,47.258c-0.41,0-0.742,0.328-0.742,0.738
			c0,0.406,0.332,0.734,0.742,0.734c0.406,0,0.738-0.328,0.738-0.734C72.164,47.586,71.832,47.258,71.426,47.258z"/>
		<path fill="#FFEB00" d="M76.363,48.566c0.211,0,0.379,0.168,0.379,0.375c0,0.207-0.168,0.375-0.379,0.375
			c-0.207,0-0.375-0.168-0.375-0.375C75.988,48.734,76.156,48.566,76.363,48.566z M76.363,48.207c-0.406,0-0.738,0.328-0.738,0.734
			c0,0.407,0.332,0.735,0.738,0.735c0.41,0,0.742-0.328,0.742-0.735C77.105,48.535,76.773,48.207,76.363,48.207z"/>
		<path fill="#FFEB00" d="M82.734,48.508c0.207,0,0.375,0.168,0.375,0.375s-0.168,0.375-0.375,0.375
			c-0.211,0-0.379-0.168-0.379-0.375S82.523,48.508,82.734,48.508z M82.734,48.148c-0.41,0-0.738,0.328-0.738,0.735
			c0,0.406,0.328,0.734,0.738,0.734c0.411,0,0.739-0.328,0.739-0.734C83.473,48.476,83.145,48.148,82.734,48.148z"/>
		<path fill="#FFEB00" d="M57.793,56.324c0.207,0,0.375,0.168,0.375,0.375S58,57.074,57.793,57.074s-0.379-0.168-0.379-0.375
			S57.586,56.324,57.793,56.324z M57.793,55.965c-0.41,0-0.738,0.328-0.738,0.734c0,0.406,0.328,0.734,0.738,0.734
			s0.738-0.328,0.738-0.734C58.531,56.293,58.203,55.965,57.793,55.965z"/>
		<path fill="#FFEB00" d="M55.352,59.758c0.21,0,0.378,0.168,0.378,0.375s-0.168,0.375-0.378,0.375
			c-0.207,0-0.375-0.168-0.375-0.375S55.145,59.758,55.352,59.758z M55.352,59.398c-0.411,0-0.739,0.328-0.739,0.735
			c0,0.406,0.328,0.734,0.739,0.734c0.41,0,0.742-0.328,0.742-0.734C56.094,59.726,55.762,59.398,55.352,59.398z"/>
		<path fill="#FFEB00" d="M57.734,63.547c0.207,0,0.375,0.168,0.375,0.375s-0.168,0.375-0.375,0.375
			c-0.211,0-0.379-0.168-0.379-0.375S57.523,63.547,57.734,63.547z M57.734,63.187c-0.41,0-0.742,0.329-0.742,0.735
			s0.332,0.738,0.742,0.738c0.407,0,0.739-0.332,0.739-0.738S58.141,63.187,57.734,63.187z"/>
		<path fill="#FFEB00" d="M54.578,64.613c0.207,0,0.379,0.168,0.379,0.375s-0.172,0.375-0.379,0.375s-0.375-0.168-0.375-0.375
			S54.371,64.613,54.578,64.613z M54.578,64.254c-0.41,0-0.738,0.328-0.738,0.733c0,0.406,0.328,0.735,0.738,0.735
			c0.41,0,0.738-0.329,0.738-0.735C55.316,64.583,54.988,64.254,54.578,64.254z"/>
		<path fill="#FFEB00" d="M64.637,65.5c0.211,0,0.379,0.168,0.379,0.375c0,0.211-0.168,0.375-0.379,0.375
			c-0.207,0-0.375-0.164-0.375-0.375C64.262,65.668,64.43,65.5,64.637,65.5z M64.637,65.141c-0.407,0-0.739,0.328-0.739,0.734
			c0,0.41,0.332,0.737,0.739,0.737c0.41,0,0.742-0.327,0.742-0.737C65.379,65.469,65.047,65.141,64.637,65.141z"/>
		<path fill="#FFEB00" d="M69.938,66.333c0.207,0,0.374,0.168,0.374,0.375s-0.167,0.375-0.374,0.375
			c-0.211,0-0.379-0.168-0.379-0.375S69.727,66.333,69.938,66.333z M69.938,65.969c-0.411,0-0.743,0.328-0.743,0.738
			c0,0.405,0.332,0.733,0.743,0.733c0.406,0,0.738-0.328,0.738-0.733C70.676,66.297,70.344,65.969,69.938,65.969z"/>
		<path fill="#FFEB00" d="M71.543,59.699c0.207,0,0.379,0.168,0.379,0.375s-0.172,0.375-0.379,0.375s-0.375-0.168-0.375-0.375
			S71.336,59.699,71.543,59.699z M71.543,59.34c-0.41,0-0.738,0.328-0.738,0.734c0,0.406,0.328,0.734,0.738,0.734
			s0.738-0.328,0.738-0.734C72.281,59.668,71.953,59.34,71.543,59.34z"/>
		<path fill="#FFEB00" d="M76.125,58.277c0.211,0,0.379,0.168,0.379,0.375s-0.168,0.375-0.379,0.375
			c-0.207,0-0.375-0.168-0.375-0.375S75.918,58.277,76.125,58.277z M76.125,57.918c-0.406,0-0.738,0.328-0.738,0.734
			c0,0.406,0.332,0.735,0.738,0.735c0.41,0,0.742-0.329,0.742-0.735C76.867,58.246,76.535,57.918,76.125,57.918z"/>
		<path fill="#FFEB00" d="M80.77,52.769c0.207,0,0.378,0.168,0.378,0.375s-0.171,0.375-0.378,0.375
			c-0.208,0-0.379-0.168-0.379-0.375S80.562,52.769,80.77,52.769z M80.77,52.41c-0.411,0-0.739,0.328-0.739,0.734
			c0,0.411,0.328,0.739,0.739,0.739c0.41,0,0.738-0.328,0.738-0.739C81.508,52.738,81.18,52.41,80.77,52.41z"/>
		<path fill="#FFEB00" d="M55.949,70.418c0.207,0,0.375,0.164,0.375,0.375c0,0.207-0.168,0.375-0.375,0.375
			c-0.211,0-0.379-0.168-0.379-0.375C55.57,70.583,55.738,70.418,55.949,70.418z M55.949,70.055c-0.41,0-0.742,0.328-0.742,0.738
			c0,0.405,0.332,0.733,0.742,0.733c0.406,0,0.739-0.328,0.739-0.733C56.688,70.383,56.355,70.055,55.949,70.055z"/>
		<path fill="#FFEB00" d="M54.637,72.372c0.211,0,0.379,0.168,0.379,0.375s-0.168,0.375-0.379,0.375
			c-0.207,0-0.375-0.168-0.375-0.375S54.43,72.372,54.637,72.372z M54.637,72.008c-0.407,0-0.739,0.332-0.739,0.738
			c0,0.405,0.332,0.733,0.739,0.733c0.41,0,0.742-0.328,0.742-0.733C55.379,72.34,55.047,72.008,54.637,72.008z"/>
		<path fill="#FFEB00" d="M59.637,69.172c0.211,0,0.379,0.168,0.379,0.375s-0.168,0.375-0.379,0.375
			c-0.207,0-0.375-0.168-0.375-0.375S59.43,69.172,59.637,69.172z M59.637,68.812c-0.407,0-0.739,0.329-0.739,0.735
			s0.332,0.738,0.739,0.738c0.41,0,0.742-0.332,0.742-0.738S60.047,68.812,59.637,68.812z"/>
		<path fill="#FFEB00" d="M60.176,72.844c0.207,0,0.375,0.168,0.375,0.375s-0.168,0.375-0.375,0.375
			c-0.211,0-0.379-0.168-0.379-0.375S59.965,72.844,60.176,72.844z M60.176,72.484c-0.41,0-0.742,0.328-0.742,0.735
			c0,0.406,0.332,0.734,0.742,0.734c0.406,0,0.738-0.328,0.738-0.734C60.914,72.812,60.582,72.484,60.176,72.484z"/>
		<path fill="#FFEB00" d="M64.875,69.23c0.211,0,0.379,0.168,0.379,0.375c0,0.211-0.168,0.375-0.379,0.375
			c-0.207,0-0.375-0.164-0.375-0.375C64.5,69.398,64.668,69.23,64.875,69.23z M64.875,68.872c-0.406,0-0.738,0.327-0.738,0.733
			c0,0.411,0.332,0.739,0.738,0.739c0.41,0,0.742-0.328,0.742-0.739C65.617,69.199,65.285,68.872,64.875,68.872z"/>
		<path fill="#FFEB00" d="M66.723,72.547c0.207,0,0.375,0.168,0.375,0.375s-0.168,0.375-0.375,0.375
			c-0.211,0-0.379-0.168-0.379-0.375S66.512,72.547,66.723,72.547z M66.723,72.187c-0.411,0-0.743,0.329-0.743,0.735
			c0,0.41,0.332,0.738,0.743,0.738c0.406,0,0.738-0.328,0.738-0.738C67.461,72.516,67.129,72.187,66.723,72.187z"/>
		<path fill="#FFEB00" d="M75.59,66.391c0.211,0,0.379,0.167,0.379,0.375c0,0.207-0.168,0.375-0.379,0.375
			c-0.207,0-0.375-0.168-0.375-0.375C75.215,66.558,75.383,66.391,75.59,66.391z M75.59,66.027c-0.41,0-0.738,0.332-0.738,0.739
			c0,0.406,0.328,0.734,0.738,0.734c0.41,0,0.742-0.328,0.742-0.734C76.332,66.359,76,66.027,75.59,66.027z"/>
		<path fill="#FFEB00" d="M81.781,62.836c0.207,0,0.379,0.168,0.379,0.375s-0.172,0.375-0.379,0.375
			c-0.207,0-0.375-0.168-0.375-0.375S81.574,62.836,81.781,62.836z M81.781,62.476c-0.41,0-0.738,0.329-0.738,0.735
			c0,0.41,0.328,0.737,0.738,0.737c0.41,0,0.739-0.327,0.739-0.737C82.52,62.805,82.191,62.476,81.781,62.476z"/>
		<path fill="#FFEB00" d="M82.137,58.93c0.211,0,0.379,0.168,0.379,0.375s-0.168,0.375-0.379,0.375
			c-0.207,0-0.375-0.168-0.375-0.375S81.93,58.93,82.137,58.93z M82.137,58.566c-0.407,0-0.739,0.332-0.739,0.739
			c0,0.406,0.332,0.734,0.739,0.734c0.41,0,0.742-0.328,0.742-0.734C82.879,58.898,82.547,58.566,82.137,58.566z"/>
		<path fill="#FFEB00" d="M85.949,59.937c0.207,0,0.375,0.164,0.375,0.375c0,0.207-0.168,0.375-0.375,0.375
			c-0.211,0-0.379-0.168-0.379-0.375C85.57,60.101,85.738,59.937,85.949,59.937z M85.949,59.574c-0.41,0-0.742,0.328-0.742,0.738
			c0,0.407,0.332,0.735,0.742,0.735c0.41,0,0.739-0.328,0.739-0.735C86.688,59.902,86.359,59.574,85.949,59.574z"/>
		<path fill="#FFEB00" d="M86.066,66.391c0.211,0,0.379,0.167,0.379,0.375c0,0.207-0.168,0.375-0.379,0.375
			c-0.207,0-0.375-0.168-0.375-0.375C85.691,66.558,85.859,66.391,86.066,66.391z M86.066,66.027c-0.41,0-0.738,0.332-0.738,0.739
			c0,0.406,0.328,0.734,0.738,0.734c0.411,0,0.743-0.328,0.743-0.734C86.809,66.359,86.477,66.027,86.066,66.027z"/>
		<path fill="#FFEB00" d="M85.891,51.941c0.207,0,0.375,0.168,0.375,0.375c0,0.207-0.168,0.375-0.375,0.375
			c-0.211,0-0.379-0.168-0.379-0.375C85.512,52.109,85.68,51.941,85.891,51.941z M85.891,51.582c-0.411,0-0.743,0.328-0.743,0.734
			c0,0.407,0.332,0.735,0.743,0.735c0.406,0,0.738-0.328,0.738-0.735C86.629,51.91,86.297,51.582,85.891,51.582z"/>
		<path fill="#FFEB00" d="M85.949,45.547c0.207,0,0.375,0.168,0.375,0.375s-0.168,0.375-0.375,0.375
			c-0.211,0-0.379-0.168-0.379-0.375S85.738,45.547,85.949,45.547z M85.949,45.187c-0.41,0-0.742,0.329-0.742,0.735
			c0,0.406,0.332,0.734,0.742,0.734c0.41,0,0.739-0.328,0.739-0.734C86.688,45.516,86.359,45.187,85.949,45.187z"/>
		<path fill="#FFEB00" d="M90.176,44.363c0.207,0,0.375,0.168,0.375,0.375s-0.168,0.375-0.375,0.375
			c-0.211,0-0.379-0.168-0.379-0.375S89.965,44.363,90.176,44.363z M90.176,44c-0.41,0-0.742,0.332-0.742,0.738
			c0,0.406,0.332,0.735,0.742,0.735c0.406,0,0.738-0.329,0.738-0.735C90.914,44.332,90.582,44,90.176,44z"/>
		<path fill="#FFEB00" d="M94.758,46.789c0.207,0,0.379,0.168,0.379,0.375s-0.172,0.375-0.379,0.375s-0.375-0.168-0.375-0.375
			S94.551,46.789,94.758,46.789z M94.758,46.43c-0.41,0-0.738,0.328-0.738,0.734c0,0.41,0.328,0.738,0.738,0.738
			c0.41,0,0.738-0.328,0.738-0.738C95.496,46.758,95.168,46.43,94.758,46.43z"/>
		<path fill="#FFEB00" d="M90.891,48.152c0.207,0,0.375,0.168,0.375,0.375s-0.168,0.375-0.375,0.375
			c-0.211,0-0.379-0.168-0.379-0.375S90.68,48.152,90.891,48.152z M90.891,47.793c-0.411,0-0.743,0.328-0.743,0.734
			c0,0.406,0.332,0.735,0.743,0.735c0.406,0,0.738-0.329,0.738-0.735C91.629,48.121,91.297,47.793,90.891,47.793z"/>
		<path fill="#FFEB00" d="M93.09,53.601c0.211,0,0.379,0.165,0.379,0.375c0,0.207-0.168,0.375-0.379,0.375
			c-0.207,0-0.375-0.168-0.375-0.375C92.715,53.766,92.883,53.601,93.09,53.601z M93.09,53.238c-0.406,0-0.738,0.328-0.738,0.738
			c0,0.407,0.332,0.735,0.738,0.735c0.41,0,0.742-0.328,0.742-0.735C93.832,53.566,93.5,53.238,93.09,53.238z"/>
		<path fill="#FFEB00" d="M92.555,64.613c0.211,0,0.379,0.168,0.379,0.375s-0.168,0.375-0.379,0.375
			c-0.207,0-0.375-0.168-0.375-0.375S92.348,64.613,92.555,64.613z M92.555,64.254c-0.41,0-0.739,0.328-0.739,0.733
			c0,0.406,0.329,0.735,0.739,0.735c0.41,0,0.742-0.329,0.742-0.735C93.297,64.583,92.965,64.254,92.555,64.254z"/>
		<path fill="#FFEB00" d="M90.949,72.312c0.207,0,0.375,0.168,0.375,0.375s-0.168,0.375-0.375,0.375
			c-0.211,0-0.379-0.168-0.379-0.375S90.738,72.312,90.949,72.312z M90.949,71.949c-0.41,0-0.742,0.328-0.742,0.738
			c0,0.407,0.332,0.735,0.742,0.735c0.41,0,0.739-0.328,0.739-0.735C91.688,72.277,91.359,71.949,90.949,71.949z"/>
		<path fill="#FFEB00" d="M83.984,70.949c0.207,0,0.375,0.168,0.375,0.375s-0.168,0.375-0.375,0.375
			c-0.211,0-0.379-0.168-0.379-0.375S83.773,70.949,83.984,70.949z M83.984,70.59c-0.41,0-0.738,0.328-0.738,0.733
			c0,0.406,0.328,0.734,0.738,0.734c0.411,0,0.739-0.328,0.739-0.734C84.723,70.918,84.395,70.59,83.984,70.59z"/>
		<path fill="#FFEB00" d="M80.887,68.937c0.211,0,0.379,0.168,0.379,0.375s-0.168,0.375-0.379,0.375
			c-0.207,0-0.375-0.168-0.375-0.375S80.68,68.937,80.887,68.937z M80.887,68.574c-0.407,0-0.739,0.328-0.739,0.738
			c0,0.407,0.332,0.735,0.739,0.735c0.41,0,0.742-0.328,0.742-0.735C81.629,68.902,81.297,68.574,80.887,68.574z"/>
		<path fill="#FFEB00" d="M79.164,72.312c0.207,0,0.375,0.168,0.375,0.375s-0.168,0.375-0.375,0.375
			c-0.211,0-0.379-0.168-0.379-0.375S78.953,72.312,79.164,72.312z M79.164,71.949c-0.41,0-0.742,0.328-0.742,0.738
			c0,0.407,0.332,0.735,0.742,0.735c0.406,0,0.738-0.328,0.738-0.735C79.902,72.277,79.57,71.949,79.164,71.949z"/>
		<path fill="#FFEB00" d="M81.961,75.508c0.207,0,0.375,0.168,0.375,0.375s-0.168,0.375-0.375,0.375
			c-0.211,0-0.379-0.168-0.379-0.375S81.75,75.508,81.961,75.508z M81.961,75.148c-0.41,0-0.742,0.328-0.742,0.735
			c0,0.406,0.332,0.738,0.742,0.738s0.738-0.332,0.738-0.738C82.699,75.476,82.371,75.148,81.961,75.148z"/>
		<path fill="#FFEB00" d="M85.531,74.441c0.207,0,0.379,0.168,0.379,0.375c0,0.211-0.172,0.375-0.379,0.375
			c-0.207,0-0.375-0.164-0.375-0.375C85.156,74.609,85.324,74.441,85.531,74.441z M85.531,74.083c-0.41,0-0.738,0.328-0.738,0.733
			c0,0.41,0.328,0.739,0.738,0.739c0.41,0,0.739-0.329,0.739-0.739C86.27,74.411,85.941,74.083,85.531,74.083z"/>
		<path fill="#FFEB00" d="M89.816,79.18c0.211,0,0.379,0.168,0.379,0.375s-0.168,0.375-0.379,0.375
			c-0.207,0-0.375-0.168-0.375-0.375S89.609,79.18,89.816,79.18z M89.816,78.82c-0.41,0-0.738,0.328-0.738,0.735
			c0,0.406,0.328,0.734,0.738,0.734c0.411,0,0.743-0.328,0.743-0.734C90.559,79.148,90.227,78.82,89.816,78.82z"/>
		<path fill="#FFEB00" d="M92.613,82.023c0.211,0,0.379,0.168,0.379,0.375s-0.168,0.375-0.379,0.375
			c-0.207,0-0.375-0.168-0.375-0.375S92.406,82.023,92.613,82.023z M92.613,81.661c-0.406,0-0.738,0.327-0.738,0.737
			c0,0.407,0.332,0.735,0.738,0.735c0.41,0,0.742-0.328,0.742-0.735C93.355,81.988,93.023,81.661,92.613,81.661z"/>
		<path fill="#FFEB00" d="M85.949,80.422c0.207,0,0.375,0.168,0.375,0.375c0,0.211-0.168,0.375-0.375,0.375
			c-0.211,0-0.379-0.164-0.379-0.375C85.57,80.59,85.738,80.422,85.949,80.422z M85.949,80.062c-0.41,0-0.742,0.329-0.742,0.735
			c0,0.41,0.332,0.738,0.742,0.738c0.41,0,0.739-0.328,0.739-0.738C86.688,80.391,86.359,80.062,85.949,80.062z"/>
		<path fill="#FFEB00" d="M79.637,80.422c0.211,0,0.379,0.168,0.379,0.375c0,0.211-0.168,0.375-0.379,0.375
			c-0.207,0-0.375-0.164-0.375-0.375C79.262,80.59,79.43,80.422,79.637,80.422z M79.637,80.062c-0.407,0-0.739,0.329-0.739,0.735
			c0,0.41,0.332,0.738,0.739,0.738c0.41,0,0.742-0.328,0.742-0.738C80.379,80.391,80.047,80.062,79.637,80.062z"/>
		<path fill="#FFEB00" d="M77.852,83.504c0.21,0,0.378,0.168,0.378,0.375s-0.168,0.375-0.378,0.375
			c-0.207,0-0.375-0.168-0.375-0.375S77.645,83.504,77.852,83.504z M77.852,83.141c-0.407,0-0.739,0.328-0.739,0.738
			c0,0.406,0.332,0.733,0.739,0.733c0.41,0,0.742-0.327,0.742-0.733C78.594,83.469,78.262,83.141,77.852,83.141z"/>
		<path fill="#FFEB00" d="M58.746,78.648c0.207,0,0.375,0.168,0.375,0.375s-0.168,0.375-0.375,0.375
			c-0.211,0-0.379-0.168-0.379-0.375S58.535,78.648,58.746,78.648z M58.746,78.286c-0.41,0-0.742,0.327-0.742,0.737
			c0,0.407,0.332,0.735,0.742,0.735c0.41,0,0.738-0.328,0.738-0.735C59.484,78.613,59.156,78.286,58.746,78.286z"/>
		<path fill="#FFEB00" d="M54.637,78.586c0.211,0,0.379,0.168,0.379,0.375c0,0.211-0.168,0.379-0.379,0.379
			c-0.207,0-0.375-0.168-0.375-0.379C54.262,78.754,54.43,78.586,54.637,78.586z M54.637,78.226c-0.407,0-0.739,0.329-0.739,0.735
			c0,0.41,0.332,0.737,0.739,0.737c0.41,0,0.742-0.327,0.742-0.737C55.379,78.555,55.047,78.226,54.637,78.226z"/>
		<path fill="#FFEB00" d="M55.172,84.449c0.211,0,0.379,0.168,0.379,0.375s-0.168,0.375-0.379,0.375
			c-0.207,0-0.375-0.168-0.375-0.375S54.965,84.449,55.172,84.449z M55.172,84.09c-0.406,0-0.738,0.328-0.738,0.733
			c0,0.406,0.332,0.738,0.738,0.738c0.41,0,0.742-0.332,0.742-0.738C55.914,84.418,55.582,84.09,55.172,84.09z"/>
		<path fill="#FFEB00" d="M61.188,85.988c0.207,0,0.374,0.168,0.374,0.375s-0.167,0.375-0.374,0.375
			c-0.211,0-0.379-0.168-0.379-0.375S60.977,85.988,61.188,85.988z M61.188,85.629c-0.411,0-0.743,0.328-0.743,0.733
			c0,0.41,0.332,0.738,0.743,0.738c0.406,0,0.738-0.328,0.738-0.738C61.926,85.958,61.594,85.629,61.188,85.629z"/>
		<path fill="#FFEB00" d="M63.805,82.911c0.207,0,0.379,0.168,0.379,0.375c0,0.206-0.172,0.375-0.379,0.375
			s-0.375-0.169-0.375-0.375C63.43,83.079,63.598,82.911,63.805,82.911z M63.805,82.551c-0.41,0-0.739,0.328-0.739,0.734
			c0,0.405,0.329,0.733,0.739,0.733c0.41,0,0.738-0.328,0.738-0.733C64.543,82.879,64.215,82.551,63.805,82.551z"/>
		<path fill="#FFEB00" d="M67.91,84.152c0.211,0,0.379,0.168,0.379,0.375c0,0.211-0.168,0.375-0.379,0.375
			c-0.207,0-0.375-0.164-0.375-0.375C67.535,84.32,67.703,84.152,67.91,84.152z M67.91,83.793c-0.406,0-0.738,0.328-0.738,0.733
			c0,0.41,0.332,0.739,0.738,0.739c0.41,0,0.742-0.329,0.742-0.739C68.652,84.122,68.32,83.793,67.91,83.793z"/>
		<path fill="#FFEB00" d="M68.508,88.062c0.207,0,0.375,0.168,0.375,0.375s-0.168,0.375-0.375,0.375
			c-0.211,0-0.379-0.168-0.379-0.375S68.297,88.062,68.508,88.062z M68.508,87.704c-0.41,0-0.738,0.327-0.738,0.733
			c0,0.407,0.328,0.735,0.738,0.735c0.41,0,0.738-0.328,0.738-0.735C69.246,88.031,68.918,87.704,68.508,87.704z"/>
		<path fill="#FFEB00" d="M64.461,88.062c0.207,0,0.375,0.168,0.375,0.375s-0.168,0.375-0.375,0.375
			c-0.211,0-0.379-0.168-0.379-0.375S64.25,88.062,64.461,88.062z M64.461,87.704c-0.41,0-0.742,0.327-0.742,0.733
			c0,0.407,0.332,0.735,0.742,0.735c0.406,0,0.738-0.328,0.738-0.735C65.199,88.031,64.867,87.704,64.461,87.704z"/>
		<path fill="#FFEB00" d="M74.34,87.172c0.211,0,0.379,0.168,0.379,0.375c0,0.211-0.168,0.375-0.379,0.375
			c-0.207,0-0.375-0.164-0.375-0.375C73.965,87.34,74.133,87.172,74.34,87.172z M74.34,86.812c-0.41,0-0.738,0.329-0.738,0.735
			c0,0.41,0.328,0.738,0.738,0.738c0.41,0,0.742-0.328,0.742-0.738C75.082,87.141,74.75,86.812,74.34,86.812z"/>
		<path fill="#FFEB00" d="M81.125,86.82c0.211,0,0.379,0.164,0.379,0.375c0,0.207-0.168,0.375-0.379,0.375
			c-0.207,0-0.375-0.168-0.375-0.375C80.75,86.984,80.918,86.82,81.125,86.82z M81.125,86.458c-0.406,0-0.738,0.328-0.738,0.737
			c0,0.406,0.332,0.735,0.738,0.735c0.41,0,0.742-0.329,0.742-0.735C81.867,86.786,81.535,86.458,81.125,86.458z"/>
		<path fill="#FFEB00" d="M54.578,91.437c0.207,0,0.379,0.168,0.379,0.375s-0.172,0.375-0.379,0.375s-0.375-0.168-0.375-0.375
			S54.371,91.437,54.578,91.437z M54.578,91.079c-0.41,0-0.738,0.327-0.738,0.733c0,0.407,0.328,0.735,0.738,0.735
			c0.41,0,0.738-0.328,0.738-0.735C55.316,91.406,54.988,91.079,54.578,91.079z"/>
		<path fill="#FFEB00" d="M58.148,90.844c0.211,0,0.379,0.168,0.379,0.375s-0.168,0.375-0.379,0.375
			c-0.207,0-0.375-0.168-0.375-0.375S57.941,90.844,58.148,90.844z M58.148,90.484c-0.406,0-0.738,0.328-0.738,0.735
			c0,0.41,0.332,0.738,0.738,0.738c0.411,0,0.743-0.328,0.743-0.738C58.891,90.812,58.559,90.484,58.148,90.484z"/>
		<path fill="#FFEB00" d="M66.008,91.497c0.207,0,0.375,0.168,0.375,0.375s-0.168,0.375-0.375,0.375
			c-0.211,0-0.379-0.168-0.379-0.375S65.797,91.497,66.008,91.497z M66.008,91.137c-0.41,0-0.738,0.328-0.738,0.734
			c0,0.405,0.328,0.733,0.738,0.733c0.41,0,0.738-0.328,0.738-0.733C66.746,91.465,66.418,91.137,66.008,91.137z"/>
		<path fill="#FFEB00" d="M71.426,93.391c0.207,0,0.375,0.167,0.375,0.375c0,0.207-0.168,0.375-0.375,0.375
			c-0.211,0-0.379-0.168-0.379-0.375C71.047,93.558,71.215,93.391,71.426,93.391z M71.426,93.031c-0.41,0-0.742,0.328-0.742,0.735
			c0,0.406,0.332,0.734,0.742,0.734c0.406,0,0.738-0.328,0.738-0.734C72.164,93.359,71.832,93.031,71.426,93.031z"/>
		<path fill="#FFEB00" d="M64.699,93.391c0.207,0,0.375,0.167,0.375,0.375c0,0.207-0.168,0.375-0.375,0.375
			c-0.211,0-0.379-0.168-0.379-0.375C64.32,93.558,64.488,93.391,64.699,93.391z M64.699,93.031c-0.41,0-0.742,0.328-0.742,0.735
			c0,0.406,0.332,0.734,0.742,0.734c0.406,0,0.739-0.328,0.739-0.734C65.438,93.359,65.105,93.031,64.699,93.031z"/>
		<path fill="#FFEB00" d="M64.938,96.234c0.207,0,0.374,0.168,0.374,0.375s-0.167,0.375-0.374,0.375
			c-0.211,0-0.379-0.168-0.379-0.375S64.727,96.234,64.938,96.234z M64.938,95.872c-0.411,0-0.743,0.332-0.743,0.737
			c0,0.407,0.332,0.735,0.743,0.735c0.406,0,0.738-0.328,0.738-0.735C65.676,96.204,65.344,95.872,64.938,95.872z"/>
		<path fill="#FFEB00" d="M69.758,98.129c0.207,0,0.375,0.168,0.375,0.375s-0.168,0.375-0.375,0.375
			c-0.211,0-0.379-0.168-0.379-0.375S69.547,98.129,69.758,98.129z M69.758,97.766c-0.41,0-0.738,0.332-0.738,0.738
			s0.328,0.733,0.738,0.733c0.41,0,0.738-0.327,0.738-0.733S70.168,97.766,69.758,97.766z"/>
		<path fill="#FFEB00" d="M73.387,96.945c0.211,0,0.379,0.168,0.379,0.375s-0.168,0.375-0.379,0.375
			c-0.207,0-0.375-0.168-0.375-0.375S73.18,96.945,73.387,96.945z M73.387,96.583c-0.407,0-0.739,0.328-0.739,0.737
			c0,0.406,0.332,0.735,0.739,0.735c0.41,0,0.742-0.329,0.742-0.735C74.129,96.911,73.797,96.583,73.387,96.583z"/>
		<path fill="#FFEB00" d="M78.508,94.161c0.207,0,0.375,0.168,0.375,0.375c0,0.206-0.168,0.375-0.375,0.375
			s-0.379-0.169-0.379-0.375C78.129,94.329,78.301,94.161,78.508,94.161z M78.508,93.801c-0.41,0-0.738,0.328-0.738,0.734
			c0,0.405,0.328,0.737,0.738,0.737c0.41,0,0.738-0.332,0.738-0.737C79.246,94.129,78.918,93.801,78.508,93.801z"/>
		<path fill="#FFEB00" d="M74.816,91.613c0.211,0,0.379,0.168,0.379,0.375s-0.168,0.375-0.379,0.375
			c-0.207,0-0.375-0.168-0.375-0.375S74.609,91.613,74.816,91.613z M74.816,91.254c-0.41,0-0.738,0.328-0.738,0.733
			c0,0.41,0.328,0.738,0.738,0.738c0.411,0,0.739-0.328,0.739-0.738C75.555,91.583,75.227,91.254,74.816,91.254z"/>
		<path fill="#FFEB00" d="M77.793,101.148c0.207,0,0.379,0.168,0.379,0.375s-0.172,0.375-0.379,0.375s-0.375-0.168-0.375-0.375
			S77.586,101.148,77.793,101.148z M77.793,100.79c-0.41,0-0.738,0.327-0.738,0.733c0,0.407,0.328,0.735,0.738,0.735
			s0.738-0.328,0.738-0.735C78.531,101.117,78.203,100.79,77.793,100.79z"/>
		<path fill="#FFEB00" d="M71.426,102.747c0.207,0,0.375,0.168,0.375,0.375s-0.168,0.375-0.375,0.375
			c-0.211,0-0.379-0.168-0.379-0.375S71.215,102.747,71.426,102.747z M71.426,102.387c-0.41,0-0.742,0.328-0.742,0.734
			c0,0.405,0.332,0.737,0.742,0.737c0.406,0,0.738-0.332,0.738-0.737C72.164,102.715,71.832,102.387,71.426,102.387z"/>
		<path fill="#FFEB00" d="M58.508,96.293c0.207,0,0.375,0.168,0.375,0.375s-0.168,0.375-0.375,0.375
			c-0.211,0-0.379-0.168-0.379-0.375S58.297,96.293,58.508,96.293z M58.508,95.933c-0.41,0-0.742,0.329-0.742,0.735
			c0,0.405,0.332,0.733,0.742,0.733c0.41,0,0.738-0.328,0.738-0.733C59.246,96.262,58.918,95.933,58.508,95.933z"/>
	</g>
</g>
</svg>
